SubSource-HROTdd_VROTx.ufo
<glyph name="exclam" format="2">
  <advance width="261"/>
  <unicode hex="0021"/>
  <outline>
    <contour>
      <point x="177.0" y="462.0" type="curve" smooth="yes"/>
      <point x="177.0" y="417.0"/>
      <point x="177.0" y="392.0"/>
      <point x="177.0" y="372.0" type="curve" smooth="yes"/>
      <point x="177.0" y="322.0"/>
      <point x="177.0" y="305.0"/>
      <point x="177.0" y="271.0" type="curve" smooth="yes"/>
      <point x="177.0" y="237.0"/>
      <point x="177.0" y="245.0"/>
      <point x="177.0" y="203.0" type="curve" smooth="yes"/>
      <point x="177.0" y="139.0"/>
      <point x="87.0" y="137.0"/>
      <point x="87.0" y="204.0" type="curve" smooth="yes"/>
      <point x="87.0" y="246.0"/>
      <point x="87.0" y="246.0"/>
      <point x="87.0" y="271.0" type="curve" smooth="yes"/>
      <point x="87.0" y="324.0"/>
      <point x="87.0" y="336.0"/>
      <point x="87.0" y="375.0" type="curve" smooth="yes"/>
      <point x="87.0" y="399.0"/>
      <point x="87.0" y="429.0"/>
      <point x="87.0" y="467.0" type="curve" smooth="yes"/>
      <point x="87.0" y="531.0"/>
      <point x="177.0" y="536.0"/>
    </contour>
    <contour>
      <point x="89.0" y="4.0" type="curve" smooth="yes"/>
      <point x="89.0" y="30.0"/>
      <point x="89.0" y="30.0"/>
      <point x="89.0" y="57.0" type="curve" smooth="yes"/>
      <point x="89.0" y="115.0"/>
      <point x="179.0" y="115.0"/>
      <point x="179.0" y="57.0" type="curve" smooth="yes"/>
      <point x="179.0" y="30.0"/>
      <point x="179.0" y="30.0"/>
      <point x="179.0" y="4.0" type="curve" smooth="yes"/>
      <point x="179.0" y="-54.0"/>
      <point x="89.0" y="-54.0"/>
    </contour>
  </outline>
</glyph>
<glyph name="dollar" format="2">
  <advance width="500"/>
  <unicode hex="0024"/>
  <outline>
    <contour>
      <point x="327" y="571" type="curve" smooth="yes"/>
      <point x="323" y="539"/>
      <point x="316" y="532"/>
      <point x="338" y="527" type="curve" smooth="yes"/>
      <point x="513" y="487"/>
      <point x="455" y="345"/>
      <point x="321" y="368" type="curve" smooth="yes"/>
      <point x="277" y="375"/>
      <point x="146" y="369"/>
      <point x="146" y="329" type="curve" smooth="yes"/>
      <point x="146" y="261"/>
      <point x="466" y="297"/>
      <point x="466" y="131" type="curve" smooth="yes"/>
      <point x="466" y="20"/>
      <point x="301" y="-19"/>
      <point x="182" y="1" type="curve" smooth="yes"/>
      <point x="44" y="23"/>
      <point x="20" y="196"/>
      <point x="198" y="160" type="curve" smooth="yes"/>
      <point x="274" y="144"/>
      <point x="286" y="114"/>
      <point x="275" y="16" type="curve" smooth="yes"/>
      <point x="267" y="-51"/>
      <point x="178" y="-41"/>
      <point x="185" y="26" type="curve" smooth="yes"/>
      <point x="188" y="47"/>
      <point x="196" y="69"/>
      <point x="180" y="72" type="curve" smooth="yes"/>
      <point x="172" y="74"/>
      <point x="190" y="90"/>
      <point x="196" y="89" type="curve" smooth="yes"/>
      <point x="240" y="82"/>
      <point x="376" y="91"/>
      <point x="376" y="131" type="curve" smooth="yes"/>
      <point x="376" y="201"/>
      <point x="56" y="167"/>
      <point x="56" y="329" type="curve" smooth="yes"/>
      <point x="56" y="440"/>
      <point x="216" y="476"/>
      <point x="335" y="456" type="curve" smooth="yes"/>
      <point x="342" y="455"/>
      <point x="326" y="437"/>
      <point x="318" y="439" type="curve" smooth="yes"/>
      <point x="246" y="456"/>
      <point x="226" y="475"/>
      <point x="237" y="581" type="curve" smooth="yes"/>
      <point x="244" y="648"/>
      <point x="334" y="638"/>
    </contour>
  </outline>
</glyph>
<glyph name="percent" format="2">
  <advance width="1023"/>
  <unicode hex="0025"/>
  <outline>
    <contour>
      <point x="723.4639508097159" y="-10.439676539365877" type="curve" smooth="yes"/>
      <point x="650.8460090134067" y="-3.1034729002900647"/>
      <point x="602.9948373291611" y="50.730286217577536"/>
      <point x="603.0069097575773" y="119.9002062431497" type="curve" smooth="yes"/>
      <point x="603.0216054131637" y="204.1001108977277"/>
      <point x="673.0677593064717" y="271.66547622084397"/>
      <point x="784.0255424263523" y="271.66547622084397" type="curve" smooth="yes"/>
      <point x="895.1498454531202" y="271.66547622084397"/>
      <point x="967.0216219236338" y="204.21076595221402"/>
      <point x="967.0069042135405" y="119.88449828020077" type="curve" smooth="yes"/>
      <point x="966.99489412154" y="51.07173961040496"/>
      <point x="918.5390602166922" y="-3.158830663351041"/>
      <point x="843.3336501690674" y="-10.45715355257179" type="curve" smooth="yes"/>
      <point x="776.1492722330552" y="-16.977073901093966"/>
      <point x="767.4560451016923" y="72.60209668025566"/>
      <point x="834.6404230377045" y="79.12201702877783" type="curve" smooth="yes"/>
      <point x="861.2974285626735" y="81.70895104665983"/>
      <point x="877.0026485356756" y="95.50911407454807"/>
      <point x="877.0069055843188" y="119.90020624314974" type="curve" smooth="yes"/>
      <point x="877.0137570886515" y="159.15643459990162"/>
      <point x="835.7570032870527" y="181.66547622084394"/>
      <point x="784.0255424263523" y="181.66547622084394" type="curve" smooth="yes"/>
      <point x="732.0614193204311" y="181.66547622084394"/>
      <point x="693.0137907057724" y="159.31728152398705"/>
      <point x="693.006908386799" y="119.88449828020082" type="curve" smooth="yes"/>
      <point x="693.0027020147494" y="95.78376160664456"/>
      <point x="707.2080017862409" y="81.66067875367636"/>
      <point x="732.5101257783092" y="79.10454001557193" type="curve" smooth="yes"/>
      <point x="799.6682881945126" y="72.3199087891271"/>
      <point x="790.6221132259193" y="-17.2243077658107"/>
    </contour>
    <contour>
      <point x="418.8174846241783" y="369.77579570205705" type="curve" smooth="yes"/>
      <point x="430.6663785716909" y="252.3392372520538"/>
      <point x="343.1559243082205" y="185.20101012677668"/>
      <point x="239.02616779424864" y="185.20101012677668" type="curve" smooth="yes"/>
      <point x="126.88508563587577" y="185.20101012677668"/>
      <point x="57.03025597348476" y="253.61652334337393"/>
      <point x="57.04492940524413" y="337.68909484860643" type="curve" smooth="yes"/>
      <point x="57.0595221734606" y="421.2994982945897"/>
      <point x="124.60279274169147" y="478.69469946389535"/>
      <point x="234.77206874125298" y="489.2492650394448" type="curve" smooth="yes"/>
      <point x="307.23957376956474" y="496.1918815446202"/>
      <point x="375.44878999183146" y="505.50193423507875"/>
      <point x="505.5990606222742" y="524.3453504327865" type="curve" smooth="yes"/>
      <point x="758.2821470672658" y="560.929312501711"/>
      <point x="834.9598991260272" y="501.87647813226755"/>
      <point x="637.3659071238459" y="297.88688532345697" type="curve" smooth="yes"/>
      <point x="559.2254407040957" y="217.2172163454679"/>
      <point x="508.3432516033828" y="166.05404560912567"/>
      <point x="429.0821893546266" y="85.50216074314817" type="curve" smooth="yes"/>
      <point x="392.29019680835006" y="48.11098450233154"/>
      <point x="352.52872074454865" y="16.853543958596685"/>
      <point x="315.5607642058739" y="-2.152602790886867" type="curve" smooth="yes"/>
      <point x="255.52991155349" y="-33.01595856805037"/>
      <point x="214.37877051727193" y="47.02517830179484"/>
      <point x="274.40962316965584" y="77.88853407895834" type="curve" smooth="yes"/>
      <point x="303.4246369765682" y="92.80587498676712"/>
      <point x="336.0537440552258" y="119.27850357659867"/>
      <point x="364.93064912833233" y="148.62568953071" type="curve" smooth="yes"/>
      <point x="443.9862394867034" y="228.9687562508299"/>
      <point x="494.78307357311456" y="280.0444881670618"/>
      <point x="572.7209730716642" y="360.5050336623297" type="curve" smooth="yes"/>
      <point x="676.7998056816531" y="467.95262591449523"/>
      <point x="651.590933307683" y="454.5439553034833"/>
      <point x="518.4949803842085" y="435.2740573384694" type="curve" smooth="yes"/>
      <point x="386.4329426871778" y="416.15385168550887"/>
      <point x="316.8870298739636" y="406.7040606649454"/>
      <point x="243.35505537632363" y="399.6594646131564" type="curve" smooth="yes"/>
      <point x="191.8821700549199" y="394.72819917133177"/>
      <point x="147.05174601414396" y="376.7375331206614"/>
      <point x="147.04492803446578" y="337.6733868856574" type="curve" smooth="yes"/>
      <point x="147.03801812417228" y="298.0825170215407"/>
      <point x="186.2174703717243" y="275.2010101267767"/>
      <point x="239.02616779424864" y="275.2010101267767" type="curve" smooth="yes"/>
      <point x="292.67924446795934" y="275.2010101267767"/>
      <point x="335.3772853011842" y="300.231580526876"/>
      <point x="329.2721177031091" y="360.7410149647575" type="curve" smooth="yes"/>
      <point x="322.4960321501344" y="427.9000401555594"/>
      <point x="412.0413990712036" y="436.93482089285897"/>
    </contour>
  </outline>
</glyph>
<glyph name="ampersand" format="2">
  <advance width="634"/>
  <unicode hex="0026"/>
  <outline>
    <contour>
      <point x="576.012090569808" y="274.29646455628165" type="curve" smooth="yes"/>
      <point x="378.01209358552046" y="274.29646455628165" type="line" smooth="yes"/>
      <point x="254.039229794408" y="274.29646455628165"/>
      <point x="153.00066184952354" y="253.76995277495857"/>
      <point x="152.99136355886026" y="200.4946713354672" type="curve" smooth="yes"/>
      <point x="152.9847333358233" y="162.50629141768792"/>
      <point x="222.65023068598575" y="142.26493526370575"/>
      <point x="287.97334314420164" y="142.26493526370572" type="curve" smooth="yes"/>
      <point x="360.79226555617595" y="142.2649352637057"/>
      <point x="425.98517114630994" y="165.0542924488912"/>
      <point x="425.99358084229027" y="213.23830135977397" type="curve" smooth="yes"/>
      <point x="425.0278358150898" y="406.04534332384407" type="line" smooth="yes"/>
      <point x="424.68995283751536" y="473.54449765257226"/>
      <point x="514.6888252758196" y="473.99500828933816"/>
      <point x="515.0267082533941" y="406.49585396060996" type="curve" smooth="yes"/>
      <point x="515.9935794715119" y="213.22259339682506" type="line" smooth="yes"/>
      <point x="515.9771853519853" y="119.29120714904323"/>
      <point x="429.92878607708604" y="52.26493526370571"/>
      <point x="287.97334314420164" y="52.26493526370572" type="curve" smooth="yes"/>
      <point x="144.87150771586334" y="52.26493526370574"/>
      <point x="62.97684025299377" y="117.29011182171669"/>
      <point x="62.99136492963861" y="200.51037929841615" type="curve" smooth="yes"/>
      <point x="63.008398136817576" y="298.1034680866021"/>
      <point x="150.91062407881628" y="364.29646455628165"/>
      <point x="378.01209358552046" y="364.29646455628165" type="curve" smooth="yes"/>
      <point x="576.012090569808" y="364.29646455628165" type="line" smooth="yes"/>
      <point x="643.512090569808" y="364.29646455628165"/>
      <point x="643.512090569808" y="274.29646455628165"/>
    </contour>
    <contour>
      <point x="418.4316858596117" y="468.8611893225146" type="curve" smooth="yes"/>
      <point x="331.9841545451991" y="491.954928711369"/>
      <point x="170.04244833741612" y="493.1903772120029"/>
      <point x="170.0312258327616" y="428.89016165872204" type="curve" smooth="yes"/>
      <point x="170.02406309869596" y="387.850718276844"/>
      <point x="266.44912890515724" y="364.29646455628165"/>
      <point x="378.01209358552046" y="364.29646455628165" type="curve" smooth="yes"/>
      <point x="445.51209358552046" y="364.29646455628165"/>
      <point x="445.51209358552046" y="274.29646455628165"/>
      <point x="378.01209358552046" y="274.29646455628165" type="curve" smooth="yes"/>
      <point x="156.84767590838788" y="274.29646455628165"/>
      <point x="80.01702767134621" y="347.54854263281317"/>
      <point x="80.03122720353993" y="428.90586962167106" type="curve" smooth="yes"/>
      <point x="80.05423397862513" y="560.7249815494263"/>
      <point x="264.437510118066" y="603.155526179281"/>
      <point x="441.65988345163856" y="555.8120423179037" type="curve" smooth="yes"/>
      <point x="506.87302319818036" y="538.3908941238835"/>
      <point x="483.6448256061535" y="451.4400411284944"/>
    </contour>
  </outline>
</glyph>
<glyph name="parenleft" format="2">
  <advance width="452"/>
  <unicode hex="0028"/>
  <outline>
    <contour>
      <point x="395" y="-129" type="curve" smooth="yes"/>
      <point x="335" y="-134"/>
      <point x="275" y="-119"/>
      <point x="225" y="-85" type="curve" smooth="yes"/>
      <point x="135" y="-25"/>
      <point x="69" y="73"/>
      <point x="69" y="207" type="curve" smooth="yes"/>
      <point x="69" y="339"/>
      <point x="135" y="438"/>
      <point x="225" y="498" type="curve" smooth="yes"/>
      <point x="269" y="528"/>
      <point x="320" y="556"/>
      <point x="372" y="581" type="curve" smooth="yes"/>
      <point x="432" y="610"/>
      <point x="471" y="529"/>
      <point x="410" y="499" type="curve" smooth="yes"/>
      <point x="362" y="476"/>
      <point x="315" y="450"/>
      <point x="275" y="424" type="curve" smooth="yes"/>
      <point x="207" y="378"/>
      <point x="159" y="307"/>
      <point x="159" y="207" type="curve" smooth="yes"/>
      <point x="159" y="107"/>
      <point x="207" y="35"/>
      <point x="275" y="-11" type="curve" smooth="yes"/>
      <point x="309" y="-33"/>
      <point x="347" y="-42"/>
      <point x="387" y="-39" type="curve" smooth="yes"/>
      <point x="455" y="-34"/>
      <point x="462" y="-123"/>
    </contour>
  </outline>
</glyph>
<glyph name="parenright" format="2">
  <advance width="452"/>
  <unicode hex="0029"/>
  <outline>
    <contour>
      <point x="69.02848707592366" y="645.5882946016098" type="curve" smooth="yes"/>
      <point x="232.08323738808295" y="613.560218462506"/>
      <point x="382.33601426908535" y="492.16770734480326"/>
      <point x="382.30065781137205" y="289.5901257649722" type="curve" smooth="yes"/>
      <point x="382.26530135365874" y="87.01254418514117"/>
      <point x="231.98499409921985" y="-34.36437143200357"/>
      <point x="68.91906387948316" y="-66.39244757110733" type="curve" smooth="yes"/>
      <point x="2.684558658053419" y="-79.40168729033752"/>
      <point x="-14.661094300920162" y="8.910986338235466"/>
      <point x="51.57341092050958" y="21.920226057465655" type="curve" smooth="yes"/>
      <point x="176.46292153572324" y="46.4500021398722"/>
      <point x="292.27358025343136" y="134.45500000669983"/>
      <point x="292.3006591821504" y="289.6058337279211" type="curve" smooth="yes"/>
      <point x="292.32773811086946" y="444.75666744914236"/>
      <point x="176.56263709504242" y="532.7460698154119"/>
      <point x="51.68168898693355" y="557.2758458978184" type="curve" smooth="yes"/>
      <point x="-14.552647540910073" y="570.285944464561"/>
      <point x="2.79415054808004" y="658.5983931683525"/>
    </contour>
  </outline>
</glyph>
<glyph name="asterisk" format="2">
  <advance width="614"/>
  <unicode hex="002A"/>
  <outline>
    <contour>
      <point x="85.0264138519183" y="446.32085117392114" type="curve" smooth="yes"/>
      <point x="133.76461278665332" y="446.32085117392114"/>
      <point x="154.32094083592085" y="446.32085117392114"/>
      <point x="187.02641229836948" y="446.32085117392114" type="curve" smooth="yes"/>
      <point x="263.18129216385216" y="446.32085117392114"/>
      <point x="349.9038740593246" y="405.6982218024412"/>
      <point x="385.1804004884803" y="361.51641726756304" type="curve" smooth="yes"/>
      <point x="405.17866893742325" y="336.46974524270723"/>
      <point x="415.2521464379009" y="324.64965972235444"/>
      <point x="435.3917157537408" y="299.0104768773431" type="curve" smooth="yes"/>
      <point x="477.0876259163608" y="245.92845472566992"/>
      <point x="406.3115963807966" y="190.3339078421766"/>
      <point x="364.61568621817656" y="243.41592999384974" type="curve" smooth="yes"/>
      <point x="344.7875060128988" y="268.65869113706356"/>
      <point x="335.16106769019154" y="279.9207497421745"/>
      <point x="314.8487237674448" y="305.36078309246216" type="curve" smooth="yes"/>
      <point x="294.66976981382624" y="330.6337532384184"/>
      <point x="230.58868924859792" y="356.32085117392114"/>
      <point x="187.02641229836948" y="356.32085117392114" type="curve" smooth="yes"/>
      <point x="138.2882133636344" y="356.32085117392114"/>
      <point x="117.73188531436683" y="356.32085117392114"/>
      <point x="85.0264138519183" y="356.32085117392114" type="curve" smooth="yes"/>
      <point x="17.526413851918306" y="356.32085117392114"/>
      <point x="17.526413851918306" y="446.32085117392114"/>
    </contour>
    <contour>
      <point x="435.44594106198315" y="418.77077441720115" type="curve" smooth="yes"/>
      <point x="415.35803894376306" y="393.20872723331576"/>
      <point x="406.50340041727844" y="381.6665219446744"/>
      <point x="386.21292035471527" y="356.2649769803796" type="curve" smooth="yes"/>
      <point x="350.90331024260877" y="312.0610623283434"/>
      <point x="263.2341792135036" y="271.4680374315355"/>
      <point x="187.04122190808815" y="271.4680374315355" type="curve" smooth="yes"/>
      <point x="138.30302297335314" y="271.4680374315355"/>
      <point x="117.74669492408552" y="271.4680374315355"/>
      <point x="85.04122346163699" y="271.4680374315355" type="curve" smooth="yes"/>
      <point x="17.54122346163699" y="271.4680374315355"/>
      <point x="17.541223461637017" y="361.4680374315355"/>
      <point x="85.04122346163702" y="361.4680374315355" type="curve" smooth="yes"/>
      <point x="133.77942239637204" y="361.4680374315355"/>
      <point x="154.33575044563955" y="361.4680374315355"/>
      <point x="187.04122190808815" y="361.4680374315355" type="curve" smooth="yes"/>
      <point x="230.5599474719356" y="361.4680374315355"/>
      <point x="295.72561191876486" y="387.187885401589"/>
      <point x="315.8932138412853" y="412.4355998705085" type="curve" smooth="yes"/>
      <point x="336.02036963470186" y="437.63268004374373"/>
      <point x="344.75570394151396" y="449.0243054610638"/>
      <point x="364.6819124023127" y="474.38059592251926" type="curve" smooth="yes"/>
      <point x="406.3892785313013" y="527.4536174172721"/>
      <point x="477.1533071909717" y="471.84379591195403"/>
    </contour>
    <contour>
      <point x="504.02640747018336" y="356.32085117392114" type="curve" smooth="yes"/>
      <point x="455.2882085354483" y="356.32085117392114"/>
      <point x="434.73188048618084" y="356.32085117392114"/>
      <point x="402.02640902373224" y="356.32085117392114" type="curve" smooth="yes"/>
      <point x="325.8715291582496" y="356.32085117392114"/>
      <point x="239.14894726277697" y="396.9434805454011"/>
      <point x="203.8724208336214" y="441.1252850802793" type="curve" smooth="yes"/>
      <point x="183.8741523846784" y="466.17195710513516"/>
      <point x="173.80067488420096" y="477.9920426254879"/>
      <point x="153.6611055683609" y="503.63122547049926" type="curve" smooth="yes"/>
      <point x="111.9651954057409" y="556.7132476221724"/>
      <point x="182.74122494130515" y="612.3077945056658"/>
      <point x="224.43713510392516" y="559.2257723539926" type="curve" smooth="yes"/>
      <point x="244.2653153092028" y="533.9830112107788"/>
      <point x="253.89175363191015" y="522.720952605668"/>
      <point x="274.20409755465687" y="497.2809192553802" type="curve" smooth="yes"/>
      <point x="294.38305150827546" y="472.0079491094239"/>
      <point x="358.4641320735037" y="446.32085117392114"/>
      <point x="402.02640902373224" y="446.32085117392114" type="curve" smooth="yes"/>
      <point x="450.7646079584673" y="446.32085117392114"/>
      <point x="471.32093600773476" y="446.32085117392114"/>
      <point x="504.02640747018336" y="446.32085117392114" type="curve" smooth="yes"/>
      <point x="571.5264074701834" y="446.32085117392114"/>
      <point x="571.5264074701834" y="356.32085117392114"/>
    </contour>
    <contour>
      <point x="153.6364994795559" y="214.16530044586983" type="curve" smooth="yes"/>
      <point x="174.4628509700365" y="240.66703150443465"/>
      <point x="188.51064975362266" y="254.55668703653114"/>
      <point x="207.86989035091244" y="278.7924182262511" type="curve" smooth="yes"/>
      <point x="243.16185448095408" y="322.97424196641714"/>
      <point x="325.88633876796825" y="361.4680374315355"/>
      <point x="402.0412186334509" y="361.4680374315355" type="curve" smooth="yes"/>
      <point x="450.779417568186" y="361.4680374315355"/>
      <point x="471.3357456174535" y="361.4680374315355"/>
      <point x="504.0412170799021" y="361.4680374315355" type="curve" smooth="yes"/>
      <point x="571.541217079902" y="361.4680374315355"/>
      <point x="571.541217079902" y="271.4680374315355"/>
      <point x="504.0412170799021" y="271.4680374315355" type="curve" smooth="yes"/>
      <point x="455.303018145167" y="271.4680374315355"/>
      <point x="434.7466900958995" y="271.4680374315355"/>
      <point x="402.0412186334509" y="271.4680374315355" type="curve" smooth="yes"/>
      <point x="358.4789416832224" y="271.4680374315355"/>
      <point x="298.3773815245769" y="247.89477646792804"/>
      <point x="278.1895968643424" y="222.62179533612203" type="curve" smooth="yes"/>
      <point x="257.15322048185067" y="196.2864667032821"/>
      <point x="243.5664881856295" y="182.94434603813926"/>
      <point x="224.40052813922628" y="158.5554789405516" type="curve" smooth="yes"/>
      <point x="182.6931620102377" y="105.48245744579877"/>
      <point x="111.92913335056733" y="161.092278951117"/>
    </contour>
    <contour>
      <point x="225.45182128499863" y="473.6658518304203" type="curve" smooth="yes"/>
      <point x="245.3194351056383" y="448.3728887360798"/>
      <point x="254.91871823290413" y="436.9204268654706"/>
      <point x="275.0961413343843" y="411.87391696884816" type="curve" smooth="yes"/>
      <point x="303.7258247149091" y="376.3355013584389"/>
      <point x="357.07762936611925" y="310.97637949856113"/>
      <point x="385.9102037591098" y="275.6023719726962" type="curve" smooth="yes"/>
      <point x="406.09624379962565" y="250.83659412095426"/>
      <point x="415.16342235910525" y="239.21938738616674"/>
      <point x="435.0214971658781" y="214.64096484942613" type="curve" smooth="yes"/>
      <point x="477.44235990020127" y="162.13648499412508"/>
      <point x="407.4363867597998" y="105.57533468169427"/>
      <point x="365.0155240254766" y="158.07981453699531" type="curve" smooth="yes"/>
      <point x="344.99655285137845" y="182.85737918288936"/>
      <point x="336.1713263220153" y="194.17468203683345"/>
      <point x="316.1480460321337" y="218.7407737778115" type="curve" smooth="yes"/>
      <point x="287.1975401317237" y="254.25946869697466"/>
      <point x="233.75653443556567" y="319.72867085109465"/>
      <point x="205.0097494160409" y="355.4124463196668" type="curve" smooth="yes"/>
      <point x="184.57656832084612" y="380.7764320945764"/>
      <point x="174.7952365905721" y="392.4577420681851"/>
      <point x="154.67579174943438" y="418.071304946927" type="curve" smooth="yes"/>
      <point x="112.97988158681437" y="471.1533270986002"/>
      <point x="183.75591112237862" y="526.7478739820934"/>
    </contour>
  </outline>
</glyph>
<glyph name="plus" format="2">
  <advance width="540"/>
  <unicode hex="002B"/>
  <outline>
    <contour>
      <point x="315" y="347" type="curve" smooth="yes"/>
      <point x="315" y="281"/>
      <point x="315" y="175"/>
      <point x="315" y="71" type="curve" smooth="yes"/>
      <point x="315" y="3"/>
      <point x="225" y="4"/>
      <point x="225" y="71" type="curve" smooth="yes"/>
      <point x="225" y="226"/>
      <point x="225" y="303"/>
      <point x="225" y="347" type="curve" smooth="yes"/>
      <point x="225" y="415"/>
      <point x="315" y="415"/>
    </contour>
    <contour>
      <point x="472" y="166" type="curve" smooth="yes"/>
      <point x="339" y="127"/>
      <point x="201" y="127"/>
      <point x="68" y="166" type="curve" smooth="yes"/>
      <point x="3" y="184"/>
      <point x="28" y="271"/>
      <point x="92" y="252" type="curve" smooth="yes"/>
      <point x="209" y="219"/>
      <point x="331" y="219"/>
      <point x="448" y="252" type="curve" smooth="yes"/>
      <point x="512" y="271"/>
      <point x="537" y="184"/>
    </contour>
  </outline>
</glyph>
<glyph name="comma" format="2">
  <advance width="269"/>
  <unicode hex="002C"/>
  <outline>
    <contour>
      <point x="78.99315601776556" y="-48.422546008936045" type="curve" smooth="yes"/>
      <point x="101.00214467414727" y="-32.86457055696282"/>
      <point x="108.30735067746305" y="-3.2186834057063893"/>
      <point x="85.23236427914124" y="22.964250891516823" type="curve" smooth="yes"/>
      <point x="40.6029285429866" y="73.60478273975518"/>
      <point x="108.1236376739711" y="133.11069705462802"/>
      <point x="152.75307341012575" y="82.47016520638965" type="curve" smooth="yes"/>
      <point x="215.6474468799585" y="11.10460859026893"/>
      <point x="190.9329858911521" y="-79.50906195792626"/>
      <point x="130.9441508663801" y="-121.91468255591107" type="curve" smooth="yes"/>
      <point x="75.8250484561488" y="-160.87792869237197"/>
      <point x="23.874053607534258" y="-87.38579214539693"/>
    </contour>
  </outline>
</glyph>
<glyph name="hyphen" format="2">
  <advance width="340"/>
  <unicode hex="002D"/>
  <outline>
    <contour>
      <point x="279" y="180" type="curve" smooth="yes"/>
      <point x="202" y="155"/>
      <point x="108" y="157"/>
      <point x="55" y="183" type="curve" smooth="yes"/>
      <point x="-5" y="212"/>
      <point x="34" y="293"/>
      <point x="95" y="263" type="curve" smooth="yes"/>
      <point x="128" y="247"/>
      <point x="202" y="249"/>
      <point x="251" y="266" type="curve" smooth="yes"/>
      <point x="315" y="287"/>
      <point x="343" y="202"/>
    </contour>
  </outline>
</glyph>
<glyph name="period" format="2">
  <advance width="260"/>
  <unicode hex="002E"/>
  <outline>
    <contour>
      <point x="88.98842375212067" y="13.873458947419467" type="curve" smooth="yes"/>
      <point x="88.99138143684569" y="16.69783982628746"/>
      <point x="88.99444724560148" y="34.35929157115947"/>
      <point x="88.9950634299192" y="52.01167206408459" type="curve" smooth="yes"/>
      <point x="88.997419624396" y="119.51167202296124"/>
      <point x="178.99741956956487" y="119.50853043032542"/>
      <point x="178.99506337508808" y="52.00853047144878" type="curve" smooth="yes"/>
      <point x="178.99444528036446" y="34.30142087986524"/>
      <point x="178.9913412588132" y="16.61234875462017"/>
      <point x="178.98837440413976" y="13.779211219966838" type="curve" smooth="yes"/>
      <point x="178.9176886085503" y="-53.72075176904747"/>
      <point x="88.91773795653121" y="-53.62650404159484"/>
    </contour>
  </outline>
</glyph>
<glyph name="slash" format="2">
  <advance width="490"/>
  <unicode hex="002F"/>
  <outline>
    <contour>
      <point x="418.8473749765506" y="570.4026318596391" type="curve" smooth="yes"/>
      <point x="138.74247783902058" y="-30.63813214892632" type="line" smooth="yes"/>
      <point x="110.22954317416497" y="-91.82033999399903"/>
      <point x="28.653266047401374" y="-53.80309377419157"/>
      <point x="57.16620071225697" y="7.379114070881133" type="curve" smooth="yes"/>
      <point x="337.27109784978705" y="608.4198780794466" type="line" smooth="yes"/>
      <point x="365.7840325146426" y="669.6020859245193"/>
      <point x="447.36030964140616" y="631.5848397047118"/>
    </contour>
  </outline>
</glyph>
<glyph name="zero" format="2">
  <advance width="592"/>
  <unicode hex="0030"/>
  <outline>
    <contour>
      <point x="350.10191034619925" y="84.98060919169191" type="curve" smooth="yes"/>
      <point x="375.1956863336696" y="85.47346202832736"/>
      <point x="394.77150398937465" y="88.36951833391545"/>
      <point x="410.81222618601885" y="99.20219318929568" type="curve" smooth="yes"/>
      <point x="443.2030090322573" y="121.07644639205559"/>
      <point x="462.0170430401662" y="177.96614038449692"/>
      <point x="462.0260377020974" y="229.50175732706458" type="curve" smooth="yes"/>
      <point x="462.04368356426545" y="330.60510065094843"/>
      <point x="398.0786032922232" y="399.4543648263006"/>
      <point x="296.06355790837597" y="399.4543648263006" type="curve" smooth="yes"/>
      <point x="193.1423489720061" y="399.4543648263006"/>
      <point x="130.04370628002022" y="330.6905719094142"/>
      <point x="130.0260427587466" y="229.48604936411567" type="curve" smooth="yes"/>
      <point x="130.0170480968154" y="177.95043242154802"/>
      <point x="148.80846886317846" y="121.07225630603588"/>
      <point x="181.1876008932683" y="99.19797531916825" type="curve" smooth="yes"/>
      <point x="197.22249403930542" y="88.36532674956295"/>
      <point x="216.77917491732933" y="85.47345953008009"/>
      <point x="241.86933810483265" y="84.98060669344464" type="curve" smooth="yes"/>
      <point x="309.35631916360654" y="83.65494173852899"/>
      <point x="307.5887658903856" y="-6.327699673169568"/>
      <point x="240.10178483161172" y="-5.00203471825391" type="curve" smooth="yes"/>
      <point x="193.73481007212428" y="-4.091235738365263"/>
      <point x="160.43869412754557" y="4.602330044028887"/>
      <point x="130.8059858738308" y="24.621217089588505" type="curve" smooth="yes"/>
      <point x="75.5936159445753" y="61.9208856743139"/>
      <point x="40.010706578120654" y="141.62406052774253"/>
      <point x="40.02604412952495" y="229.50175732706458" type="curve" smooth="yes"/>
      <point x="40.052320697028925" y="380.05539989843993"/>
      <point x="142.95614221670522" y="489.4543648263006"/>
      <point x="296.06355790837597" y="489.4543648263006" type="curve" smooth="yes"/>
      <point x="448.05077754695867" y="489.4543648263006"/>
      <point x="552.0523260371067" y="380.1149687567767"/>
      <point x="552.0260363313191" y="229.48604936411567" type="curve" smooth="yes"/>
      <point x="552.0106987799147" y="141.60835256479362"/>
      <point x="516.4135887634735" y="61.91662042717722"/>
      <point x="461.1813520517925" y="24.616999219461064" type="curve" smooth="yes"/>
      <point x="431.5378716305013" y="4.5980635974193405"/>
      <point x="398.2428605041366" y="-4.091238236612526"/>
      <point x="351.86920923945354" y="-5.002037216501172" type="curve" smooth="yes"/>
      <point x="284.38222443330875" y="-6.327511386441897"/>
      <point x="282.61492554005446" y="83.65513502175119"/>
    </contour>
  </outline>
</glyph>
<glyph name="one" format="2">
  <advance width="344"/>
  <unicode hex="0031"/>
  <outline>
    <contour>
      <point x="63.2782072865351" y="521.2394950169453" type="curve" smooth="yes"/>
      <point x="109.83911450908265" y="523.0683921325066"/>
      <point x="162.97529130536006" y="521.9616742662372"/>
      <point x="199.23621414117474" y="503.7668940704433" type="curve" smooth="yes"/>
      <point x="246.12856549982575" y="480.2375418336632"/>
      <point x="264.06291567553905" y="440.7748162380736"/>
      <point x="264.04195915962947" y="320.70282413718024" type="curve" smooth="yes"/>
      <point x="264.0236135693577" y="215.59033407903655"/>
      <point x="264.0154178766558" y="168.63247363967574"/>
      <point x="264.00431806826117" y="105.0352558752833" type="curve" smooth="yes"/>
      <point x="263.99826679275776" y="70.36400099847003"/>
      <point x="263.99233639725514" y="46.32092430817293"/>
      <point x="263.98517366298597" y="37.830004746504386" type="curve" smooth="yes"/>
      <point x="263.92823231668893" y="-29.66997123632899"/>
      <point x="173.92826433957777" y="-29.594049441266293"/>
      <point x="173.9852056858748" y="37.905926541567084" type="curve" smooth="yes"/>
      <point x="173.99236057706267" y="46.38754867990399"/>
      <point x="173.99827478958767" y="70.41767344002331"/>
      <point x="174.00431943903953" y="105.05096383823226" type="curve" smooth="yes"/>
      <point x="174.02086054502234" y="199.8245204480338"/>
      <point x="174.02964983382475" y="250.1834360341668"/>
      <point x="174.04196053040783" y="320.71853210012927" type="curve" smooth="yes"/>
      <point x="174.04855929841074" y="358.5266879474643"/>
      <point x="173.6383025592598" y="415.9167014824124"/>
      <point x="158.87288310385395" y="423.32560176623144" type="curve" smooth="yes"/>
      <point x="139.84906350727505" y="432.871255571333"/>
      <point x="91.23822551801698" y="432.2683519286484"/>
      <point x="66.81065363118331" y="431.30884494244515" type="curve" smooth="yes"/>
      <point x="-0.6373339246917453" y="428.659510183959"/>
      <point x="-4.1697802693399595" y="518.5901602584592"/>
    </contour>
  </outline>
</glyph>
<glyph name="two" format="2">
  <advance width="505"/>
  <unicode hex="0032"/>
  <outline>
    <contour>
      <point x="98.0" y="487.0" type="curve" smooth="yes"/>
      <point x="148.0" y="486.0"/>
      <point x="201.0" y="493.0"/>
      <point x="265.0" y="488.0" type="curve" smooth="yes"/>
      <point x="376.0" y="480.0"/>
      <point x="457.0" y="439.0"/>
      <point x="457.0" y="346.0" type="curve" smooth="yes"/>
      <point x="457.0" y="287.0"/>
      <point x="410" y="229"/>
      <point x="350.0" y="181.0" type="curve" smooth="yes"/>
      <point x="306" y="146"/>
      <point x="269.0" y="120.0"/>
      <point x="242.0" y="101.0" type="curve" smooth="yes"/>
      <point x="227" y="91"/>
      <point x="226" y="93"/>
      <point x="249.0" y="89.0" type="curve" smooth="yes"/>
      <point x="281.0" y="83.0"/>
      <point x="298.0" y="68.0"/>
      <point x="333.0" y="65.0" type="curve" smooth="yes"/>
      <point x="355" y="63"/>
      <point x="375.0" y="65.0"/>
      <point x="411.0" y="79.0" type="curve" smooth="yes"/>
      <point x="470.0" y="103.0"/>
      <point x="506.0" y="21.0"/>
      <point x="444.0" y="-5.0" type="curve" smooth="yes"/>
      <point x="400.0" y="-23.0"/>
      <point x="373" y="-28"/>
      <point x="322.0" y="-25.0" type="curve" smooth="yes"/>
      <point x="246.0" y="-21.0"/>
      <point x="176.0" y="23.0"/>
      <point x="110.0" y="11.0" type="curve" smooth="yes"/>
      <point x="44" y="-1"/>
      <point x="34.0" y="67.0"/>
      <point x="71.0" y="92.0" type="curve" smooth="yes"/>
      <point x="123.0" y="126.0"/>
      <point x="202.0" y="181.0"/>
      <point x="261.0" y="227.0" type="curve" smooth="yes"/>
      <point x="319.0" y="273.0"/>
      <point x="367.0" y="311.0"/>
      <point x="367.0" y="342.0" type="curve" smooth="yes"/>
      <point x="367.0" y="378.0"/>
      <point x="317.0" y="394.0"/>
      <point x="254.0" y="399.0" type="curve" smooth="yes"/>
      <point x="207.0" y="402.0"/>
      <point x="144.0" y="396.0"/>
      <point x="100.0" y="397.0" type="curve" smooth="yes"/>
      <point x="30" y="399"/>
      <point x="29" y="488"/>
    </contour>
  </outline>
</glyph>
<glyph name="three" format="2">
  <advance width="488"/>
  <unicode hex="0033"/>
  <outline>
    <contour>
      <point x="107.9009941951327" y="95.41258682093701" type="curve" smooth="yes"/>
      <point x="147.15939697491908" y="78.37758742344273"/>
      <point x="191.03861755369866" y="67.01494501087204"/>
      <point x="235.6162388644693" y="64.40633781270387" type="curve" smooth="yes"/>
      <point x="298.89557316580857" y="60.703337919484376"/>
      <point x="365.00106469681157" y="78.0185486664433"/>
      <point x="365.00715572965055" y="132.62529378492292" type="curve" smooth="yes"/>
      <point x="365.0155589777538" y="207.9612900714087"/>
      <point x="276.1833456941094" y="255.20458146424488"/>
      <point x="230.01567371685113" y="255.20458146424488" type="curve" smooth="yes"/>
      <point x="223.07705689834717" y="255.20458146424488"/>
      <point x="183.45138281915064" y="308.4067091828521"/>
      <point x="187.82580017166302" y="311.9271750875971" type="curve" smooth="yes"/>
      <point x="222.8138766865288" y="340.08505773051496"/>
      <point x="234.64111565253205" y="349.368996605553"/>
      <point x="291.6543965400405" y="408.5107135124544" type="curve" smooth="yes"/>
      <point x="298.6747054373127" y="415.79310657839073"/>
      <point x="325.73992260292744" y="444.30508442537365"/>
      <point x="317.76223873078317" y="442.7314673790198" type="curve" smooth="yes"/>
      <point x="228.293572432129" y="425.08356096175777"/>
      <point x="149.81938524032302" y="391.59537866407817"/>
      <point x="90.46200723681316" y="392.3873014453066" type="curve" smooth="yes"/>
      <point x="22.968013883120406" y="393.2877797469208"/>
      <point x="24.168651618606035" y="483.27977088517787"/>
      <point x="91.66264497229879" y="482.37929258356365" type="curve" smooth="yes"/>
      <point x="138.43719923363312" y="481.75524488558136"/>
      <point x="186.80559976131434" y="508.6341348574857"/>
      <point x="300.345128959664" y="531.0300760159671" type="curve" smooth="yes"/>
      <point x="431.01314882033677" y="556.8046525423724"/>
      <point x="471.43625914184827" y="465.3274456157351"/>
      <point x="356.4492682910508" y="346.0477277147027" type="curve" smooth="yes"/>
      <point x="296.08684495204915" y="283.43183721765286"/>
      <point x="281.29607963625614" y="271.62490700267375"/>
      <point x="244.25269161277473" y="241.8129402825805" type="curve" smooth="yes"/>
      <point x="127.94864045449057" y="148.21317288698089"/>
      <point x="45.5364207339285" y="345.2045814642449"/>
      <point x="230.01567371685113" y="345.2045814642449" type="curve" smooth="yes"/>
      <point x="313.82327684916044" y="345.2045814642449"/>
      <point x="455.02240948196527" y="269.3717558487828"/>
      <point x="455.00715516976175" y="132.61525486114334" type="curve" smooth="yes"/>
      <point x="454.99513779044725" y="24.87819505998643"/>
      <point x="355.20633808125405" y="-32.74583903486799"/>
      <point x="230.35858513408814" y="-25.439959146332832" type="curve" smooth="yes"/>
      <point x="174.9916559170685" y="-22.199979850688194"/>
      <point x="120.83583995151166" y="-8.307795062666738"/>
      <point x="72.07556194725434" y="12.85025640171569" type="curve" smooth="yes"/>
      <point x="10.153814132838384" y="39.719330587624526"/>
      <point x="45.97924638071674" y="122.28166100684584"/>
    </contour>
  </outline>
</glyph>
<glyph name="four" format="2">
  <advance width="525"/>
  <unicode hex="0034"/>
  <outline>
    <contour>
      <point x="468.0" y="159.0" type="curve" smooth="yes"/>
      <point x="385.0" y="159.0"/>
      <point x="277.0" y="159.0"/>
      <point x="188.0" y="159.0" type="curve" smooth="yes"/>
      <point x="118.0" y="159.0"/>
      <point x="96.0" y="136.0"/>
      <point x="67.0" y="146.0" type="curve" smooth="yes"/>
      <point x="39.0" y="156.0"/>
      <point x="27.0" y="197.0"/>
      <point x="48.0" y="229.0" type="curve" smooth="yes"/>
      <point x="69.0" y="260.0"/>
      <point x="84.0" y="265.0"/>
      <point x="105.0" y="297.0" type="curve" smooth="yes"/>
      <point x="126.0" y="329.0"/>
      <point x="152.0" y="369.0"/>
      <point x="174.0" y="403.0" type="curve" smooth="yes"/>
      <point x="192.0" y="432.0"/>
      <point x="227.0" y="497.0"/>
      <point x="273.0" y="520.0" type="curve" smooth="yes"/>
      <point x="319.0" y="543.0"/>
      <point x="415.0" y="527.0"/>
      <point x="415.0" y="438.0" type="curve" smooth="yes"/>
      <point x="415.0" y="349.0"/>
      <point x="415.0" y="311.0"/>
      <point x="415.0" y="273.0" type="curve" smooth="yes"/>
      <point x="415.0" y="195.0"/>
      <point x="415.0" y="147.0"/>
      <point x="415.0" y="110.0" type="curve" smooth="yes"/>
      <point x="415.0" y="71.0"/>
      <point x="415.0" y="63.0"/>
      <point x="415.0" y="29.0" type="curve" smooth="yes"/>
      <point x="415.0" y="-27.0"/>
      <point x="325.0" y="-27.0"/>
      <point x="325.0" y="30.0" type="curve" smooth="yes"/>
      <point x="325.0" y="67.0"/>
      <point x="325.0" y="80.0"/>
      <point x="325.0" y="115.0" type="curve" smooth="yes"/>
      <point x="325.0" y="157.0"/>
      <point x="325.0" y="221.0"/>
      <point x="325.0" y="273.0" type="curve" smooth="yes"/>
      <point x="325.0" y="313.0"/>
      <point x="325.0" y="435.0"/>
      <point x="325.0" y="444.0" type="curve" smooth="yes"/>
      <point x="325.0" y="453.0"/>
      <point x="316.0" y="451.0"/>
      <point x="305.0" y="435.0" type="curve" smooth="yes"/>
      <point x="295.0" y="419.0"/>
      <point x="280.0" y="397.0"/>
      <point x="263.0" y="372.0" type="curve" smooth="yes"/>
      <point x="241.0" y="341.0"/>
      <point x="232.0" y="327.0"/>
      <point x="198.0" y="275.0" type="curve" smooth="yes"/>
      <point x="163.0" y="221.0"/>
      <point x="96.0" y="136.0"/>
      <point x="67.0" y="146.0" type="curve" smooth="yes"/>
      <point x="39.0" y="156.0"/>
      <point x="27.0" y="197.0"/>
      <point x="48.0" y="229.0" type="curve" smooth="yes"/>
      <point x="69.0" y="260.0"/>
      <point x="175.0" y="249.0"/>
      <point x="202.0" y="249.0" type="curve" smooth="yes"/>
      <point x="239.0" y="249.0"/>
      <point x="407.0" y="249.0"/>
      <point x="476.0" y="249.0" type="curve" smooth="yes"/>
      <point x="536.0" y="249.0"/>
      <point x="544.0" y="159.0"/>
    </contour>
  </outline>
</glyph>
<glyph name="five" format="2">
  <advance width="501"/>
  <unicode hex="0035"/>
  <outline>
    <contour>
      <point x="409.0" y="421.0" type="curve" smooth="yes"/>
      <point x="368.0" y="401.0"/>
      <point x="332" y="396"/>
      <point x="296.0" y="396.0" type="curve" smooth="yes"/>
      <point x="259.0" y="396.0"/>
      <point x="210" y="404"/>
      <point x="192.0" y="405.0" type="curve" smooth="yes"/>
      <point x="178.0" y="406.0"/>
      <point x="177" y="406"/>
      <point x="176.0" y="397.0" type="curve" smooth="yes"/>
      <point x="175" y="388"/>
      <point x="174.0" y="376.0"/>
      <point x="173.0" y="367.0" type="curve" smooth="yes"/>
      <point x="172" y="357"/>
      <point x="169.0" y="230.0"/>
      <point x="133.0" y="226.0" type="curve" smooth="yes"/>
      <point x="97.0" y="222.0"/>
      <point x="70.0" y="242.0"/>
      <point x="74.0" y="284.0" type="curve" smooth="yes"/>
      <point x="78.0" y="327.0"/>
      <point x="202" y="348"/>
      <point x="238.0" y="350.0" type="curve" smooth="yes"/>
      <point x="387.0" y="360.0"/>
      <point x="466.0" y="257.0"/>
      <point x="466.0" y="135.0" type="curve" smooth="yes"/>
      <point x="466.0" y="9.0"/>
      <point x="364.0" y="-38.0"/>
      <point x="231.0" y="-29.0" type="curve" smooth="yes"/>
      <point x="182.0" y="-26.0"/>
      <point x="135.0" y="-19.0"/>
      <point x="81.0" y="-3.0" type="curve" smooth="yes"/>
      <point x="19.0" y="15.0"/>
      <point x="43.0" y="102.0"/>
      <point x="108.0" y="83.0" type="curve" smooth="yes"/>
      <point x="152.0" y="70.0"/>
      <point x="198.0" y="64.0"/>
      <point x="234.0" y="61.0" type="curve" smooth="yes"/>
      <point x="314.0" y="56.0"/>
      <point x="376.0" y="63.0"/>
      <point x="376.0" y="137.0" type="curve" smooth="yes"/>
      <point x="376.0" y="207.0"/>
      <point x="331.0" y="262.0"/>
      <point x="223.0" y="262.0" type="curve" smooth="yes"/>
      <point x="182.0" y="262.0"/>
      <point x="169.0" y="230.0"/>
      <point x="133.0" y="226.0" type="curve" smooth="yes"/>
      <point x="97.0" y="222.0"/>
      <point x="70.0" y="242.0"/>
      <point x="74.0" y="284.0" type="curve" smooth="yes"/>
      <point x="78.0" y="327.0"/>
      <point x="79.0" y="331.0"/>
      <point x="83.0" y="361.0" type="curve" smooth="yes"/>
      <point x="86.0" y="389.0"/>
      <point x="88.0" y="398.0"/>
      <point x="92.0" y="433.0" type="curve" smooth="yes"/>
      <point x="100.0" y="487.0"/>
      <point x="147.0" y="504.0"/>
      <point x="201.0" y="491.0" type="curve" smooth="yes"/>
      <point x="243.0" y="480.0"/>
      <point x="264" y="478"/>
      <point x="287.0" y="478.0" type="curve" smooth="yes"/>
      <point x="316" y="478"/>
      <point x="342.0" y="490.0"/>
      <point x="379.0" y="504.0" type="curve" smooth="yes"/>
      <point x="430.0" y="526.0"/>
      <point x="465" y="448"/>
    </contour>
  </outline>
</glyph>
<glyph name="six" format="2">
  <advance width="534"/>
  <unicode hex="0036"/>
  <outline>
    <contour>
      <point x="119.13595426069897" y="326.75504138887845" type="curve" smooth="yes"/>
      <point x="153.42443405130578" y="339.68242082597067"/>
      <point x="213.73253384032267" y="355.7033442370798"/>
      <point x="286.8783310628054" y="347.77068914933744" type="curve" smooth="yes"/>
      <point x="412.89776339345934" y="334.10389312014746"/>
      <point x="501.02740989269034" y="237.35405648943512"/>
      <point x="501.01122705667956" y="144.63323562172997" type="curve" smooth="yes"/>
      <point x="500.994461080418" y="48.57126721287897"/>
      <point x="417.9671545994019" y="-30.46655813512035"/>
      <point x="276.9885224001593" y="-30.46655813512035" type="curve" smooth="yes"/>
      <point x="158.70289311567612" y="-30.46655813512035"/>
      <point x="39.992919620341695" y="39.71482962707909"/>
      <point x="40.02271152564295" y="210.40987423502787" type="curve" smooth="yes"/>
      <point x="40.056373965902935" y="403.2814507148806"/>
      <point x="176.93507758242302" y="479.7479646299074"/>
      <point x="311.55497780865045" y="487.26308885053345" type="curve" smooth="yes"/>
      <point x="348.7684098523653" y="489.34051992880904"/>
      <point x="385.9454058836586" y="491.52635694951175"/>
      <point x="419.1285557070315" y="492.9486215327058" type="curve" smooth="yes"/>
      <point x="486.5666399077402" y="495.83908850849485"/>
      <point x="490.42059587545896" y="405.92164290754994"/>
      <point x="422.9825116747503" y="403.03117593176086" type="curve" smooth="yes"/>
      <point x="390.1819244289329" y="401.62530838163354"/>
      <point x="353.355801161837" y="399.45648086324564"/>
      <point x="316.5713960959137" y="397.40300011494844" type="curve" smooth="yes"/>
      <point x="221.2578521688614" y="392.0821439761743"/>
      <point x="130.0465438263576" y="346.95104565023433"/>
      <point x="130.02271015486463" y="210.39416627207885" type="curve" smooth="yes"/>
      <point x="130.0031484683273" y="98.31395782848342"/>
      <point x="199.3209016643821" y="59.53344186487965"/>
      <point x="276.9885224001593" y="59.53344186487965" type="curve" smooth="yes"/>
      <point x="354.61346408463476" y="59.53344186487965"/>
      <point x="411.0019968303764" y="91.75578822128723"/>
      <point x="411.0112284274579" y="144.64894358467888" type="curve" smooth="yes"/>
      <point x="411.02039783453773" y="197.18577648215742"/>
      <point x="348.5789990260084" y="250.55154219381112"/>
      <point x="277.17473624842705" y="258.29532802864475" type="curve" smooth="yes"/>
      <point x="222.29036055266846" y="264.24753360480736"/>
      <point x="176.61410943701028" y="252.24138101500054"/>
      <point x="150.8860173480003" y="242.5414231674032" type="curve" smooth="yes"/>
      <point x="87.72580368189388" y="218.7288758519272"/>
      <point x="55.97574059459254" y="302.9424940734025"/>
    </contour>
  </outline>
</glyph>
<glyph name="eight" format="2">
  <advance width="535"/>
  <unicode hex="0038"/>
  <outline>
    <contour>
      <point x="190.59379414725126" y="-43.04096453607793" type="curve" smooth="yes"/>
      <point x="96.94916119128267" y="1.699340654900722"/>
      <point x="44.99637303688478" y="59.54063873999499"/>
      <point x="45.00765479703042" y="138.28357587078287" type="curve" smooth="yes"/>
      <point x="45.022250836118396" y="240.159078755659"/>
      <point x="140.24330239936108" y="350.86143571373725"/>
      <point x="269.0171544417445" y="350.86143571373725" type="curve" smooth="yes"/>
      <point x="275.8803699255444" y="350.86143571373725"/>
      <point x="380.042978326849" y="342.81954284481156"/>
      <point x="380.04393459936614" y="346.1793302723744" type="curve" smooth="yes"/>
      <point x="380.0513975204281" y="372.39970982018764"/>
      <point x="319.42747385515446" y="398.74725804511405"/>
      <point x="269.0634344721153" y="398.74725804511405" type="curve" smooth="yes"/>
      <point x="211.82328449065886" y="398.74725804511405"/>
      <point x="156.05147754699325" y="378.683296852925"/>
      <point x="156.0451711224942" y="339.08828713491715" type="curve" smooth="yes"/>
      <point x="156.03829098226294" y="295.8911919572252"/>
      <point x="208.25580879837887" y="266.00862197135154"/>
      <point x="268.03196406669406" y="266.00862197135154" type="curve" smooth="yes"/>
      <point x="405.04148804471725" y="266.00862197135154"/>
      <point x="490.0265642252606" y="227.11891898933771"/>
      <point x="490.0088822977892" y="131.19776554428583" type="curve" smooth="yes"/>
      <point x="489.99577338915867" y="60.08438504314297"/>
      <point x="438.48526578745043" y="0.7757379574883205"/>
      <point x="343.07492103644427" y="-43.8980523643553" type="curve" smooth="yes"/>
      <point x="281.94418398708734" y="-72.52117217688411"/>
      <point x="243.78002423704896" y="8.986477222258468"/>
      <point x="304.9107612864059" y="37.60959703478728" type="curve" smooth="yes"/>
      <point x="355.2670998437303" y="61.18784230742008"/>
      <point x="400.00196511550126" y="93.6816390183356"/>
      <point x="400.00888382691403" y="131.21435597703422" type="curve" smooth="yes"/>
      <point x="400.01619931261723" y="170.89949934171247"/>
      <point x="324.71646384711926" y="176.00862197135157"/>
      <point x="268.03196406669406" y="176.00862197135157" type="curve" smooth="yes"/>
      <point x="147.05805523900926" y="176.00862197135157"/>
      <point x="66.0312483598915" y="251.68111677466302"/>
      <point x="66.04517226405225" y="339.1026217240929" type="curve" smooth="yes"/>
      <point x="66.05880544154998" y="424.69879362611374"/>
      <point x="145.32214100093654" y="488.74725804511405"/>
      <point x="269.0634344721153" y="488.74725804511405" type="curve" smooth="yes"/>
      <point x="396.02255917883105" y="488.74725804511405"/>
      <point x="470.06274370080683" y="412.250804071457"/>
      <point x="470.04393095390697" y="346.1537142103666" type="curve" smooth="yes"/>
      <point x="470.023222614866" y="273.3966121376421"/>
      <point x="417.6419351065638" y="260.86143571373725"/>
      <point x="269.0171544417445" y="260.86143571373725" type="curve" smooth="yes"/>
      <point x="195.83387128317003" y="260.86143571373725"/>
      <point x="135.01594892734437" y="196.16740220245933"/>
      <point x="135.00765387330475" y="138.27068127426813" type="curve" smooth="yes"/>
      <point x="135.00128357651994" y="93.80812642833882"/>
      <point x="176.51527382476718" y="63.429538023963396"/>
      <point x="229.39213847506616" y="38.16672276888301" type="curve" smooth="yes"/>
      <point x="290.2979039537869" y="9.067964523021889"/>
      <point x="251.49955962597198" y="-72.13972278193906"/>
    </contour>
  </outline>
</glyph>
<glyph name="nine" format="2">
  <advance width="534"/>
  <unicode hex="0039"/>
  <outline>
    <contour>
      <point x="467.33656823719326" y="453.1592812991216" type="curve" smooth="yes"/>
      <point x="501.8667632956652" y="331.0012243163538"/>
      <point x="406.8461738781664" y="229.04163056034264"/>
      <point x="252.00419628455003" y="229.04163056034264" type="curve" smooth="yes"/>
      <point x="121.50918085069567" y="229.04163056034264"/>
      <point x="33.009085573481116" y="302.0439353866507"/>
      <point x="33.02567355420281" y="397.0860644682765" type="curve" smooth="yes"/>
      <point x="33.0424395304646" y="493.14803287712743"/>
      <point x="116.06974601148036" y="572.1858582251266"/>
      <point x="257.04837821072306" y="572.1858582251266" type="curve" smooth="yes"/>
      <point x="375.33400749520615" y="572.1858582251266"/>
      <point x="494.0439809905406" y="502.00447046292726"/>
      <point x="494.0141890852394" y="331.3094258549785" type="curve" smooth="yes"/>
      <point x="493.96962431517585" y="75.97210059794821"/>
      <point x="257.719162394989" y="15.850095641500973"/>
      <point x="97.10990050075705" y="76.3683577965763" type="curve" smooth="yes"/>
      <point x="33.945229146668275" y="100.169078221176"/>
      <point x="65.67952304613453" y="184.38864002662768"/>
      <point x="128.8441944002233" y="160.587919602028" type="curve" smooth="yes"/>
      <point x="242.10474092554895" y="117.91085748489654"/>
      <point x="403.98276368676653" y="151.2630087209893"/>
      <point x="404.0141904560178" y="331.3251338179274" type="curve" smooth="yes"/>
      <point x="404.03375214255504" y="443.40534226152283"/>
      <point x="334.71599894650024" y="482.1858582251266"/>
      <point x="257.04837821072306" y="482.1858582251266" type="curve" smooth="yes"/>
      <point x="179.4234365262476" y="482.1858582251266"/>
      <point x="123.03490378050628" y="449.963511868719"/>
      <point x="123.02567218342448" y="397.07035650532737" type="curve" smooth="yes"/>
      <point x="123.01705632939432" y="347.7051489719991"/>
      <point x="184.2246380906828" y="319.04163056034264"/>
      <point x="252.00419628455003" y="319.04163056034264" type="curve" smooth="yes"/>
      <point x="338.11952122514" y="319.04163056034264"/>
      <point x="399.93402908542555" y="360.7402094160093"/>
      <point x="380.7300702240472" y="428.6783805416141" type="curve" smooth="yes"/>
      <point x="362.36939465591666" y="493.63325405147367"/>
      <point x="448.9758926690627" y="518.1141548089811"/>
    </contour>
  </outline>
</glyph>
<glyph name="colon" format="2">
  <advance width="260"/>
  <unicode hex="003A"/>
  <outline>
    <contour>
      <point x="135.31971237059508" y="56.74892501317378" type="curve" smooth="yes"/>
      <point x="47.38723054472356" y="65.89286378043519"/>
      <point x="47.389636032568184" y="168.23500387310554"/>
      <point x="135.32530969518538" y="177.37894264036686" type="curve" smooth="yes"/>
      <point x="202.46331217118603" y="184.3602479289595"/>
      <point x="211.77171922264284" y="94.84291129429198"/>
      <point x="144.6337167466422" y="87.86160600569934" type="curve" smooth="yes"/>
      <point x="142.069391894845" y="87.59495620991618"/>
      <point x="142.06422191731224" y="146.53287668425946"/>
      <point x="144.62845369077212" y="146.26622688847624" type="curve" smooth="yes"/>
      <point x="211.76643009724896" y="139.28467089834342"/>
      <point x="202.45768877707192" y="49.76736902304095"/>
    </contour>
    <contour>
      <point x="135.36414119975112" y="311.3073662403309" type="curve" smooth="yes"/>
      <point x="47.43165937387959" y="320.4513050075921"/>
      <point x="47.43406486172422" y="422.7934451002628"/>
      <point x="135.36973852434141" y="431.937383867524" type="curve" smooth="yes"/>
      <point x="202.50774100034207" y="438.9186891561166"/>
      <point x="211.81614805179888" y="349.40135252144904"/>
      <point x="144.67814557579823" y="342.4200472328564" type="curve" smooth="yes"/>
      <point x="142.11382072400102" y="342.15339743707307"/>
      <point x="142.10865074646827" y="401.0913179114167"/>
      <point x="144.67288251992815" y="400.82466811563336" type="curve" smooth="yes"/>
      <point x="211.810858926405" y="393.8431121255005"/>
      <point x="202.50211760622796" y="304.32581025019806"/>
    </contour>
  </outline>
</glyph>
<glyph name="semicolon" format="2">
  <advance width="279"/>
  <unicode hex="003B"/>
  <outline>
    <contour>
      <point x="140.69967266264717" y="311.3073662403309" type="curve" smooth="yes"/>
      <point x="52.767190836775676" y="320.4513050075921"/>
      <point x="52.769596324620345" y="422.7934451002628"/>
      <point x="140.70526998723747" y="431.937383867524" type="curve" smooth="yes"/>
      <point x="207.84327246323812" y="438.9186891561166"/>
      <point x="217.15167951469493" y="349.40135252144904"/>
      <point x="150.01367703869428" y="342.4200472328564" type="curve" smooth="yes"/>
      <point x="147.4493521868971" y="342.15339743707307"/>
      <point x="147.44418220936433" y="401.0913179114167"/>
      <point x="150.0084139828242" y="400.82466811563336" type="curve" smooth="yes"/>
      <point x="217.14639038930105" y="393.8431121255005"/>
      <point x="207.837649069124" y="304.32581025019806"/>
    </contour>
    <contour>
      <point x="80.43950468952971" y="21.080665937115935" type="curve" smooth="yes"/>
      <point x="95.54931890381549" y="39.578710419977554"/>
      <point x="120.86133657819362" y="82.45995967065548"/>
      <point x="105.0196176735493" y="92.62085734434004" type="curve" smooth="yes"/>
      <point x="48.20247272084913" y="129.06344286490727"/>
      <point x="96.79258674827219" y="204.81963613517414"/>
      <point x="153.60973170097236" y="168.3770506146069" type="curve" smooth="yes"/>
      <point x="218.78867294283646" y="126.57119883651991"/>
      <point x="212.30931695226755" y="40.25368649354347"/>
      <point x="150.14171387987068" y="-35.8544026409226" type="curve" smooth="yes"/>
      <point x="107.44041244634178" y="-88.13105953367833"/>
      <point x="37.73820325600082" y="-31.195990955639783"/>
    </contour>
  </outline>
</glyph>
<glyph name="less" format="2">
  <advance width="447"/>
  <unicode hex="003C"/>
  <outline>
    <contour>
      <point x="375" y="286" type="curve" smooth="yes"/>
      <point x="298" y="253"/>
      <point x="240" y="302"/>
      <point x="180" y="274" type="curve" smooth="yes"/>
      <point x="132" y="252"/>
      <point x="134" y="239"/>
      <point x="180" y="215" type="curve" smooth="yes"/>
      <point x="251" y="177"/>
      <point x="308" y="160"/>
      <point x="365" y="149" type="curve" smooth="yes"/>
      <point x="431" y="137"/>
      <point x="415" y="49"/>
      <point x="349" y="61" type="curve" smooth="yes"/>
      <point x="284" y="72"/>
      <point x="219" y="93"/>
      <point x="138" y="135" type="curve" smooth="yes"/>
      <point x="24" y="194"/>
      <point x="23" y="301"/>
      <point x="142" y="356" type="curve" smooth="yes"/>
      <point x="237" y="399"/>
      <point x="291" y="348"/>
      <point x="339" y="368" type="curve" smooth="yes"/>
      <point x="401" y="395"/>
      <point x="437" y="312"/>
    </contour>
  </outline>
</glyph>
<glyph name="equal" format="2">
  <advance width="490"/>
  <unicode hex="003D"/>
  <outline>
    <contour>
      <point x="410.02196507465567" y="330.86500705120545" type="curve" smooth="yes"/>
      <point x="80.02197010084306" y="330.86500705120545" type="line" smooth="yes"/>
      <point x="12.521970100843063" y="330.86500705120545"/>
      <point x="12.521970100843092" y="420.86500705120545"/>
      <point x="80.02197010084309" y="420.86500705120545" type="curve" smooth="yes"/>
      <point x="410.02196507465567" y="420.86500705120545" type="line" smooth="yes"/>
      <point x="477.52196507465567" y="420.86500705120545"/>
      <point x="477.52196507465567" y="330.86500705120545"/>
    </contour>
    <contour>
      <point x="409.99234585521833" y="161.15937956643404" type="curve" smooth="yes"/>
      <point x="79.9923508814057" y="161.15937956643404" type="line" smooth="yes"/>
      <point x="12.492350881405699" y="161.15937956643407"/>
      <point x="12.492350881405727" y="251.15937956643407"/>
      <point x="79.99235088140573" y="251.15937956643404" type="curve" smooth="yes"/>
      <point x="409.99234585521833" y="251.15937956643404" type="line" smooth="yes"/>
      <point x="477.49234585521833" y="251.159379566434"/>
      <point x="477.49234585521833" y="161.159379566434"/>
    </contour>
  </outline>
</glyph>
<glyph name="question" format="2">
  <advance width="511"/>
  <unicode hex="003F"/>
  <outline>
    <contour>
      <point x="75.38638829772562" y="463.59138265406165" type="curve" smooth="yes"/>
      <point x="132.83394857553864" y="480.45229854447274"/>
      <point x="190.12185805401313" y="488.0401512639275"/>
      <point x="241.06331130239496" y="488.0401512639275" type="curve" smooth="yes"/>
      <point x="395.4695508873385" y="488.0401512639275"/>
      <point x="472.06371397543796" y="415.31445694394296"/>
      <point x="472.04504088139294" y="358.1726321950869" type="curve" smooth="yes"/>
      <point x="472.02953854176354" y="310.7336822187504"/>
      <point x="452.07036678896065" y="296.9872366907353"/>
      <point x="333.7849812732438" y="262.0022089823263" type="curve" smooth="yes"/>
      <point x="274.78580532403487" y="244.5521428024929"/>
      <point x="271.0207628596034" y="199.2502943572809"/>
      <point x="271.01678398826937" y="176.4530407751246" type="curve" smooth="yes"/>
      <point x="271.00500301605763" y="108.95304180320836"/>
      <point x="181.00500438683594" y="108.96874976615733"/>
      <point x="181.01678535904767" y="176.46874873807357" type="curve" smooth="yes"/>
      <point x="181.02440027756182" y="220.0990181789504"/>
      <point x="195.34403721445773" y="314.90983439833644"/>
      <point x="308.25895190701084" y="348.3064488827751" type="curve" smooth="yes"/>
      <point x="313.31197018182615" y="349.8009698126834"/>
      <point x="382.0443834444071" y="356.17550440351044"/>
      <point x="382.0450456868736" y="358.20204284799667" type="curve" smooth="yes"/>
      <point x="382.05041088611" y="374.6201722578489"/>
      <point x="285.4276912348889" y="398.0401512639275"/>
      <point x="241.06331130239496" y="398.0401512639275" type="curve" smooth="yes"/>
      <point x="198.00695310310613" y="398.0401512639275"/>
      <point x="149.28774235327734" y="391.4851444529978"/>
      <point x="100.73234050919415" y="377.2340858778543" type="curve" smooth="yes"/>
      <point x="35.96436792703864" y="358.22462171925287"/>
      <point x="10.618415715570109" y="444.58191849546023"/>
    </contour>
    <contour>
      <point x="181.988424247124" y="13.873458947419008" type="curve" smooth="yes"/>
      <point x="181.99138193184893" y="16.697839826286998"/>
      <point x="181.99444774060476" y="34.35929157115938"/>
      <point x="181.99506392492248" y="52.01167206408451" type="curve" smooth="yes"/>
      <point x="181.9974201193992" y="119.51167202296115"/>
      <point x="271.99742006456813" y="119.50853043032551"/>
      <point x="271.99506387009137" y="52.008530471448864" type="curve" smooth="yes"/>
      <point x="271.99444577536764" y="34.301420879865326"/>
      <point x="271.9913417538165" y="16.612348754620633"/>
      <point x="271.9883748991431" y="13.779211219967296" type="curve" smooth="yes"/>
      <point x="271.91768910355427" y="-53.72075176904701"/>
      <point x="181.9177384515352" y="-53.6265040415953"/>
    </contour>
  </outline>
</glyph>
<glyph name="at" format="2">
  <advance width="956"/>
  <unicode hex="0040"/>
  <outline>
    <contour>
      <point x="675.0367741969865" y="291.00433932734524" type="curve" smooth="yes"/>
      <point x="675.0301577545939" y="253.09491668342446"/>
      <point x="675.0247466050366" y="222.09131333615596"/>
      <point x="675.0165343970376" y="175.03882721275158" type="curve" smooth="yes"/>
      <point x="675.0007369653429" y="84.52621042811406"/>
      <point x="596.6669451081258" y="15.495382642005268"/>
      <point x="481.9965443634755" y="15.495382642005268" type="curve" smooth="yes"/>
      <point x="366.28234180256794" y="15.495382642005268"/>
      <point x="288.00115253434086" y="86.88918124986832"/>
      <point x="288.0169105316276" y="177.17585551926012" type="curve" smooth="yes"/>
      <point x="288.03241531302234" y="266.01170958932954"/>
      <point x="364.71337757908486" y="338.29876272659993"/>
      <point x="473.5283743516039" y="359.2427554517106" type="curve" smooth="yes"/>
      <point x="593.1823062885264" y="382.2729549126978"/>
      <point x="675.021789270272" y="346.568389425568"/>
      <point x="675.0049335360914" y="249.99214601852552" type="curve" smooth="yes"/>
      <point x="674.9955948987241" y="196.4856949911345"/>
      <point x="711.7847533029726" y="146.1889024589988"/>
      <point x="750.6367511885223" y="135.78313453516824" type="curve" smooth="yes"/>
      <point x="798.584982556353" y="122.94111365784926"/>
      <point x="822.0129620748642" y="154.59946488181416"/>
      <point x="822.022456001987" y="208.9956606726547" type="curve" smooth="yes"/>
      <point x="822.0426328520876" y="324.6004967238845"/>
      <point x="682.8367856851395" y="398.74725804511405"/>
      <point x="500.0634341598825" y="398.74725804511405" type="curve" smooth="yes"/>
      <point x="307.23725331693555" y="398.74725804511405"/>
      <point x="157.03942290690088" y="306.135125302114"/>
      <point x="157.01604863297143" y="172.2104000880053" type="curve" smooth="yes"/>
      <point x="156.99234599326135" y="36.40427752786051"/>
      <point x="302.7404059651262" y="-43.70414818835624"/>
      <point x="487.9705040416683" y="-43.70414818835627" type="curve"/>
      <point x="487.9705040416683" y="-43.70414818835627" type="line"/>
      <point x="538.2212107813156" y="-43.70414818835627"/>
      <point x="592.4928025906038" y="-37.76155512164735"/>
      <point x="648.8063251608132" y="0.2215861584432801" type="curve" smooth="yes"/>
      <point x="704.7667341410855" y="37.96655438946256"/>
      <point x="755.0933584491112" y="-36.64732425090056"/>
      <point x="699.1329494688389" y="-74.39229248191984" type="curve" smooth="yes"/>
      <point x="625.4950385783857" y="-124.06063225653845"/>
      <point x="553.680424078423" y="-133.70414818835627"/>
      <point x="487.9705040416683" y="-133.70414818835627" type="curve"/>
      <point x="487.9705040416683" y="-133.70414818835627"/>
      <point x="487.9705040416683" y="-133.70414818835627"/>
      <point x="487.9705040416683" y="-133.70414818835627" type="curve"/>
      <point x="240.14377457567608" y="-133.70414818835624"/>
      <point x="66.98433729755322" y="-9.474315071591663"/>
      <point x="67.01605000374978" y="172.22610805095425" type="curve" smooth="yes"/>
      <point x="67.04713627972141" y="350.33735035046266"/>
      <point x="243.61705681694184" y="488.74725804511405"/>
      <point x="500.0634341598825" y="488.74725804511405" type="curve" smooth="yes"/>
      <point x="751.9181126447983" y="488.74725804511405"/>
      <point x="912.0502575579076" y="368.27898931439603"/>
      <point x="912.0224546312087" y="208.9799527097058" type="curve" smooth="yes"/>
      <point x="912.001937746653" y="91.42686273353402"/>
      <point x="830.9713211191876" y="21.094946732109236"/>
      <point x="727.3526273073312" y="48.847241055631585" type="curve" smooth="yes"/>
      <point x="654.3936976227144" y="68.387901294151"/>
      <point x="584.9873981771224" y="149.52979337618527"/>
      <point x="585.0049349068697" y="250.00785398147448" type="curve" smooth="yes"/>
      <point x="585.0110165582213" y="284.8531496485861"/>
      <point x="533.7106283920724" y="279.1743282429121"/>
      <point x="490.53876242394045" y="270.8648922866142" type="curve" smooth="yes"/>
      <point x="432.3881091110361" y="259.6724381574103"/>
      <point x="378.02519490449055" y="224.63396187423794"/>
      <point x="378.01690916084925" y="177.1601475563111" type="curve" smooth="yes"/>
      <point x="378.00909945547266" y="132.41383159730916"/>
      <point x="424.64827773793587" y="105.49538264200527"/>
      <point x="481.9965443634755" y="105.49538264200527" type="curve" smooth="yes"/>
      <point x="538.291642440776" y="105.49538264200527"/>
      <point x="585.0087803404272" y="130.61920918019078"/>
      <point x="585.016535767816" y="175.05453517570038" type="curve" smooth="yes"/>
      <point x="585.0220465199621" y="206.6288193261459"/>
      <point x="585.0323356444071" y="265.58116018453717"/>
      <point x="585.0367755677648" y="291.02004729029426" type="curve" smooth="yes"/>
      <point x="585.0485565399764" y="358.5200462622105"/>
      <point x="675.048555169198" y="358.50433829926146"/>
    </contour>
  </outline>
</glyph>
<glyph name="C" format="2">
  <advance width="600"/>
  <unicode hex="0043"/>
  <outline>
    <contour>
      <point x="541.9992864147182" y="32.98716747910565" type="curve" smooth="yes"/>
      <point x="484.66433968564513" y="-10.03562145669398"/>
      <point x="413.15018404927014" y="-30.033044298287294"/>
      <point x="352.3083097149415" y="-30.46542185037621" type="curve" smooth="yes"/>
      <point x="178.48487252884252" y="-31.70071174057935"/>
      <point x="44.99848592842833" y="71.60498241220048"/>
      <point x="45.02592070087972" y="228.7946505458781" type="curve" smooth="yes"/>
      <point x="45.053355473331116" y="385.98431867955594"/>
      <point x="182.40563472605692" y="488.6606201207392"/>
      <point x="356.2240172460825" y="488.03986429917404" type="curve" smooth="yes"/>
      <point x="409.7511899747675" y="487.8487032516396"/>
      <point x="470.69297745027325" y="485.74694826772634"/>
      <point x="522.1099499202288" y="477.58405902443695" type="curve" smooth="yes"/>
      <point x="588.7750539659105" y="467.00039696546906"/>
      <point x="574.6635045539533" y="378.1135915712268"/>
      <point x="507.9984005082717" y="388.69725363019467" type="curve" smooth="yes"/>
      <point x="461.47445247709334" y="396.0833329089962"/>
      <point x="404.3359372379736" y="397.86746875549255"/>
      <point x="355.9026032111546" y="398.04043822868096" type="curve" smooth="yes"/>
      <point x="236.11269624297128" y="398.4682427050383"/>
      <point x="135.04482647209636" y="337.1088870289573"/>
      <point x="135.02591933010137" y="228.77894258292903" type="curve" smooth="yes"/>
      <point x="135.0069932667746" y="120.34058689079752"/>
      <point x="231.75546003289494" y="58.68013249467022"/>
      <point x="351.66873380598395" y="59.53230558013551" type="curve" smooth="yes"/>
      <point x="394.83223207784835" y="59.83905036613322"/>
      <point x="447.30639536217217" y="74.45218705735182"/>
      <point x="487.9819481970303" y="104.97416055338199" type="curve" smooth="yes"/>
      <point x="541.9721930027375" y="145.48716421664798"/>
      <point x="595.9895312204254" y="73.50017114237164"/>
    </contour>
  </outline>
</glyph>
<glyph name="D" format="2">
  <advance width="660"/>
  <unicode hex="0044"/>
  <outline>
    <contour>
      <point x="79.98582771440138" y="41.44276944298623" type="curve" smooth="yes"/>
      <point x="79.99254822850888" y="49.14391137240271"/>
      <point x="79.99577235023742" y="56.057760892628835"/>
      <point x="80.0082725064773" y="127.67838083620178" type="curve" smooth="yes"/>
      <point x="80.04517311735965" y="339.10330841097954" type="line" smooth="yes"/>
      <point x="80.06668275758783" y="462.3444694285387"/>
      <point x="106.27153396851288" y="522.6883835420683"/>
      <point x="173.05529160086311" y="522.6883835420683" type="curve" smooth="yes"/>
      <point x="229.5571262809914" y="522.6883835420683"/>
      <point x="263.8591545973612" y="497.922557991976"/>
      <point x="324.4024546641956" y="480.65824561503797" type="curve" smooth="yes"/>
      <point x="523.999465429417" y="423.7418710607957"/>
      <point x="615.0512836840942" y="367.07418880383324"/>
      <point x="615.0266529566954" y="225.95051545818293" type="curve" smooth="yes"/>
      <point x="615.0014647295886" y="81.63260406195711"/>
      <point x="491.8321833895611" y="-39.142180787375324"/>
      <point x="299.6140054613838" y="-24.682924934268385" type="curve" smooth="yes"/>
      <point x="268.451062547464" y="-22.338750363554805"/>
      <point x="237.25205228931725" y="-13.843298119175104"/>
      <point x="206.10249231304448" y="0.5571980189513965" type="curve" smooth="yes"/>
      <point x="144.83304001651885" y="28.882173134276186"/>
      <point x="182.59967350361865" y="110.57477619631034"/>
      <point x="243.86912580014427" y="82.24980108098555" type="curve" smooth="yes"/>
      <point x="264.69348478459614" y="72.62266344684285"/>
      <point x="285.5317092250995" y="66.6306639483908"/>
      <point x="306.36501508064845" y="65.06351716301253" type="curve" smooth="yes"/>
      <point x="437.85646312461864" y="55.17231691204721"/>
      <point x="525.0094237174886" y="127.24209986159141"/>
      <point x="525.0266543274738" y="225.9662234211319" type="curve" smooth="yes"/>
      <point x="525.0438948392967" y="324.7470803318971"/>
      <point x="439.43201881336654" y="354.2691909044348"/>
      <point x="299.7221934325812" y="394.1083484138323" type="curve" smooth="yes"/>
      <point x="213.81822172261303" y="418.60441982690946"/>
      <point x="212.8796047549599" y="432.6883835420683"/>
      <point x="173.05529160086311" y="432.6883835420683" type="curve" smooth="yes"/>
      <point x="169.96307363563452" y="432.6883835420683"/>
      <point x="170.04616768478974" y="344.79390607779203"/>
      <point x="170.04517174658133" y="339.0876004480305" type="curve" smooth="yes"/>
      <point x="170.00827113569898" y="127.66267287325279" type="line" smooth="yes"/>
      <point x="169.99678606178458" y="61.85804627032156"/>
      <point x="169.99196821588328" y="48.4399959583412"/>
      <point x="169.98579344496156" y="41.36422965695071" type="curve" smooth="yes"/>
      <point x="169.9268886054349" y="-26.135744640969435"/>
      <point x="79.92692287487472" y="-26.057204854933914"/>
    </contour>
  </outline>
</glyph>
<glyph name="E" format="2">
  <advance width="523"/>
  <unicode hex="0045"/>
  <outline>
    <contour>
      <point x="440.9378074365499" y="417.30080312326123" type="curve" smooth="yes"/>
      <point x="385.1216132132211" y="393.13488938788794"/>
      <point x="343.0475827639158" y="392.38329701443513"/>
      <point x="294.0623232792294" y="392.38329701443513" type="curve" smooth="yes"/>
      <point x="250.19794423796782" y="392.38329701443513"/>
      <point x="237.1325225088722" y="392.38329701443513"/>
      <point x="206.06232461954608" y="392.38329701443513" type="curve" smooth="yes"/>
      <point x="176.2808657215207" y="392.38329701443513"/>
      <point x="170.0547142903789" y="393.76832702037376"/>
      <point x="170.05109454715415" y="373.02872594498484" type="curve" smooth="yes"/>
      <point x="170.04553447467777" y="341.17185711454965"/>
      <point x="170.0384207145726" y="322.05690343332776"/>
      <point x="170.0315368158638" y="317.80932126059724" type="curve" smooth="yes"/>
      <point x="170.03044938057843" y="317.1383394627072"/>
      <point x="-91.75923823288342" y="365.71067811865476"/>
      <point x="189.01234244567036" y="365.71067811865476" type="curve" smooth="yes"/>
      <point x="242.624361273879" y="365.71067811865476"/>
      <point x="298.1305008329791" y="365.71067811865476"/>
      <point x="339.01234016103973" y="365.71067811865476" type="curve" smooth="yes"/>
      <point x="482.53530383304843" y="365.71067811865476"/>
      <point x="482.5501134427671" y="190.85786437626905"/>
      <point x="339.0271497707584" y="190.85786437626905" type="curve" smooth="yes"/>
      <point x="285.4151309425501" y="190.85786437626905"/>
      <point x="232.54426494134137" y="190.85786437626905"/>
      <point x="190.02715204015817" y="190.85786437626905" type="curve" smooth="yes"/>
      <point x="186.40699442232966" y="190.85786437626905"/>
      <point x="170.02097443933175" y="200.4532193990169"/>
      <point x="170.02061143381655" y="198.37335099190756" type="curve" smooth="yes"/>
      <point x="170.0118897597529" y="148.40183932492116"/>
      <point x="170.00274765822465" y="96.02145571410279"/>
      <point x="169.99901408631013" y="74.62966428426174" type="curve" smooth="yes"/>
      <point x="169.99704488689508" y="63.346982677125304"/>
      <point x="189.60284416482278" y="65.19029611437206"/>
      <point x="203.9895107355577" y="65.19029611437207" type="curve" smooth="yes"/>
      <point x="228.5186143323941" y="65.19029611437209"/>
      <point x="253.64876442059355" y="65.19029611437207"/>
      <point x="287.9895094561645" y="65.19029611437207" type="curve" smooth="yes"/>
      <point x="321.55900559107687" y="65.19029611437207"/>
      <point x="357.5763883670342" y="64.74514642461443"/>
      <point x="407.04395404516964" y="83.48505594004915" type="curve" smooth="yes"/>
      <point x="470.16628863029064" y="107.39783236864555"/>
      <point x="502.04999053508584" y="23.234719588484197"/>
      <point x="438.92765594996484" y="-0.6780568401122054" type="curve" smooth="yes"/>
      <point x="376.4970838985653" y="-24.328771307292143"/>
      <point x="330.35591294600005" y="-24.80970388562793"/>
      <point x="287.9895094561645" y="-24.809703885627926" type="curve" smooth="yes"/>
      <point x="236.81440057469263" y="-24.809703885627922"/>
      <point x="240.5431599366089" y="-24.809703885627915"/>
      <point x="203.9895107355577" y="-24.809703885627926" type="curve" smooth="yes"/>
      <point x="119.34848692934152" y="-24.809703885627943"/>
      <point x="79.98743007323715" y="8.266012038071674"/>
      <point x="79.99901545708848" y="74.6453722472107" type="curve" smooth="yes"/>
      <point x="80.00457928364628" y="106.5237503795985"/>
      <point x="80.01476017835047" y="164.85598049726786"/>
      <point x="80.02061280459488" y="198.38905895485652" type="curve" smooth="yes"/>
      <point x="80.02886683595624" y="245.68117529236224"/>
      <point x="107.71188890271983" y="280.85786437626905"/>
      <point x="190.02715204015817" y="280.85786437626905" type="curve" smooth="yes"/>
      <point x="253.3868106553138" y="280.85786437626905"/>
      <point x="303.051131162065" y="280.85786437626905"/>
      <point x="339.0271497707584" y="280.85786437626905" type="curve" smooth="yes"/>
      <point x="345.3624256019585" y="280.85786437626905"/>
      <point x="345.3476159922398" y="275.71067811865476"/>
      <point x="339.01234016103973" y="275.71067811865476" type="curve" smooth="yes"/>
      <point x="278.0895914926208" y="275.71067811865476"/>
      <point x="224.98836105436382" y="275.71067811865476"/>
      <point x="189.01234244567036" y="275.71067811865476" type="curve" smooth="yes"/>
      <point x="186.21901164946394" y="275.71067811865476"/>
      <point x="79.92450895300654" y="251.84269097684168"/>
      <point x="80.03165501029699" y="317.95518072721984" type="curve" smooth="yes"/>
      <point x="80.03852106357645" y="322.1917517084038"/>
      <point x="80.04555025907314" y="341.2701490206683"/>
      <point x="80.05109591793247" y="373.04443390793375" type="curve" smooth="yes"/>
      <point x="80.06278266231143" y="440.0045471643455"/>
      <point x="109.90956577408402" y="482.38329701443513"/>
      <point x="206.06232461954608" y="482.38329701443513" type="curve" smooth="yes"/>
      <point x="252.36361360754435" y="482.38329701443513"/>
      <point x="264.6273989630257" y="482.38329701443513"/>
      <point x="294.0623232792294" y="482.38329701443513" type="curve" smooth="yes"/>
      <point x="330.9289423132399" y="482.38329701443513"/>
      <point x="363.1718062571466" y="481.70477681255676"/>
      <point x="405.17943038748496" y="499.8921977768019" type="curve" smooth="yes"/>
      <point x="467.1229763776405" y="526.7109805636005"/>
      <point x="502.88135342670546" y="444.1195859100599"/>
    </contour>
  </outline>
</glyph>
<glyph name="F" format="2">
  <advance width="503"/>
  <unicode hex="0046"/>
  <outline>
    <contour>
      <point x="79.99827482429382" y="70.40273156009142" type="curve" smooth="yes"/>
      <point x="80.0238383517216" y="216.8709554116032"/>
      <point x="80.04029634889761" y="291.98910765696286"/>
      <point x="80.05183597253956" y="377.2853086110899" type="curve" smooth="yes"/>
      <point x="80.061340664528" y="447.54012306672354"/>
      <point x="110.70207794914184" y="510.66756826189703"/>
      <point x="210.057387869741" y="510.66756826189703" type="curve" smooth="yes"/>
      <point x="257.4642333360731" y="510.66756826189703"/>
      <point x="359.0497771850681" y="482.38329701443513"/>
      <point x="423.06232116213835" y="482.38329701443513" type="curve" smooth="yes"/>
      <point x="490.56232116213835" y="482.38329701443513"/>
      <point x="490.56232116213835" y="392.38329701443513"/>
      <point x="423.06232116213835" y="392.38329701443513" type="curve" smooth="yes"/>
      <point x="344.9032578546884" y="392.38329701443513"/>
      <point x="248.8837684642598" y="420.66756826189703"/>
      <point x="210.057387869741" y="420.66756826189703" type="curve" smooth="yes"/>
      <point x="170.4961475609475" y="420.66756826189703"/>
      <point x="170.05561972170503" y="405.24715433418345"/>
      <point x="170.0518351489015" y="377.27313261606724" type="curve" smooth="yes"/>
      <point x="170.04409155476066" y="320.0356366245539"/>
      <point x="170.01542770285258" y="168.67363286938524"/>
      <point x="169.99827345351548" y="70.38702359714243" type="curve" smooth="yes"/>
      <point x="169.98649248130374" y="2.8870246252261893"/>
      <point x="79.98649385208208" y="2.9027325881751835"/>
    </contour>
    <contour>
      <point x="169.99815004010117" y="69.67991681595592" type="curve" smooth="yes"/>
      <point x="169.97115208255994" y="-85.0069862278135"/>
      <point x="79.95612016953775" y="-2.834236179160448"/>
      <point x="79.98284814750353" y="150.3057978341713" type="curve" smooth="yes"/>
      <point x="79.99172019525788" y="201.1388872885194"/>
      <point x="79.99047816831042" y="194.0225970390541"/>
      <point x="79.99679386332195" y="230.20886410825113" type="curve" smooth="yes"/>
      <point x="80.01233630964869" y="319.2605223440151"/>
      <point x="127.02716514498987" y="304.2452459736356"/>
      <point x="245.73910342303196" y="272.2349661128601" type="curve" smooth="yes"/>
      <point x="290.54581259548473" y="260.15298580780194"/>
      <point x="360.8535922974834" y="266.29257454046973"/>
      <point x="392.9992402089518" y="272.87266397349333" type="curve" smooth="yes"/>
      <point x="459.12804132258645" y="286.4089730447784"/>
      <point x="477.1764534176332" y="198.23723822659886"/>
      <point x="411.0476523039985" y="184.70092915531382" type="curve" smooth="yes"/>
      <point x="367.23563621501785" y="175.73277941073482"/>
      <point x="283.3758513380935" y="168.871828245246"/>
      <point x="222.30779420749099" y="185.33862701594703" type="curve" smooth="yes"/>
      <point x="217.4024134069678" y="186.66134665582555"/>
      <point x="169.9974347330707" y="233.8729233271112"/>
      <point x="169.99679249254362" y="230.19315614530223" type="curve" smooth="yes"/>
      <point x="169.9925543838838" y="205.910582089807"/>
      <point x="169.98880031031874" y="184.40132485394182"/>
      <point x="169.98284677672518" y="150.29008987122228" type="curve" smooth="yes"/>
      <point x="169.98192530118635" y="145.0104239147138"/>
      <point x="79.99722062750696" y="64.36262886323978"/>
      <point x="79.9981514108795" y="69.69562477890489" type="curve" smooth="yes"/>
      <point x="80.00993238309113" y="137.19562375082114"/>
      <point x="170.0099310123128" y="137.17991578787218"/>
    </contour>
  </outline>
</glyph>
<glyph name="G" format="2">
  <advance width="653"/>
  <unicode hex="0047"/>
  <outline>
    <contour>
      <point x="532.4094639446193" y="388.925699636755" type="curve" smooth="yes"/>
      <point x="469.79376281019023" y="392.61570681365424"/>
      <point x="417.1339870328107" y="400.466781563389"/>
      <point x="369.35033905527234" y="400.16238465038634" type="curve" smooth="yes"/>
      <point x="228.0608445957797" y="399.26232599489447"/>
      <point x="135.0431757762001" y="327.64878360848286"/>
      <point x="135.0260431471338" y="229.48604936411564" type="curve" smooth="yes"/>
      <point x="135.0086819739673" y="130.01385387540205"/>
      <point x="221.13600978838465" y="58.11922830250667"/>
      <point x="360.9882752001743" y="58.1192283025066" type="curve" smooth="yes"/>
      <point x="424.6101870510046" y="58.11922830250654"/>
      <point x="497.07012039012284" y="93.1890236479958"/>
      <point x="505.30411566618153" y="117.8700305528177" type="curve" smooth="yes"/>
      <point x="515.48313885022" y="148.38116555675356"/>
      <point x="512.9992181901042" y="178.04690067949477"/>
      <point x="513.0066619885938" y="210.41236989257652" type="curve" smooth="yes"/>
      <point x="513.0072875272136" y="213.13219780912632"/>
      <point x="508.8857015264645" y="190.85786437626905"/>
      <point x="506.01974341235024" y="190.85786437626905" type="curve" smooth="yes"/>
      <point x="457.28154447761517" y="190.85786437626905"/>
      <point x="409.91357524853777" y="190.85786437626905"/>
      <point x="387.01974522482385" y="190.85786437626905" type="curve" smooth="yes"/>
      <point x="319.51974522482385" y="190.85786437626908"/>
      <point x="319.51974522482385" y="280.85786437626905"/>
      <point x="387.01974522482385" y="280.85786437626905" type="curve" smooth="yes"/>
      <point x="421.1364844791385" y="280.85786437626905"/>
      <point x="473.31427194990164" y="280.85786437626905"/>
      <point x="506.01974341235024" y="280.85786437626905" type="curve" smooth="yes"/>
      <point x="574.9611917291492" y="280.85786437626905"/>
      <point x="603.0217071200173" y="275.8179149186456"/>
      <point x="603.0066596082597" y="210.3916706145302" type="curve" smooth="yes"/>
      <point x="602.9960088911236" y="164.08259090899153"/>
      <point x="605.2426773736784" y="133.04362790650183"/>
      <point x="590.6783528817089" y="89.3877620359516" type="curve" smooth="yes"/>
      <point x="574.1807503588313" y="39.936987760665865"/>
      <point x="488.4609027971815" y="-31.88077169749348"/>
      <point x="360.9882752001743" y="-31.8807716974934" type="curve" smooth="yes"/>
      <point x="161.27733226021553" y="-31.880771697493287"/>
      <point x="45.00125252578085" y="87.45410512160946"/>
      <point x="45.026044517912155" y="229.5017573270646" type="curve" smooth="yes"/>
      <point x="45.050558796236864" y="369.95822662141126"/>
      <point x="166.61248711721993" y="488.8727066941061"/>
      <point x="368.77702229368424" y="490.160558564588" type="curve" smooth="yes"/>
      <point x="420.93446590839227" y="490.49281793569935"/>
      <point x="480.3391541000472" y="482.1503996267082"/>
      <point x="537.704070045284" y="478.76982658024974" type="curve" smooth="yes"/>
      <point x="605.087165252905" y="474.79887200475133"/>
      <point x="599.7925591522404" y="384.9547450612566"/>
    </contour>
  </outline>
</glyph>
<glyph name="I" format="2">
  <advance width="270"/>
  <unicode hex="0049"/>
  <anchor x="135" y="73.0" name="below"/>
  <anchor x="135" y="554.0" name="above"/>
  <outline>
    <contour>
      <point x="90.0" y="26.0" type="curve" smooth="yes"/>
      <point x="90.0" y="88.0"/>
      <point x="90.0" y="111.0"/>
      <point x="90.0" y="139.0" type="curve" smooth="yes"/>
      <point x="90.0" y="208.0"/>
      <point x="90.0" y="251.0"/>
      <point x="90.0" y="336.0" type="curve" smooth="yes"/>
      <point x="90.0" y="376.0"/>
      <point x="90.0" y="396.0"/>
      <point x="90.0" y="462.0" type="curve" smooth="yes"/>
      <point x="90.0" y="528.0"/>
      <point x="180.0" y="531.0"/>
      <point x="180.0" y="460.0" type="curve" smooth="yes"/>
      <point x="180.0" y="390.0"/>
      <point x="180.0" y="380.0"/>
      <point x="180.0" y="337.0" type="curve" smooth="yes"/>
      <point x="180.0" y="245.0"/>
      <point x="180.0" y="219.0"/>
      <point x="180.0" y="137.0" type="curve" smooth="yes"/>
      <point x="180.0" y="104.0"/>
      <point x="180.0" y="91.0"/>
      <point x="180.0" y="26.0" type="curve" smooth="yes"/>
      <point x="180.0" y="-39.0"/>
      <point x="90.0" y="-38.0"/>
    </contour>
  </outline>
</glyph>
<glyph name="J" format="2">
  <advance width="448"/>
  <unicode hex="004A"/>
  <outline>
    <contour>
      <point x="91.05135936743683" y="91.23129614204649" type="curve" smooth="yes"/>
      <point x="127.35648492944183" y="70.81030359792165"/>
      <point x="160.14540097651093" y="62.3069262785525"/>
      <point x="189.0234060966821" y="61.6428693408624" type="curve" smooth="yes"/>
      <point x="248.37447208777368" y="60.2780767602572"/>
      <point x="287.0004754111265" y="83.03162940612444"/>
      <point x="287.009131633115" y="132.62812830450764" type="curve" smooth="yes"/>
      <point x="287.0237178811178" y="216.20117367860541"/>
      <point x="287.0316779348104" y="261.8089220376916"/>
      <point x="287.0414659476674" y="317.8901049753831" type="curve" smooth="yes"/>
      <point x="287.05018762173086" y="367.8616166423695"/>
      <point x="287.05532716259086" y="398.37803759822987"/>
      <point x="287.0592368785504" y="462.13479386300565" type="curve" smooth="yes"/>
      <point x="287.0633761391125" y="529.634793736091"/>
      <point x="377.06337596989295" y="529.6292747220082"/>
      <point x="377.05923670933083" y="462.1292748489229" type="curve" smooth="yes"/>
      <point x="377.05661311825577" y="419.34569198924083"/>
      <point x="377.0473172031335" y="351.4074754700227"/>
      <point x="377.04146457688904" y="317.8743970124341" type="curve" smooth="yes"/>
      <point x="377.0268783288862" y="234.30135163833623"/>
      <point x="377.01891827519364" y="188.69360327925006"/>
      <point x="377.0091302623366" y="132.61242034155862" type="curve" smooth="yes"/>
      <point x="376.99220401947133" y="35.63219193013214"/>
      <point x="303.0085389256666" y="-31.002039270181353"/>
      <point x="186.95438058536257" y="-28.33334492398378" type="curve" smooth="yes"/>
      <point x="145.88140558967305" y="-27.388861609296338"/>
      <point x="98.56541316434175" y="-16.255721608401586"/>
      <point x="46.92889920784158" y="12.788906393486883" type="curve" smooth="yes"/>
      <point x="-11.902893103578066" y="45.880751513183434"/>
      <point x="32.21956705601718" y="124.32314126174305"/>
    </contour>
  </outline>
</glyph>
<glyph name="K" format="2">
  <advance width="591"/>
  <unicode hex="004B"/>
  <anchor x="302" y="73.0" name="below"/>
  <anchor x="302" y="554.0" name="above"/>
  <outline>
    <contour>
      <point x="170.0" y="453.0" type="curve" smooth="yes"/>
      <point x="170.0" y="402.0"/>
      <point x="170.0" y="390.0"/>
      <point x="170.0" y="343.0" type="curve" smooth="yes"/>
      <point x="170.0" y="247.0"/>
      <point x="170.0" y="183.0"/>
      <point x="170.0" y="110.0" type="curve" smooth="yes"/>
      <point x="170.0" y="89.0"/>
      <point x="170.0" y="56.0"/>
      <point x="170.0" y="25.0" type="curve" smooth="yes"/>
      <point x="170.0" y="-34.0"/>
      <point x="80.0" y="-35.0"/>
      <point x="80.0" y="27.0" type="curve" smooth="yes"/>
      <point x="80.0" y="55.0"/>
      <point x="80.0" y="82.0"/>
      <point x="80.0" y="116.0" type="curve" smooth="yes"/>
      <point x="80.0" y="211.0"/>
      <point x="80.0" y="275.0"/>
      <point x="80.0" y="350.0" type="curve" smooth="yes"/>
      <point x="80.0" y="370.0"/>
      <point x="80.0" y="417.0"/>
      <point x="80.0" y="456.0" type="curve" smooth="yes"/>
      <point x="80.0" y="522.0"/>
      <point x="170.0" y="524.0"/>
    </contour>
    <contour>
      <point x="538.0" y="422.0" type="curve" smooth="yes"/>
      <point x="496.0" y="380.0"/>
      <point x="454.0" y="348.0"/>
      <point x="405.0" y="322.0" type="curve" smooth="yes"/>
      <point x="366.0" y="301.0"/>
      <point x="315.0" y="280.0"/>
      <point x="292.0" y="270.0" type="curve" smooth="yes"/>
      <point x="270" y="261"/>
      <point x="274.0" y="260.0"/>
      <point x="297.0" y="241.0" type="curve" smooth="yes"/>
      <point x="337" y="208"/>
      <point x="457.0" y="107.0"/>
      <point x="541.0" y="52.0" type="curve" smooth="yes"/>
      <point x="591.0" y="19.0"/>
      <point x="542.0" y="-56.0"/>
      <point x="490.0" y="-22.0" type="curve" smooth="yes"/>
      <point x="403.0" y="35.0"/>
      <point x="285" y="124"/>
      <point x="222.0" y="180.0" type="curve" smooth="yes"/>
      <point x="128.0" y="263.0"/>
      <point x="142" y="320"/>
      <point x="231.0" y="346.0" type="curve" smooth="yes"/>
      <point x="266.0" y="356.0"/>
      <point x="336.0" y="387.0"/>
      <point x="365.0" y="403.0" type="curve" smooth="yes"/>
      <point x="400.0" y="422.0"/>
      <point x="438.0" y="449.0"/>
      <point x="476.0" y="487.0" type="curve" smooth="yes"/>
      <point x="523.0" y="534.0"/>
      <point x="588.0" y="472.0"/>
    </contour>
  </outline>
</glyph>
<glyph name="M" format="2">
  <advance width="808"/>
  <unicode hex="004D"/>
  <outline>
    <contour>
      <point x="79.98544917181326" y="36.48008601543967" type="curve" smooth="yes"/>
      <point x="79.99248070280821" y="48.49571737808361"/>
      <point x="79.99815570278022" y="69.70690742293506"/>
      <point x="80.00272002991726" y="95.85857568280709" type="curve" smooth="yes"/>
      <point x="80.01523254119839" y="167.54998479903134"/>
      <point x="80.03047713604917" y="253.48086621370857"/>
      <point x="80.04912347370241" y="360.31651184657596" type="curve" smooth="yes"/>
      <point x="80.07670118214435" y="518.3251428851729"/>
      <point x="172.61182123415216" y="629.9645080959967"/>
      <point x="259.67735672559513" y="467.86909761629323" type="curve" smooth="yes"/>
      <point x="306.13411791688935" y="381.37760896518967"/>
      <point x="355.62991029764714" y="282.1670160007254"/>
      <point x="400.06826567645714" y="182.81333269886005" type="curve" smooth="yes"/>
      <point x="403.3119710898531" y="175.56117231578767"/>
      <point x="406.6696523527972" y="124.49200376024316"/>
      <point x="409.9254914679106" y="130.19176281279397" type="curve" smooth="yes"/>
      <point x="452.58006016093753" y="204.8639918280954"/>
      <point x="503.7008981040267" y="298.3417664269525"/>
      <point x="548.3280631442982" y="382.1635346643591" type="curve" smooth="yes"/>
      <point x="641.9942843391284" y="558.0937842686466"/>
      <point x="728.063950091947" y="617.8416725780856"/>
      <point x="728.0341805809651" y="447.27493796957225" type="curve" smooth="yes"/>
      <point x="728.0158349906936" y="342.1624479114287"/>
      <point x="728.0144037898245" y="176.98456550361888"/>
      <point x="728.0020930932413" y="106.44946943765642" type="curve" smooth="yes"/>
      <point x="727.9972767719227" y="78.85398086223363"/>
      <point x="727.9924657615829" y="51.28753294057226"/>
      <point x="727.9851795318954" y="37.84357696793042" type="curve" smooth="yes"/>
      <point x="727.9485965177374" y="-29.656413118610146"/>
      <point x="637.9486097356834" y="-29.60763576639951"/>
      <point x="637.9851927498413" y="37.89235432014105" type="curve" smooth="yes"/>
      <point x="637.992471001222" y="51.32158937250779"/>
      <point x="637.9972834164969" y="78.89990545101047"/>
      <point x="638.0020944640197" y="106.4651774006053" type="curve" smooth="yes"/>
      <point x="638.0204400542912" y="211.57766745874906"/>
      <point x="638.0218712551602" y="376.75554986655857"/>
      <point x="638.0341819517434" y="447.2906459325213" type="curve" smooth="yes"/>
      <point x="638.0356246659707" y="455.55678960180217"/>
      <point x="632.3097436658926" y="348.39406931880285"/>
      <point x="627.7704151553704" y="339.86799462821693" type="curve" smooth="yes"/>
      <point x="582.6904271686758" y="255.1957036199061"/>
      <point x="531.1616364320699" y="160.98122438606043"/>
      <point x="488.0742603344824" y="85.55131115021392" type="curve" smooth="yes"/>
      <point x="424.32604990458236" y="-26.048011370079468"/>
      <point x="381.4223794433637" y="4.07201943892506"/>
      <point x="317.911742721201" y="146.06682625399543" type="curve" smooth="yes"/>
      <point x="274.42278412512053" y="243.29788223369619"/>
      <point x="225.85501555510513" y="340.63861890686843"/>
      <point x="180.39077308407124" y="425.2822727234272" type="curve" smooth="yes"/>
      <point x="172.00644587499022" y="440.89190462749684"/>
      <point x="170.05177780968506" y="375.5168828637735"/>
      <point x="170.04912210292406" y="360.30080388362694" type="curve" smooth="yes"/>
      <point x="170.03660959164287" y="288.6093947674028"/>
      <point x="170.02136499679207" y="202.67851335272553"/>
      <point x="170.0027186591389" y="95.8428677198582" type="curve" smooth="yes"/>
      <point x="169.99814932865692" y="69.66253240471355"/>
      <point x="169.99247300008344" y="48.4562208602494"/>
      <point x="169.98543376123266" y="36.42741814788559" type="curve" smooth="yes"/>
      <point x="169.94593286056707" y="-31.072570294178945"/>
      <point x="79.94594827114769" y="-31.019902426624867"/>
    </contour>
  </outline>
</glyph>
<glyph name="N" format="2">
  <advance width="688"/>
  <unicode hex="004E"/>
  <outline>
    <contour>
      <point x="170.06294349147595" y="440.9109769388933" type="curve" smooth="yes"/>
      <point x="170.0576963093257" y="410.8468376320896"/>
      <point x="170.05163384417497" y="376.1114707977939"/>
      <point x="170.04381441225598" y="331.30942585497854" type="curve" smooth="yes"/>
      <point x="170.0330173259086" y="269.4466776659787"/>
      <point x="170.01499579260596" y="166.19089728309658"/>
      <point x="170.00419870625853" y="104.32814909409674" type="curve" smooth="yes"/>
      <point x="169.99913539410278" y="75.31750725839588"/>
      <point x="169.99346164378517" y="48.46162024623297"/>
      <point x="169.9859284232607" y="33.602511013313034" type="curve" smooth="yes"/>
      <point x="169.95170750785553" y="-33.89748031208603"/>
      <point x="79.9517190739901" y="-33.851852424879155"/>
      <point x="79.98593998939526" y="33.64813890051991" type="curve" smooth="yes"/>
      <point x="79.99346496116179" y="48.49097764260942"/>
      <point x="79.99914230912822" y="75.36498141772806"/>
      <point x="80.00420007703686" y="104.34385705704571" type="curve" smooth="yes"/>
      <point x="80.0202900619473" y="196.53268030476178"/>
      <point x="80.0277257981239" y="239.1363105702114"/>
      <point x="80.0438157830343" y="331.32513381792745" type="curve" smooth="yes"/>
      <point x="80.04906296518445" y="361.38927312473123"/>
      <point x="80.05512543033521" y="396.12463995902704"/>
      <point x="80.06294486225427" y="440.92668490184235" type="curve" smooth="yes"/>
      <point x="80.0747258344659" y="508.4266838737586"/>
      <point x="170.07472446368757" y="508.41097591080955"/>
    </contour>
    <contour>
      <point x="531.8410056394974" y="69.01555092370074" type="curve" smooth="yes"/>
      <point x="500.7479783446742" y="98.80813926840848"/>
      <point x="470.37971070530654" y="128.58995445093922"/>
      <point x="439.7056083239922" y="158.25631642042057" type="curve" smooth="yes"/>
      <point x="353.52387556312135" y="241.60670912167737"/>
      <point x="266.66134303247605" y="325.8011907552132"/>
      <point x="180.67411589381652" y="409.3522278171457" type="curve" smooth="yes"/>
      <point x="151.73728331313342" y="437.4692220714773"/>
      <point x="122.65444403435534" y="465.242243917293"/>
      <point x="93.62560759237698" y="493.55946065545766" type="curve" smooth="yes"/>
      <point x="45.307331581433196" y="540.6932511176118"/>
      <point x="108.15238553097211" y="605.1176191322035"/>
      <point x="156.4706615419159" y="557.9838286700493" type="curve" smooth="yes"/>
      <point x="186.05202434069662" y="529.1276303357611"/>
      <point x="214.99999687705963" y="501.4880046402782"/>
      <point x="243.3927781976961" y="473.89964758596307" type="curve" smooth="yes"/>
      <point x="329.28585067548323" y="390.44009759509794"/>
      <point x="416.18628923435824" y="306.2088696728473"/>
      <point x="502.2736543537605" y="222.94974434023945" type="curve" smooth="yes"/>
      <point x="533.1349275624721" y="193.1023606917317"/>
      <point x="563.2026567987688" y="163.61154439007362"/>
      <point x="594.1071540553656" y="133.99960097794929" type="curve" smooth="yes"/>
      <point x="642.845191596052" y="87.29998966604819"/>
      <point x="580.5790431801838" y="22.315939611799656"/>
    </contour>
    <contour>
      <point x="608.05997550257" y="457.8866898391207" type="curve" smooth="yes"/>
      <point x="608.0577906572279" y="421.5241780544397"/>
      <point x="608.0518992074083" y="377.67011284507186"/>
      <point x="608.0476335569784" y="353.2297360717615" type="curve" smooth="yes"/>
      <point x="608.0319946931403" y="263.62564618613084"/>
      <point x="608.0215826277655" y="203.96890568641558"/>
      <point x="608.0092519851243" y="133.31952712274523" type="curve" smooth="yes"/>
      <point x="608.0029362901126" y="97.13326005354823"/>
      <point x="607.994433126054" y="48.41371850027875"/>
      <point x="607.988888771761" y="16.646908226964744" type="curve" smooth="yes"/>
      <point x="607.9771077995492" y="-50.8530907449515"/>
      <point x="517.9771091703276" y="-50.837382782002365"/>
      <point x="517.9888901425394" y="16.662616189913873" type="curve" smooth="yes"/>
      <point x="517.997152424978" y="64.00200771650981"/>
      <point x="518.0050152472431" y="109.05266103019883"/>
      <point x="518.0092533559026" y="133.33523508569414" type="curve" smooth="yes"/>
      <point x="518.017527758524" y="180.74407014642296"/>
      <point x="518.0371405634563" y="293.1171654211033"/>
      <point x="518.0476349277568" y="353.24544403471043" type="curve" smooth="yes"/>
      <point x="518.0534827193826" y="386.75082216628107"/>
      <point x="518.056980454685" y="408.0426324735495"/>
      <point x="518.0599756650298" y="457.8920974985693" type="curve" smooth="yes"/>
      <point x="518.0640314096162" y="525.3920973767243"/>
      <point x="608.0640312471563" y="525.3866897172758"/>
    </contour>
  </outline>
</glyph>
<glyph name="P" format="2">
  <advance width="555"/>
  <unicode hex="0050"/>
  <outline>
    <contour>
      <point x="241.21059438252598" y="256.6303788409502" type="curve" smooth="yes"/>
      <point x="259.2924938350232" y="249.6567570541254"/>
      <point x="282.9261600477124" y="246.31840650827536"/>
      <point x="310.8635327012158" y="243.92393253190755" type="curve" smooth="yes"/>
      <point x="379.6145625565438" y="238.031375852408"/>
      <point x="430.03181052816643" y="274.9877667820065"/>
      <point x="430.0389959878531" y="332.03005514344073" type="curve" smooth="yes"/>
      <point x="430.04655962962863" y="392.07456920810824"/>
      <point x="371.2939349931686" y="428.8898623641646"/>
      <point x="290.08485062557764" y="437.913380255917" type="curve" smooth="yes"/>
      <point x="261.74507102323355" y="441.0623445655322"/>
      <point x="234.37132621675818" y="441.88077169749346"/>
      <point x="206.05368592423747" y="441.88077169749346" type="curve" smooth="yes"/>
      <point x="173.05483949983264" y="441.88077169749346"/>
      <point x="170.05584606715098" y="400.25153402865686"/>
      <point x="170.05183527133403" y="377.2713666321041" type="curve" smooth="yes"/>
      <point x="170.03932276005284" y="305.57995751588004"/>
      <point x="170.02276733457032" y="210.7243562152337"/>
      <point x="170.00592548120613" y="114.2276440307084" type="curve" smooth="yes"/>
      <point x="170.0002475309333" y="81.69538517374079"/>
      <point x="169.99456905493562" y="49.16475928829957"/>
      <point x="169.98642243063108" y="30.776960803926563" type="curve" smooth="yes"/>
      <point x="169.95651688826553" y="-36.72303257132152"/>
      <point x="79.95652572126808" y="-36.683158514834126"/>
      <point x="79.98643126363362" y="30.816834860413955" type="curve" smooth="yes"/>
      <point x="79.99587307190168" y="52.12800145807398"/>
      <point x="79.99934619773697" y="76.53898032087423"/>
      <point x="80.00592685198446" y="114.24335199365737" type="curve" smooth="yes"/>
      <point x="80.01722847507715" y="178.99688280831145"/>
      <point x="80.03319030445914" y="270.4514289621857"/>
      <point x="80.05183664211235" y="377.287074595053" type="curve" smooth="yes"/>
      <point x="80.06357624404905" y="444.55003935027526"/>
      <point x="109.46604120844252" y="531.8807716974934"/>
      <point x="206.05368592423747" y="531.8807716974934" type="curve" smooth="yes"/>
      <point x="237.7330127814001" y="531.8807716974934"/>
      <point x="268.3199050705393" y="530.8856706905805"/>
      <point x="300.02399947277416" y="527.3628817648314" type="curve" smooth="yes"/>
      <point x="437.67203993161297" y="512.0681697813445"/>
      <point x="520.051815520175" y="433.7931656880371"/>
      <point x="520.0389952738045" y="332.01871809183837" type="curve" smooth="yes"/>
      <point x="520.0257216624211" y="226.64519974475562"/>
      <point x="430.1808659376022" y="143.3674434316864"/>
      <point x="303.1779333073751" y="154.25269097722963" type="curve" smooth="yes"/>
      <point x="263.4234108983402" y="157.65999668675303"/>
      <point x="234.55575457878513" y="162.73556881924424"/>
      <point x="208.82544393369756" y="172.65894304039506" type="curve" smooth="yes"/>
      <point x="145.8468670832812" y="196.94780587701638"/>
      <point x="178.23201753210964" y="280.9192416775715"/>
    </contour>
  </outline>
</glyph>
<glyph name="Q" format="2">
  <advance width="732"/>
  <unicode hex="0051"/>
  <outline>
    <contour>
      <point x="530.3183251207086" y="-61.9997388354178" type="curve" smooth="yes"/>
      <point x="498.12639379971597" y="-25.713858090533517"/>
      <point x="458.71381686576564" y="21.3850081611563"/>
      <point x="427.03111695122794" y="57.85220199437381" type="curve" smooth="yes"/>
      <point x="312.7396259958744" y="189.4031735150759"/>
      <point x="380.29815457160186" y="338.7563243313464"/>
      <point x="494.88837749056705" y="207.4654875443868" type="curve" smooth="yes"/>
      <point x="510.03482908137676" y="190.11156106571278"/>
      <point x="545.0576761403495" y="172.11169312847673"/>
      <point x="564.794511427804" y="182.0251298522021" type="curve" smooth="yes"/>
      <point x="587.4907435706317" y="193.42501529168425"/>
      <point x="597.017169046975" y="214.75195079659065"/>
      <point x="597.0235688622406" y="243.64600612957491" type="curve" smooth="yes"/>
      <point x="597.0431947382674" y="332.25343061626637"/>
      <point x="498.192985847861" y="399.4543648263006"/>
      <point x="368.0635578779142" y="399.4543648263006" type="curve" smooth="yes"/>
      <point x="234.57030108199083" y="399.4543648263006"/>
      <point x="135.04403469892054" y="332.56660128938154"/>
      <point x="135.02604374875318" y="229.48604936411567" type="curve" smooth="yes"/>
      <point x="135.00630496840327" y="116.39116811090676"/>
      <point x="252.79249147169443" y="48.965325643898815"/>
      <point x="390.5890442539578" y="59.404853144195016" type="curve" smooth="yes"/>
      <point x="457.8961611729309" y="64.50406995226385"/>
      <point x="464.6951169170226" y="-25.238752606366887"/>
      <point x="397.3879999980495" y="-30.33796941443572" type="curve" smooth="yes"/>
      <point x="199.62896371093564" y="-45.32028106205434"/>
      <point x="44.99771696399586" y="67.19338114452934"/>
      <point x="45.02604511953153" y="229.50175732706458" type="curve" smooth="yes"/>
      <point x="45.05192950598095" y="377.808367963857"/>
      <point x="176.00082549534065" y="489.4543648263006"/>
      <point x="368.0635578779142" y="489.4543648263006" type="curve" smooth="yes"/>
      <point x="561.0641038898037" y="489.4543648263006"/>
      <point x="687.0526746346078" y="375.04355034119584"/>
      <point x="687.0235666545898" y="243.62607180906724" type="curve" smooth="yes"/>
      <point x="687.0090291456116" y="177.99174153818"/>
      <point x="656.7460821281511" y="127.49562021422143"/>
      <point x="605.1904254645273" y="101.60019510471436" type="curve" smooth="yes"/>
      <point x="547.9641175500087" y="72.8565097985082"/>
      <point x="470.99913468259433" y="97.96758727570032"/>
      <point x="427.0824940497874" y="148.28472909355747" type="curve" smooth="yes"/>
      <point x="421.7882852549555" y="154.3505267252621"/>
      <point x="489.6909414113474" y="122.9564948351619"/>
      <point x="494.9713484231931" y="116.87867865981431" type="curve" smooth="yes"/>
      <point x="527.0547987241416" y="79.95021599346725"/>
      <point x="565.8534319523726" y="33.56022516553527"/>
      <point x="597.6424233821119" y="-2.271472551447129" type="curve" smooth="yes"/>
      <point x="642.43862309509" y="-52.76454624749965"/>
      <point x="575.1145248336866" y="-112.49281253147032"/>
    </contour>
  </outline>
</glyph>
<glyph name="R" format="2">
  <advance width="595"/>
  <unicode hex="0052"/>
  <outline>
    <contour>
      <point x="79.98522660163914" y="37.92294347416383" type="curve" smooth="yes"/>
      <point x="79.99385318208702" y="44.98389567133388"/>
      <point x="80.00025525951567" y="81.74577534169289"/>
      <point x="80.00382912855837" y="102.22253671348606" type="curve" smooth="yes"/>
      <point x="80.01465603429251" y="164.2561374035381"/>
      <point x="80.03562231710872" y="284.38408975805027"/>
      <point x="80.04751747722845" y="352.53833725352393" type="curve" smooth="yes"/>
      <point x="80.06215021760151" y="436.37776428796195"/>
      <point x="101.62553150158438" y="510.66756826189703"/>
      <point x="197.0573887683624" y="510.66756826189703" type="curve" smooth="yes"/>
      <point x="227.51876310257185" y="510.66756826189703"/>
      <point x="254.1914477613361" y="510.66756826189703"/>
      <point x="280.0573875042001" y="510.66756826189703" type="curve" smooth="yes"/>
      <point x="417.94917372751326" y="510.6675682618971"/>
      <point x="500.05702182728487" y="412.4263710563035"/>
      <point x="500.0426980392722" y="324.9459506375732" type="curve" smooth="yes"/>
      <point x="500.0276747269557" y="233.1932888149552"/>
      <point x="417.8088792719648" y="168.23044737829954"/>
      <point x="292.0232018056624" y="168.23044737829954" type="curve" smooth="yes"/>
      <point x="255.0232023692046" y="168.23044737829954" type="line" smooth="yes"/>
      <point x="102.94538822667371" y="168.23044737829954"/>
      <point x="104.58359833589554" y="343.0832611206852"/>
      <point x="255.00839275948593" y="343.0832611206852" type="curve" smooth="yes"/>
      <point x="338.8206669072415" y="343.0832611206852"/>
      <point x="396.1790334555217" y="302.1237474387485"/>
      <point x="434.96008229370733" y="235.0469683760518" type="curve" smooth="yes"/>
      <point x="463.7326048190436" y="185.28121437178913"/>
      <point x="510.066855455357" y="86.7613759736973"/>
      <point x="540.8350016032058" y="70.67592355351805" type="curve" smooth="yes"/>
      <point x="600.6535401852275" y="39.403052852042926"/>
      <point x="558.9563792499273" y="-40.35499859065265"/>
      <point x="499.1378406679056" y="-9.082127889177528" type="curve" smooth="yes"/>
      <point x="439.8448047128749" y="21.916012334142575"/>
      <point x="412.4923845067468" y="94.09654636398517"/>
      <point x="357.04509806921266" y="189.99971281817417" type="curve" smooth="yes"/>
      <point x="333.84318505671433" y="230.13038590710937"/>
      <point x="305.15157228693437" y="253.08326112068522"/>
      <point x="255.00839275948593" y="253.08326112068522" type="curve" smooth="yes"/>
      <point x="248.14517727568602" y="253.08326112068522"/>
      <point x="248.08456693503317" y="258.2304473782996"/>
      <point x="255.0232023692046" y="258.2304473782996" type="curve" smooth="yes"/>
      <point x="292.0232018056624" y="258.2304473782996" type="line" smooth="yes"/>
      <point x="353.96218555392466" y="258.2304473782996"/>
      <point x="410.03530151398405" y="279.7801326854041"/>
      <point x="410.0426992457145" y="324.96068697397493" type="curve" smooth="yes"/>
      <point x="410.0505388594559" y="372.8399704016611"/>
      <point x="355.5275313756433" y="420.6675682618971"/>
      <point x="280.0573875042001" y="420.66756826189703" type="curve" smooth="yes"/>
      <point x="241.51156442169145" y="420.66756826189703"/>
      <point x="217.4983084323927" y="420.66756826189703"/>
      <point x="197.0573887683624" y="420.66756826189703" type="curve" smooth="yes"/>
      <point x="166.11221083181107" y="420.66756826189703"/>
      <point x="170.05226098690738" y="379.7087918780483"/>
      <point x="170.04751610645013" y="352.5226292905749" type="curve" smooth="yes"/>
      <point x="170.0297897550371" y="250.95811656078737"/>
      <point x="170.01109308691102" y="143.83409855995757"/>
      <point x="170.00382775778002" y="102.20682875053707" type="curve" smooth="yes"/>
      <point x="170.00024459996186" y="81.67684661536775"/>
      <point x="169.99380843520396" y="44.89229199844879"/>
      <point x="169.98515943357395" y="37.81298781390764" type="curve" smooth="yes"/>
      <point x="169.9026926883818" y="-29.68696181004347"/>
      <point x="79.90275985644699" y="-29.57700614978728"/>
    </contour>
  </outline>
</glyph>
<glyph name="S" format="2">
  <advance width="521"/>
  <unicode hex="0053"/>
  <outline>
    <contour>
      <point x="130.8905432344352" y="110.54202898765575" type="curve" smooth="yes"/>
      <point x="175.9410790384569" y="72.7886956171815"/>
      <point x="219.93166395807341" y="61.96635577833489"/>
      <point x="259.97542927489957" y="60.19666827659384" type="curve" smooth="yes"/>
      <point x="319.5555681047991" y="57.56359353437011"/>
      <point x="383.99918609819133" y="75.64969002401197"/>
      <point x="384.0065390299465" y="117.77888589959012" type="curve" smooth="yes"/>
      <point x="384.0132205580833" y="156.06122238695224"/>
      <point x="295.254707457663" y="177.70857708814577"/>
      <point x="251.47688699162214" y="191.53214842163592" type="curve" smooth="yes"/>
      <point x="142.16845814520036" y="226.04809388041855"/>
      <point x="63.030266859517056" y="253.70132319532007"/>
      <point x="63.046159625053505" y="344.7601626604719" type="curve" smooth="yes"/>
      <point x="63.06099238397613" y="429.7456115719899"/>
      <point x="137.78589268195893" y="481.3183386047051"/>
      <point x="268.7770563928112" y="487.9820364071821" type="curve" smooth="yes"/>
      <point x="314.9645741012845" y="490.33165795062615"/>
      <point x="358.90640753332514" y="482.58925004719464"/>
      <point x="404.1382973623851" y="489.62653200475506" type="curve" smooth="yes"/>
      <point x="470.835887958287" y="500.0034972982047"/>
      <point x="484.67184168288657" y="411.0733765036689"/>
      <point x="417.9742510869847" y="400.69641121021925" type="curve" smooth="yes"/>
      <point x="363.18706792135924" y="392.17249463158197"/>
      <point x="311.4806537126688" y="400.03804619331953"/>
      <point x="273.34956545043514" y="398.0982661206729" type="curve" smooth="yes"/>
      <point x="216.58505974135545" y="395.2105788810415"/>
      <point x="153.05258597202868" y="381.57256480253204"/>
      <point x="153.04615825427516" y="344.7444546975229" type="curve" smooth="yes"/>
      <point x="153.04026893828265" y="311.0011594673763"/>
      <point x="238.07095149225313" y="290.145583488425"/>
      <point x="278.5769211199446" y="277.35515320615605" type="curve" smooth="yes"/>
      <point x="387.9911138221982" y="242.80581105950657"/>
      <point x="474.0232368460922" y="213.44247162760863"/>
      <point x="474.00653765916815" y="117.76317793664113" type="curve" smooth="yes"/>
      <point x="473.99061827565924" y="26.551828722841112"/>
      <point x="384.9951828303279" y="-35.41628031032416"/>
      <point x="256.00186273301944" y="-29.715570984461436" type="curve" smooth="yes"/>
      <point x="200.03523305315545" y="-27.24219106438165"/>
      <point x="136.04757301931454" y="-11.204003626470424"/>
      <point x="73.08329794991461" y="41.561434668562846" type="curve" smooth="yes"/>
      <point x="21.34785221059498" y="84.91686863195334"/>
      <point x="79.15509749511557" y="153.89746295104624"/>
    </contour>
  </outline>
</glyph>
<glyph name="T" format="2">
  <advance width="498"/>
  <unicode hex="0054"/>
  <outline>
    <contour>
      <point x="445.0" y="422.0" type="curve" smooth="yes"/>
      <point x="399.0" y="390.0"/>
      <point x="256.0" y="377.0"/>
      <point x="115.0" y="390.0" type="curve" smooth="yes"/>
      <point x="-35.0" y="404.0"/>
      <point x="-20.0" y="573.0"/>
      <point x="99.0" y="574.0" type="curve" smooth="yes"/>
      <point x="281.0" y="575.0"/>
      <point x="294.0" y="438.0"/>
      <point x="294.0" y="339.0" type="curve" smooth="yes"/>
      <point x="294.0" y="255.0"/>
      <point x="294.0" y="191.0"/>
      <point x="294.0" y="141.0" type="curve" smooth="yes"/>
      <point x="294.0" y="92.0"/>
      <point x="294.0" y="98.0"/>
      <point x="294.0" y="55.0" type="curve" smooth="yes"/>
      <point x="294.0" y="-13.0"/>
      <point x="204.0" y="-12.0"/>
      <point x="204.0" y="55.0" type="curve" smooth="yes"/>
      <point x="204.0" y="98.0"/>
      <point x="204.0" y="95.0"/>
      <point x="204.0" y="140.0" type="curve" smooth="yes"/>
      <point x="204.0" y="187.0"/>
      <point x="204.0" y="292.0"/>
      <point x="204.0" y="346.0" type="curve" smooth="yes"/>
      <point x="204.0" y="398.0"/>
      <point x="173.0" y="485.0"/>
      <point x="139.0" y="487.0" type="curve" smooth="yes"/>
      <point x="103.0" y="489.0"/>
      <point x="123.0" y="478.0"/>
      <point x="151.0" y="478.0" type="curve" smooth="yes"/>
      <point x="193.0" y="475.0"/>
      <point x="370.0" y="479.0"/>
      <point x="398.0" y="498.0" type="curve" smooth="yes"/>
      <point x="454.0" y="536.0"/>
      <point x="507.0" y="464.0"/>
    </contour>
  </outline>
</glyph>
<glyph name="U" format="2">
  <advance width="668"/>
  <unicode hex="0055"/>
  <outline>
    <contour>
      <point x="160.05924177037988" y="462.13143020353397" type="curve" smooth="yes"/>
      <point x="160.05873723363462" y="424.5512560700294"/>
      <point x="160.04969102434455" y="364.9799330771024"/>
      <point x="160.04615926712808" y="344.7444546975229" type="curve" smooth="yes"/>
      <point x="160.03277600865113" y="268.0640316223195"/>
      <point x="160.0260144554127" y="229.32318507414237"/>
      <point x="160.01703370134805" y="177.86725433749768" type="curve" smooth="yes"/>
      <point x="160.0044648229085" y="105.85288519226181"/>
      <point x="234.75606313192935" y="57.161943708726845"/>
      <point x="331.3276333837434" y="65.04125743830028" type="curve" smooth="yes"/>
      <point x="431.2946410371575" y="73.19760628769805"/>
      <point x="508.00440930673824" y="105.58087765686528"/>
      <point x="508.01702840100495" y="177.88296230044662" type="curve" smooth="yes"/>
      <point x="508.02600915506974" y="229.3388930370913"/>
      <point x="508.0371732127201" y="293.3042319238272"/>
      <point x="508.046153966785" y="344.76016266047196" type="curve" smooth="yes"/>
      <point x="508.05141704596133" y="374.9153852181362"/>
      <point x="508.0584832389158" y="406.1300823298752"/>
      <point x="508.05923510736955" y="462.13263850839456" type="curve" smooth="yes"/>
      <point x="508.06014133601496" y="529.6326385023112"/>
      <point x="598.0601413279038" y="529.6314301974506"/>
      <point x="598.0592350992584" y="462.13143020353397" type="curve" smooth="yes"/>
      <point x="598.0587305625133" y="424.5512560700294"/>
      <point x="598.0496843532234" y="364.9799330771024"/>
      <point x="598.0461525960067" y="344.7444546975228" type="curve" smooth="yes"/>
      <point x="598.0327693375292" y="268.0640316223194"/>
      <point x="598.0304102887039" y="254.54767741270086"/>
      <point x="598.0170270302266" y="177.8672543374977" type="curve" smooth="yes"/>
      <point x="597.9965785298746" y="60.70597698882726"/>
      <point x="500.63710836645856" y="-11.44378143078896"/>
      <point x="338.64644976878725" y="-24.66066520955613" type="curve" smooth="yes"/>
      <point x="179.79095012127743" y="-37.62175009330699"/>
      <point x="69.9963598831519" y="59.422854811910014"/>
      <point x="70.01703507212638" y="177.88296230044665" type="curve" smooth="yes"/>
      <point x="70.0304183306033" y="254.5633853756498"/>
      <point x="70.03717988384166" y="293.30423192382716"/>
      <point x="70.04616063790642" y="344.7601626604719" type="curve" smooth="yes"/>
      <point x="70.05142371708276" y="374.9153852181362"/>
      <point x="70.05848991003718" y="406.1300823298752"/>
      <point x="70.05924177849099" y="462.13263850839456" type="curve" smooth="yes"/>
      <point x="70.06014800713635" y="529.6326385023112"/>
      <point x="160.06014799902525" y="529.6314301974506"/>
    </contour>
  </outline>
</glyph>
<glyph name="V" format="2">
  <advance width="620"/>
  <unicode hex="0056"/>
  <outline>
    <contour>
      <point x="590.8676091366601" y="441.1847729423056" type="curve" smooth="yes"/>
      <point x="566.3469982381752" y="365.5403088793612"/>
      <point x="546.6032110335343" y="318.15791889682737"/>
      <point x="522.6517871891547" y="284.6454019651071" type="curve" smooth="yes"/>
      <point x="494.8369115086439" y="245.7271940851385"/>
      <point x="454.30717733316936" y="194.24151224026514"/>
      <point x="414.4173338362773" y="134.5014487739395" type="curve" smooth="yes"/>
      <point x="329.39498630180736" y="7.169777538855254"/>
      <point x="290.99204321948355" y="-98.98448730817793"/>
      <point x="205.7867097750053" y="70.70834385289862" type="curve" smooth="yes"/>
      <point x="163.51893317354532" y="154.88780056565753"/>
      <point x="125.86144014391905" y="229.34899772248846"/>
      <point x="91.6790215802391" y="298.69305596234693" type="curve" smooth="yes"/>
      <point x="72.33178060426008" y="337.94177683677856"/>
      <point x="53.231488091114095" y="384.45626814998826"/>
      <point x="30.662330720575177" y="437.4202876730107" type="curve" smooth="yes"/>
      <point x="4.201312413943061" y="499.51750588909573"/>
      <point x="86.99760336872309" y="534.7988636312718"/>
      <point x="113.4586216753552" y="472.7016454151869" type="curve" smooth="yes"/>
      <point x="134.86098740325616" y="422.47578639702425"/>
      <point x="154.0571468965282" y="375.7052803612541"/>
      <point x="172.40416448320414" y="338.4856595878434" type="curve" smooth="yes"/>
      <point x="206.48093209644088" y="269.3559298235136"/>
      <point x="244.0798591342959" y="195.01287963066815"/>
      <point x="286.2169945769758" y="111.09360461315504" type="curve" smooth="yes"/>
      <point x="294.36848998796967" y="94.85928830255185"/>
      <point x="331.4353461127891" y="172.29754196215316"/>
      <point x="339.56933547403924" y="184.47921524230435" type="curve" smooth="yes"/>
      <point x="380.5132742835001" y="245.79791916825792"/>
      <point x="422.33140855632723" y="299.0607565794139"/>
      <point x="449.4301539566888" y="336.97696439897913" type="curve" smooth="yes"/>
      <point x="468.314169278698" y="363.39923003669395"/>
      <point x="485.92054942575186" y="409.2968135981851"/>
      <point x="505.2533287594811" y="468.937160145892" type="curve" smooth="yes"/>
      <point x="526.0676191621709" y="533.1478704287762"/>
      <point x="611.68189953935" y="505.3954832251898"/>
    </contour>
  </outline>
</glyph>
<glyph name="W" format="2">
  <advance width="888"/>
  <unicode hex="0057"/>
  <outline>
    <contour>
      <point x="123.20438995729828" y="467.8517003432719" type="curve" smooth="yes"/>
      <point x="135.29664953244597" y="427.06378393043565"/>
      <point x="161.5625200279601" y="370.0716517862869"/>
      <point x="173.51021398343602" y="341.72292593766247" type="curve" smooth="yes"/>
      <point x="208.59839806436483" y="258.4679216880419"/>
      <point x="237.57969606781705" y="191.32363884168632"/>
      <point x="273.356207729132" y="107.93667601882468" type="curve" smooth="yes"/>
      <point x="276.53445232322844" y="100.52890618595836"/>
      <point x="272.0430974807195" y="183.52435946378415"/>
      <point x="274.96950031392305" y="191.15681569019927" type="curve" smooth="yes"/>
      <point x="306.97878081701714" y="274.64136863927325"/>
      <point x="343.90951445906995" y="386.5778073122115"/>
      <point x="373.21442637048955" y="460.3584658768548" type="curve" smooth="yes"/>
      <point x="428.22007320088613" y="598.8455857217485"/>
      <point x="459.3225247695956" y="553.7550971945676"/>
      <point x="513.9386343732917" y="381.7020058047284" type="curve" smooth="yes"/>
      <point x="543.1031203934904" y="289.8272821200651"/>
      <point x="581.3653833143452" y="183.3533478529219"/>
      <point x="611.3174080175191" y="100.55130562637405" type="curve" smooth="yes"/>
      <point x="613.9427161239793" y="93.29367029644158"/>
      <point x="616.9912687330452" y="188.8699421809689"/>
      <point x="620.2029454097958" y="194.32912513528674" type="curve" smooth="yes"/>
      <point x="658.5465660092854" y="259.5053122337262"/>
      <point x="689.1050598681938" y="285.20163883045524"/>
      <point x="722.2931380414617" y="356.0608446317678" type="curve" smooth="yes"/>
      <point x="734.4699686665379" y="382.0593535772174"/>
      <point x="752.6749567571828" y="426.57730024698526"/>
      <point x="764.9180117090499" y="467.85661224753045" type="curve" smooth="yes"/>
      <point x="784.1114802641974" y="532.5702952274271"/>
      <point x="870.3963909040596" y="506.9790038205638"/>
      <point x="851.202922348912" y="442.26532084066713" type="curve" smooth="yes"/>
      <point x="837.4379861825108" y="395.8547560825797"/>
      <point x="817.4869301599822" y="347.11769469896785"/>
      <point x="803.7964503800407" y="317.88742354012294" type="curve" smooth="yes"/>
      <point x="766.8726374568953" y="239.05212475509816"/>
      <point x="732.2388162227671" y="207.2751976893772"/>
      <point x="697.7745867995231" y="148.6931694412997" type="curve" smooth="yes"/>
      <point x="627.3473413053305" y="28.981487096459016"/>
      <point x="584.2533794520467" y="-89.21210727630955"/>
      <point x="526.6843159625636" y="69.93693434069482" type="curve" smooth="yes"/>
      <point x="496.3227051286363" y="153.87127291215236"/>
      <point x="457.7201895516624" y="261.34057252788045"/>
      <point x="428.15688678692663" y="354.47165911157856" type="curve" smooth="yes"/>
      <point x="425.54693308422725" y="362.69360326307844"/>
      <point x="459.4867102161945" y="433.7539688794602"/>
      <point x="456.8581416005225" y="427.1360502133732" type="curve" smooth="yes"/>
      <point x="427.80404908594534" y="353.98687692108825"/>
      <point x="391.2891039862116" y="243.139598236218"/>
      <point x="359.00433991088187" y="158.93654669825264" type="curve" smooth="yes"/>
      <point x="299.70978628265533" y="4.288293936404714"/>
      <point x="255.04460670917595" y="-77.64461510668404"/>
      <point x="190.6472543043583" y="72.45105888485587" type="curve" smooth="yes"/>
      <point x="154.77775658792567" y="156.054751186392"/>
      <point x="125.7543318933547" y="223.2981073542507"/>
      <point x="90.57495077650977" y="306.7694981115126" type="curve" smooth="yes"/>
      <point x="76.8570052275355" y="339.31856398342427"/>
      <point x="50.80049727086843" y="395.4389012350527"/>
      <point x="36.91656627681156" y="442.2702327449257" type="curve" smooth="yes"/>
      <point x="17.73046557805187" y="506.9861005052907"/>
      <point x="104.01828925853859" y="532.5675681036369"/>
    </contour>
  </outline>
</glyph>
<glyph name="X" format="2">
  <advance width="617"/>
  <unicode hex="0058"/>
  <outline>
    <contour>
      <point x="140.4131465203519" y="485.6687710910574" type="curve" smooth="yes"/>
      <point x="161.23129013032346" y="451.7449051807657"/>
      <point x="183.6947787928769" y="423.03957955894407"/>
      <point x="204.74609888136717" y="402.15178205361417" type="curve" smooth="yes"/>
      <point x="245.98745266984486" y="361.23078312536245"/>
      <point x="294.4352082425227" y="332.3762891550429"/>
      <point x="340.8105740834705" y="286.09459927444476" type="curve" smooth="yes"/>
      <point x="388.7968350843539" y="238.2052681629828"/>
      <point x="431.42856330993357" y="177.87427678814933"/>
      <point x="474.7269636545901" y="134.83808982820472" type="curve" smooth="yes"/>
      <point x="503.3433403313945" y="106.39501278664973"/>
      <point x="532.5297483421762" y="77.04060228401896"/>
      <point x="561.4114163938425" y="48.86694621573513" type="curve" smooth="yes"/>
      <point x="609.7296924047862" y="1.7331557535809239"/>
      <point x="546.8846384552473" y="-62.691212261010726"/>
      <point x="498.5663624443036" y="-15.557421798856517" type="curve" smooth="yes"/>
      <point x="469.46488130283404" y="12.83065880960071"/>
      <point x="440.11510138932795" y="42.345937102743264"/>
      <point x="411.28093070682223" y="71.00548919819154" type="curve" smooth="yes"/>
      <point x="364.0901295349054" y="117.91050476130849"/>
      <point x="321.26358459294926" y="178.45136809772836"/>
      <point x="277.23533569142654" y="222.39068209979382" type="curve" smooth="yes"/>
      <point x="235.78059516523197" y="263.76168608700027"/>
      <point x="187.49175461306044" y="292.4862537600023"/>
      <point x="141.3551042459431" y="338.264523549812" type="curve" smooth="yes"/>
      <point x="115.90760599696436" y="363.5143505538925"/>
      <point x="88.8709638309749" y="397.5870608584302"/>
      <point x="63.70533664774721" y="438.5952976208711" type="curve" smooth="yes"/>
      <point x="28.400231545107495" y="496.12615502532464"/>
      <point x="105.10804141771217" y="543.1996284955109"/>
    </contour>
    <contour>
      <point x="553.4295519516642" y="408.6521994963081" type="curve" smooth="yes"/>
      <point x="529.495427551635" y="385.38567252963907"/>
      <point x="505.403399761676" y="361.53400428589555"/>
      <point x="481.60676355543524" y="338.1268751762709" type="curve" smooth="yes"/>
      <point x="440.37192188714846" y="297.5669719034126"/>
      <point x="390.45336341127893" y="206.80055166870878"/>
      <point x="340.336760791196" y="158.27438898730617" type="curve" smooth="yes"/>
      <point x="287.44989370467636" y="107.06587560492154"/>
      <point x="246.26037085699235" y="108.55302933240945"/>
      <point x="207.41011176563705" y="70.69364837071976" type="curve" smooth="yes"/>
      <point x="177.71997160273364" y="41.760756968627625"/>
      <point x="147.6693482893411" y="11.998398052023747"/>
      <point x="119.40594105066693" y="-15.562768574966938" type="curve" smooth="yes"/>
      <point x="71.07964487555756" y="-62.68833592429027"/>
      <point x="8.245555076459787" y="1.7467256425222217"/>
      <point x="56.57185125156916" y="48.872292991845555" type="curve" smooth="yes"/>
      <point x="85.50673439156446" y="77.0882518399594"/>
      <point x="115.5930351384707" y="106.88494305230738"/>
      <point x="144.59779072906036" y="135.14993065567649" type="curve" smooth="yes"/>
      <point x="196.29816807608748" y="185.53168685559191"/>
      <point x="237.9895064149709" y="184.45101433828185"/>
      <point x="277.73136339827903" y="222.9316717733539" type="curve" smooth="yes"/>
      <point x="319.75304338258485" y="263.6198025016553"/>
      <point x="369.3162408578251" y="353.916196529938"/>
      <point x="418.4944311339725" y="402.28943042715525" type="curve" smooth="yes"/>
      <point x="442.42427160672577" y="425.827583494838"/>
      <point x="466.62822495566155" y="449.78869845553027"/>
      <point x="490.6963232273627" y="473.18546234442755" type="curve" smooth="yes"/>
      <point x="539.0962703634523" y="520.2353838876537"/>
      <point x="601.8294990877537" y="455.7021210395343"/>
    </contour>
  </outline>
</glyph>
<glyph name="Y" format="2">
  <advance width="582"/>
  <unicode hex="0059"/>
  <outline>
    <contour>
      <point x="541.6555652543967" y="433.678067277198" type="curve" smooth="yes"/>
      <point x="519.4551158864933" y="392.5690992806573"/>
      <point x="498.3683565666222" y="363.57065985997826"/>
      <point x="476.26531791064275" y="333.5996919478892" type="curve" smooth="yes"/>
      <point x="435.87379296259274" y="278.83015926144736"/>
      <point x="406.56846998031796" y="244.93109529579124"/>
      <point x="367.9053238033164" y="193.8503692357165" type="curve" smooth="yes"/>
      <point x="352.3732585268968" y="173.3298154271925"/>
      <point x="336.0119568642056" y="148.79823139129618"/>
      <point x="336.0071572926415" y="121.29871184257392" type="curve" smooth="yes"/>
      <point x="336.00493733096266" y="108.57926828969542"/>
      <point x="336.00351903367795" y="100.45302339832122"/>
      <point x="335.99765445973867" y="66.85148969120975" type="curve" smooth="yes"/>
      <point x="335.97130246634265" y="-84.13431140956342"/>
      <point x="245.9558783234432" y="-2.7946594679363255"/>
      <point x="245.98333987445568" y="154.54843852129054" type="curve" smooth="yes"/>
      <point x="245.98666981697403" y="173.6276038506082"/>
      <point x="245.9890138722283" y="187.05805121977272"/>
      <point x="245.99247246711553" y="206.87434032909505" type="curve" smooth="yes"/>
      <point x="245.9980003070788" y="238.5465304621118"/>
      <point x="196.27052015592815" y="250.87782216109534"/>
      <point x="173.66214546740858" y="270.35197076146983" type="curve" smooth="yes"/>
      <point x="126.05853092837208" y="311.35623914520664"/>
      <point x="104.53384465753041" y="348.7380464988613"/>
      <point x="44.274448499577744" y="427.7780002280423" type="curve" smooth="yes"/>
      <point x="3.34999902549297" y="481.45704115877317"/>
      <point x="74.92205359980082" y="536.0229737908862"/>
      <point x="115.8465030738856" y="482.3439328601553" type="curve" smooth="yes"/>
      <point x="165.25384572017586" y="417.53820419987574"/>
      <point x="193.36858919566902" y="372.16232483690374"/>
      <point x="232.3993170935572" y="338.54247354125846" type="curve" smooth="yes"/>
      <point x="314.0306815561761" y="268.2277630015574"/>
      <point x="336.01243029840055" y="321.21643701587726"/>
      <point x="335.99247109633717" y="206.85863236614614" type="curve" smooth="yes"/>
      <point x="335.99015022730913" y="193.56103228813683"/>
      <point x="335.98830083547205" y="182.9647975412821"/>
      <point x="335.9833385036773" y="154.53273055834163" type="curve" smooth="yes"/>
      <point x="335.98241702813857" y="149.2530646018332"/>
      <point x="245.9967715863132" y="61.800851534276816"/>
      <point x="245.99765583051703" y="66.86719765415863" type="curve" smooth="yes"/>
      <point x="246.00159121712963" y="89.41530213426144"/>
      <point x="246.0038504422232" y="102.35970848356253"/>
      <point x="246.0071586634199" y="121.3144198055228" type="curve" smooth="yes"/>
      <point x="246.01584483497723" y="171.08251709479856"/>
      <point x="268.03416290162835" y="211.0291742986937"/>
      <point x="296.1437934866525" y="248.16687470698665" type="curve" smooth="yes"/>
      <point x="335.4534297057473" y="300.10172631053246"/>
      <point x="364.10516898258413" y="333.1488226087201"/>
      <point x="403.83242097470094" y="387.0176237823137" type="curve" smooth="yes"/>
      <point x="423.53105269084296" y="413.72829774282974"/>
      <point x="442.67992754259944" y="439.80680276286284"/>
      <point x="462.4653734642116" y="476.44386581099957" type="curve" smooth="yes"/>
      <point x="494.5397223645628" y="535.8365096536384"/>
      <point x="573.7299141547479" y="493.0707111198368"/>
    </contour>
  </outline>
</glyph>
<glyph name="Z" format="2">
  <advance width="595"/>
  <unicode hex="005A"/>
  <outline>
    <contour>
      <point x="114.91573763505805" y="495.432853938566" type="curve" smooth="yes"/>
      <point x="173.56054825603985" y="482.2688795601393"/>
      <point x="278.8723054359451" y="482.38329701443513"/>
      <point x="357.06232286799593" y="482.38329701443513" type="curve" smooth="yes"/>
      <point x="596.8946191834905" y="482.38329701443513"/>
      <point x="588.7471767090562" y="552.8509751776484"/>
      <point x="458.8688817000081" y="394.04539030703813" type="curve" smooth="yes"/>
      <point x="372.1593059149365" y="288.0233263780995"/>
      <point x="289.1917310897587" y="207.79220676461577"/>
      <point x="202.37752593881703" y="144.95717785328998" type="curve" smooth="yes"/>
      <point x="144.68673402003466" y="103.20130884739089"/>
      <point x="136.2866438978681" y="65.1902961143721"/>
      <point x="274.9895102024772" y="65.19029611437207" type="curve" smooth="yes"/>
      <point x="334.57678802581694" y="65.19029611437207"/>
      <point x="441.38316776142364" y="65.16855196604507"/>
      <point x="475.31276933595916" y="76.87259887245521" type="curve" smooth="yes"/>
      <point x="539.1230200374874" y="98.88400285784674"/>
      <point x="568.4715586846761" y="13.803668589142362"/>
      <point x="504.6613079831478" y="-8.207735396249163" type="curve" smooth="yes"/>
      <point x="457.00287922968073" y="-24.647553718047995"/>
      <point x="358.6873994487809" y="-24.809703885627933"/>
      <point x="274.9895102024772" y="-24.809703885627926" type="curve" smooth="yes"/>
      <point x="13.757952575082381" y="-24.8097038856279"/>
      <point x="40.95416207549057" y="139.22153062738855"/>
      <point x="149.60840863305185" y="217.86410659651983" type="curve" smooth="yes"/>
      <point x="230.87115086392325" y="276.68105652553766"/>
      <point x="308.0364097211588" y="351.7803928794947"/>
      <point x="389.2012132659166" y="451.0227189119971" type="curve" smooth="yes"/>
      <point x="395.695213196654" y="458.96310230768756"/>
      <point x="369.05409497705307" y="392.38329701443513"/>
      <point x="357.06232286799593" y="392.38329701443513" type="curve" smooth="yes"/>
      <point x="267.33202826883974" y="392.38329701443513"/>
      <point x="162.5043368382282" y="392.511130205549"/>
      <point x="95.20397924071985" y="407.6180113377662" type="curve" smooth="yes"/>
      <point x="29.342847290120005" y="422.4018301335198"/>
      <point x="49.05460568445821" y="510.2166727343196"/>
    </contour>
  </outline>
</glyph>
<glyph name="bracketleft" format="2">
  <advance width="430"/>
  <unicode hex="005B"/>
  <outline>
    <contour>
      <point x="327" y="461" type="curve" smooth="yes"/>
      <point x="187" y="520"/>
      <point x="203" y="476"/>
      <point x="203" y="386" type="curve" smooth="yes"/>
      <point x="203" y="200"/>
      <point x="203" y="146"/>
      <point x="203" y="21" type="curve" smooth="yes"/>
      <point x="203" y="-13"/>
      <point x="312" y="-25"/>
      <point x="363" y="-48" type="curve" smooth="yes"/>
      <point x="425" y="-75"/>
      <point x="389" y="-157"/>
      <point x="327" y="-130" type="curve" smooth="yes"/>
      <point x="91" y="-27"/>
      <point x="113" y="-134"/>
      <point x="113" y="21" type="curve" smooth="yes"/>
      <point x="113" y="207"/>
      <point x="113" y="261"/>
      <point x="113" y="386" type="curve" smooth="yes"/>
      <point x="113" y="529"/>
      <point x="139" y="638"/>
      <point x="363" y="543" type="curve" smooth="yes"/>
      <point x="425" y="517"/>
      <point x="390" y="434"/>
    </contour>
  </outline>
</glyph>
<glyph name="backslash" format="2">
  <advance width="490"/>
  <unicode hex="005C"/>
  <outline>
    <contour>
      <point x="358" y="-103" type="curve" smooth="yes"/>
      <point x="341" y="-83"/>
      <point x="323" y="-53"/>
      <point x="304" y="-13" type="curve" smooth="yes"/>
      <point x="241" y="122"/>
      <point x="176" y="266"/>
      <point x="108" y="410" type="curve" smooth="yes"/>
      <point x="95" y="439"/>
      <point x="81" y="471"/>
      <point x="69" y="516" type="curve" smooth="yes"/>
      <point x="50" y="581"/>
      <point x="137" y="605"/>
      <point x="155" y="540" type="curve" smooth="yes"/>
      <point x="167" y="501"/>
      <point x="179" y="473"/>
      <point x="190" y="448" type="curve" smooth="yes"/>
      <point x="256" y="309"/>
      <point x="321" y="164"/>
      <point x="386" y="25" type="curve" smooth="yes"/>
      <point x="399" y="-3"/>
      <point x="413" y="-29"/>
      <point x="426" y="-43" type="curve" smooth="yes"/>
      <point x="470" y="-94"/>
      <point x="403" y="-153"/>
    </contour>
  </outline>
</glyph>
<glyph name="bracketright" format="2">
  <advance width="430"/>
  <unicode hex="005D"/>
  <outline>
    <contour>
      <point x="100.0" y="461.0" type="curve" smooth="yes"/>
      <point x="41" y="440"/>
      <point x="1" y="520"/>
      <point x="71.0" y="545.0" type="curve" smooth="yes"/>
      <point x="279.0" y="619.0"/>
      <point x="317.0" y="529.0"/>
      <point x="317.0" y="389.0" type="curve" smooth="yes"/>
      <point x="317.0" y="261.0"/>
      <point x="317.0" y="233.0"/>
      <point x="317.0" y="37.0" type="curve" smooth="yes"/>
      <point x="317.0" y="-108.0"/>
      <point x="276.0" y="-73.0"/>
      <point x="96.0" y="-132.0" type="curve" smooth="yes"/>
      <point x="37" y="-151"/>
      <point x="14" y="-72"/>
      <point x="66.0" y="-51.0" type="curve" smooth="yes"/>
      <point x="176.0" y="-7.0"/>
      <point x="227.0" y="-28.0"/>
      <point x="227.0" y="41.0" type="curve" smooth="yes"/>
      <point x="227.0" y="131.0"/>
      <point x="227.0" y="203.0"/>
      <point x="227.0" y="385.0" type="curve" smooth="yes"/>
      <point x="227.0" y="479.0"/>
      <point x="227.0" y="506.0"/>
    </contour>
  </outline>
</glyph>
<glyph name="asciicircum" format="2">
  <advance width="560"/>
  <unicode hex="005E"/>
  <outline>
    <contour>
      <point x="75" y="230" type="curve" smooth="yes"/>
      <point x="107" y="277"/>
      <point x="142" y="324"/>
      <point x="182" y="386" type="curve" smooth="yes"/>
      <point x="257" y="499"/>
      <point x="294" y="503"/>
      <point x="375" y="384" type="curve" smooth="yes"/>
      <point x="403" y="343"/>
      <point x="438" y="298"/>
      <point x="461" y="291" type="curve" smooth="yes"/>
      <point x="525" y="269"/>
      <point x="497" y="184"/>
      <point x="433" y="205" type="curve" smooth="yes"/>
      <point x="391" y="219"/>
      <point x="351" y="259"/>
      <point x="301" y="334" type="curve" smooth="yes"/>
      <point x="274" y="373"/>
      <point x="282" y="374"/>
      <point x="258" y="336" type="curve" smooth="yes"/>
      <point x="216" y="274"/>
      <point x="181" y="226"/>
      <point x="149" y="180" type="curve" smooth="yes"/>
      <point x="111" y="124"/>
      <point x="37" y="175"/>
    </contour>
  </outline>
</glyph>
<glyph name="underscore" format="2">
  <advance width="535"/>
  <unicode hex="005F"/>
  <outline>
    <contour>
      <point x="537" y="-109" type="curve" smooth="yes"/>
      <point x="319" y="-109"/>
      <point x="144" y="-109"/>
      <point x="-2" y="-109" type="curve" smooth="yes"/>
      <point x="-70" y="-109"/>
      <point x="-69" y="-19"/>
      <point x="-2" y="-19" type="curve" smooth="yes"/>
      <point x="216" y="-19"/>
      <point x="391" y="-19"/>
      <point x="537" y="-19" type="curve" smooth="yes"/>
      <point x="605" y="-19"/>
      <point x="605" y="-109"/>
    </contour>
  </outline>
</glyph>
<glyph name="grave" format="2">
  <advance width="408"/>
  <unicode hex="0060"/>
  <outline>
    <contour>
      <point x="214.55939666018162" y="468.1639822842227" type="curve" smooth="yes"/>
      <point x="123.57494813639552" y="557.2594367137277" type="line" smooth="yes"/>
      <point x="75.34722075267291" y="604.4858732869155"/>
      <point x="138.31580285025663" y="668.7895097985457"/>
      <point x="186.54353023397925" y="621.5630732253579" type="curve" smooth="yes"/>
      <point x="277.52797875776537" y="532.4676187958529" type="line" smooth="yes"/>
      <point x="325.755706141488" y="485.2411822226651"/>
      <point x="262.78712404390427" y="420.9375457110349"/>
    </contour>
  </outline>
</glyph>
<glyph name="b" format="2">
  <advance width="584"/>
  <unicode hex="0062"/>
  <outline>
    <contour>
      <point x="65.98643150979898" y="36.473260356692236" type="curve" smooth="yes"/>
      <point x="65.99781552829901" y="62.73292624636197"/>
      <point x="65.99633250238246" y="59.26929068396897"/>
      <point x="66.01481305189547" y="165.1550402390888" type="curve" smooth="yes"/>
      <point x="66.03414962773435" y="275.94545938164384"/>
      <point x="162.1477408862086" y="360.760930650349"/>
      <point x="305.041096468968" y="360.76093065034894" type="curve" smooth="yes"/>
      <point x="446.82267687923076" y="360.7609306503489"/>
      <point x="546.0339148314977" y="274.62635597306905"/>
      <point x="546.0145589142488" y="163.72511871376673" type="curve" smooth="yes"/>
      <point x="545.9944278696837" y="48.38272905159965"/>
      <point x="437.806430980733" y="-15.846978390534728"/>
      <point x="295.52419188339167" y="18.141042915480334" type="curve" smooth="yes"/>
      <point x="153.63008324973993" y="52.03634859828705"/>
      <point x="77.56377629920146" y="151.69323401358548"/>
      <point x="71.23834290305265" y="212.07776891334123" type="curve" smooth="yes"/>
      <point x="56.7983379261006" y="349.9265027272627"/>
      <point x="66.03954825072951" y="306.87729081948885"/>
      <point x="66.05887164080853" y="417.5921611226863" type="curve" smooth="yes"/>
      <point x="66.06258185157886" y="438.8501030551365"/>
      <point x="66.06500701918772" y="456.1910823921128"/>
      <point x="66.06800372788686" y="489.713221593284" type="curve" smooth="yes"/>
      <point x="66.07403788445335" y="557.2132213235725"/>
      <point x="156.07403752483805" y="557.2051757814838"/>
      <point x="156.06800336827158" y="489.70517605119534" type="curve" smooth="yes"/>
      <point x="156.0658196148063" y="465.277013359231"/>
      <point x="156.06157396479674" y="433.06748315951944"/>
      <point x="156.05887027003018" y="417.5764531597373" type="curve" smooth="yes"/>
      <point x="156.04096253356443" y="314.9726806266795"/>
      <point x="147.36646690600836" y="349.20397188708273"/>
      <point x="160.74858063629577" y="221.45419365512333" type="curve" smooth="yes"/>
      <point x="164.39966987879302" y="186.5997715186213"/>
      <point x="234.5324538152887" y="125.24278296566402"/>
      <point x="316.4348344365889" y="105.67814949327635" type="curve" smooth="yes"/>
      <point x="390.44768076258254" y="87.99814801307964"/>
      <point x="456.0040884515979" y="103.74164044589976"/>
      <point x="456.0145602850272" y="163.7408266767157" type="curve" smooth="yes"/>
      <point x="456.0259513117975" y="229.00660283396303"/>
      <point x="388.4800654016685" y="270.7609306503489"/>
      <point x="305.041096468968" y="270.76093065034894" type="curve" smooth="yes"/>
      <point x="220.69632047580336" y="270.760930650349"/>
      <point x="156.0262253619769" y="230.53490680553438"/>
      <point x="156.01481168111712" y="165.13933227613978" type="curve" smooth="yes"/>
      <point x="156.00219826248687" y="92.86976663478482"/>
      <point x="155.99419291850162" y="54.35709608568908"/>
      <point x="155.98642305262536" y="36.43424380663302" type="curve" smooth="yes"/>
      <point x="155.95716064008093" y="-31.065749850486768"/>
      <point x="65.95716909725455" y="-31.02673330042755"/>
    </contour>
  </outline>
</glyph>
<glyph name="c" format="2">
  <advance width="475"/>
  <unicode hex="0063"/>
  <outline>
    <contour>
      <point x="425.11887427824354" y="25.172206144255924" type="curve" smooth="yes"/>
      <point x="385.22901511200547" y="-13.042599085395148"/>
      <point x="326.04978453547847" y="-32.114767833505"/>
      <point x="278.4331627479841" y="-32.58567803780346" type="curve" smooth="yes"/>
      <point x="145.10324208838497" y="-33.904260033332555"/>
      <point x="38.99391928727018" y="45.444986342047265"/>
      <point x="39.0145658062179" y="163.74082667671573" type="curve" smooth="yes"/>
      <point x="39.03492219232548" y="280.37432827907793"/>
      <point x="142.83340692291844" y="360.0538238691624"/>
      <point x="275.04097268239735" y="360.0538238691624" type="curve" smooth="yes"/>
      <point x="314.52268394075713" y="360.0538238691624"/>
      <point x="363.7680178482774" y="360.03795443281734"/>
      <point x="397.0102609965502" y="357.83391868106617" type="curve" smooth="yes"/>
      <point x="464.3623837297453" y="353.36832092347305"/>
      <point x="458.40825338628775" y="263.56549061254617"/>
      <point x="391.0561306530926" y="268.0310883701393" type="curve" smooth="yes"/>
      <point x="360.341526653109" y="270.0675359412282"/>
      <point x="311.5206145986567" y="270.0538238691624"/>
      <point x="275.04097268239735" y="270.0538238691624" type="curve" smooth="yes"/>
      <point x="197.81877235200216" y="270.0538238691624"/>
      <point x="129.0264545637917" y="231.850536304154"/>
      <point x="129.01456443543958" y="163.7251187137667" type="curve" smooth="yes"/>
      <point x="129.0024806976935" y="94.49040100304452"/>
      <point x="199.50946343868955" y="56.638197814598975"/>
      <point x="277.5431406427654" y="57.40992108044355" type="curve" smooth="yes"/>
      <point x="303.9055289751311" y="57.67063503303753"/>
      <point x="340.77385672944354" y="69.00452284560147"/>
      <point x="362.8584128862585" y="90.16170489026219" type="curve" smooth="yes"/>
      <point x="411.6005369457632" y="136.8570509342509"/>
      <point x="473.86099833774824" y="71.86755218824464"/>
    </contour>
  </outline>
</glyph>
<glyph name="e" format="2">
  <advance width="548"/>
  <unicode hex="0065"/>
  <outline>
    <contour>
      <point x="180.7632854029764" y="253.8642011091879" type="curve" smooth="yes"/>
      <point x="234.90239474257262" y="225.71812881392023"/>
      <point x="272.74118203218757" y="258.93755415948607"/>
      <point x="367.0060458408308" y="258.93755415948607" type="curve" smooth="yes"/>
      <point x="372.96422192017366" y="258.93755415948607"/>
      <point x="413.4420484089338" y="201.14608826002447"/>
      <point x="412.5908208010172" y="204.28663397770964" type="curve" smooth="yes"/>
      <point x="400.80880430722664" y="247.755573543511"/>
      <point x="344.8467311807434" y="270.76093065034894"/>
      <point x="282.04109654512234" y="270.76093065034894" type="curve" smooth="yes"/>
      <point x="197.44284282282592" y="270.76093065034894"/>
      <point x="129.0263793086914" y="231.41617111301736"/>
      <point x="129.01456499136634" y="163.72511871376673" type="curve" smooth="yes"/>
      <point x="129.0021703848579" y="92.70925418729863"/>
      <point x="203.94743445628885" y="57.41212152132006"/>
      <point x="290.98815205330027" y="57.412121521320046" type="curve" smooth="yes"/>
      <point x="332.6167245328425" y="57.41212152132004"/>
      <point x="377.42882430579505" y="65.65010779913683"/>
      <point x="423.2203567837785" y="101.56184033361188" type="curve" smooth="yes"/>
      <point x="476.3347619469499" y="143.21649150442923"/>
      <point x="531.874296841373" y="72.39728462020074"/>
      <point x="478.75989167820165" y="30.742633449383383" type="curve" smooth="yes"/>
      <point x="414.5676684706368" y="-19.599729556959762"/>
      <point x="349.34458766077597" y="-32.58787847867996"/>
      <point x="290.98815205330027" y="-32.587878478679954" type="curve" smooth="yes"/>
      <point x="145.14063730044032" y="-32.58787847867994"/>
      <point x="38.993797662098245" y="44.74494020935978"/>
      <point x="39.01456636214466" y="163.7408266767157" type="curve" smooth="yes"/>
      <point x="39.03448157289567" y="277.8465796706781"/>
      <point x="139.43513754744868" y="360.76093065034894"/>
      <point x="282.04109654512234" y="360.76093065034894" type="curve" smooth="yes"/>
      <point x="396.1040531340911" y="360.76093065034894"/>
      <point x="478.05893593435536" y="306.7761936893717"/>
      <point x="499.45656440604563" y="227.83111502838182" type="curve" smooth="yes"/>
      <point x="521.5246340492761" y="146.41248977344048"/>
      <point x="521.4717180567169" y="168.93755415948607"/>
      <point x="367.0060458408308" y="168.93755415948607" type="curve" smooth="yes"/>
      <point x="304.82516540658725" y="168.93755415948607"/>
      <point x="221.53855150034374" y="131.22976490908036"/>
      <point x="139.2488125842657" y="174.01090720978425" type="curve" smooth="yes"/>
      <point x="79.35884215971296" y="205.14676182381726"/>
      <point x="120.87331497842368" y="285.0000557232209"/>
    </contour>
  </outline>
</glyph>
<glyph name="f" format="2">
  <advance width="364"/>
  <unicode hex="0066"/>
  <outline>
    <contour>
      <point x="343.38594677519256" y="464.11737077599395" type="curve" smooth="yes"/>
      <point x="293.14356973854836" y="458.1288483892491"/>
      <point x="208.06257917853307" y="438.84107081604725"/>
      <point x="208.0560292940997" y="401.3129971924467" type="curve" smooth="yes"/>
      <point x="208.03497697739448" y="280.6921069617898"/>
      <point x="208.01619497120075" y="173.07913784647775"/>
      <point x="208.00802147592833" y="126.24845931087971" type="curve" smooth="yes"/>
      <point x="208.00159971416977" y="89.45447454364934"/>
      <point x="207.99370584604915" y="48.4627700933376"/>
      <point x="207.98604913010624" y="32.89608423027859" type="curve" smooth="yes"/>
      <point x="207.9528482119293" y="-34.60390760452857"/>
      <point x="117.95285909885311" y="-34.55963971362591"/>
      <point x="117.98606001703004" y="32.94035212118125" type="curve" smooth="yes"/>
      <point x="117.99538318585662" y="51.895063443141595"/>
      <point x="118.00020341478759" y="81.46212233101342"/>
      <point x="118.00802284670665" y="126.26416727382868" type="curve" smooth="yes"/>
      <point x="118.02020311565754" y="196.05196805013725"/>
      <point x="118.04190363601215" y="320.3867916370783"/>
      <point x="118.05603066487804" y="401.3287051553957" type="curve" smooth="yes"/>
      <point x="118.07187853458827" y="492.1303104835491"/>
      <point x="211.16932019980004" y="538.9951751810453"/>
      <point x="332.73400631149696" y="553.4847930525589" type="curve" smooth="yes"/>
      <point x="399.7595730189207" y="561.4737484003305"/>
      <point x="410.41151348261633" y="472.1063261237656"/>
    </contour>
    <contour>
      <point x="309.0349240619326" y="291.97413408594537" type="curve" smooth="yes"/>
      <point x="267.6388866216767" y="291.97413408594537"/>
      <point x="233.39745507069765" y="299.5458135121294"/>
      <point x="202.84506624583298" y="313.9471636967495" type="curve" smooth="yes"/>
      <point x="177.22466380446986" y="326.0237443380866"/>
      <point x="156.30866404634176" y="326.5682704834221"/>
      <point x="130.63142046230658" y="314.1443164805404" type="curve" smooth="yes"/>
      <point x="103.71969165276812" y="301.1230558544342"/>
      <point x="86.7819821323705" y="291.97413408594537"/>
      <point x="57.03492790011206" y="291.97413408594537" type="curve" smooth="yes"/>
      <point x="-10.46507209988794" y="291.97413408594537"/>
      <point x="-10.465072099887927" y="381.97413408594537"/>
      <point x="57.03492790011207" y="381.97413408594537" type="curve" smooth="yes"/>
      <point x="67.3221619874447" y="381.97413408594537"/>
      <point x="82.12555144682949" y="390.6562312165454"/>
      <point x="91.43226302226736" y="395.15929075067777" type="curve" smooth="yes"/>
      <point x="141.7422854335852" y="419.5018336827697"/>
      <point x="191.0199616231266" y="419.018369734971"/>
      <point x="241.21861385748764" y="395.35644353446867" type="curve" smooth="yes"/>
      <point x="260.8107170094434" y="386.1213968099098"/>
      <point x="282.48919501073414" y="381.97413408594537"/>
      <point x="309.0349240619326" y="381.97413408594537" type="curve" smooth="yes"/>
      <point x="376.5349240619326" y="381.97413408594537"/>
      <point x="376.5349240619326" y="291.97413408594537"/>
    </contour>
  </outline>
</glyph>
<glyph name="j" format="2">
  <advance width="245"/>
  <unicode hex="006A"/>
  <outline>
    <contour>
      <point x="174.0" y="333.0" type="curve" smooth="yes"/>
      <point x="174.0" y="278.0"/>
      <point x="174.0" y="257.0"/>
      <point x="174.0" y="179.0" type="curve" smooth="yes"/>
      <point x="174.0" y="132.0"/>
      <point x="174.0" y="46.0"/>
      <point x="174.0" y="-26.0" type="curve" smooth="yes"/>
      <point x="174.0" y="-130.0"/>
      <point x="80.0" y="-129.0"/>
      <point x="-25.0" y="-101.0" type="curve" smooth="yes"/>
      <point x="-94.0" y="-83.0"/>
      <point x="-72.0" y="6.0"/>
      <point x="1.0" y="-15.0" type="curve" smooth="yes"/>
      <point x="54.0" y="-30.0"/>
      <point x="84.0" y="-40.0"/>
      <point x="84.0" y="-4.0" type="curve" smooth="yes"/>
      <point x="84.0" y="75.0"/>
      <point x="84.0" y="141.0"/>
      <point x="84.0" y="189.0" type="curve" smooth="yes"/>
      <point x="84.0" y="225.0"/>
      <point x="84.0" y="290.0"/>
      <point x="84.0" y="338.0" type="curve" smooth="yes"/>
      <point x="84.0" y="393.0"/>
      <point x="174.0" y="399.0"/>
    </contour>
    <contour>
      <point x="84.0" y="440.0" type="curve" smooth="yes"/>
      <point x="84.0" y="458.0"/>
      <point x="84.0" y="458.0"/>
      <point x="84.0" y="480.0" type="curve" smooth="yes"/>
      <point x="84.0" y="543.0"/>
      <point x="174.0" y="543.0"/>
      <point x="174.0" y="480.0" type="curve" smooth="yes"/>
      <point x="174.0" y="458.0"/>
      <point x="174.0" y="458.0"/>
      <point x="174.0" y="440.0" type="curve" smooth="yes"/>
      <point x="174.0" y="387.0"/>
      <point x="84.0" y="387.0"/>
    </contour>
  </outline>
</glyph>
<glyph name="k" format="2">
  <advance width="501"/>
  <unicode hex="006B"/>
  <outline>
    <contour>
      <point x="160.06726219122055" y="493.94777710510266" type="curve" smooth="yes"/>
      <point x="160.06423497074934" y="460.41469864751406"/>
      <point x="160.05775589673888" y="411.1955351120997"/>
      <point x="160.05331597338107" y="385.75664800634263" type="curve" smooth="yes"/>
      <point x="160.03391776727415" y="274.6131134366661"/>
      <point x="160.02458294790225" y="221.12853791326557"/>
      <point x="160.00518474179535" y="109.98500334358911" type="curve" smooth="yes"/>
      <point x="159.99975365892564" y="78.86719052388096"/>
      <point x="159.99358318106707" y="51.99840402751135"/>
      <point x="159.9864240263753" y="30.781713468619422" type="curve" smooth="yes"/>
      <point x="159.96364748104904" y="-36.71828268863219"/>
      <point x="69.96365260471352" y="-36.68791396153052"/>
      <point x="69.98642915003978" y="30.812082195721096" type="curve" smooth="yes"/>
      <point x="69.99473884125848" y="55.43847383209971"/>
      <point x="69.99888220889056" y="73.88200357318277"/>
      <point x="70.0051861125737" y="110.00071130653808" type="curve" smooth="yes"/>
      <point x="70.01820316060012" y="184.58290304841654"/>
      <point x="70.04030029613295" y="311.1901642274134"/>
      <point x="70.0533173441594" y="385.77235596929165" type="curve" smooth="yes"/>
      <point x="70.0599337865525" y="423.68177861321243"/>
      <point x="70.06275134723424" y="443.98439024662883"/>
      <point x="70.06726255795672" y="493.9559019136152" type="curve" smooth="yes"/>
      <point x="70.07335616434115" y="561.4559016385631"/>
      <point x="160.073355797605" y="561.4477768300505"/>
    </contour>
    <contour>
      <point x="435.63453880590373" y="272.7450662055466" type="curve" smooth="yes"/>
      <point x="377.63486840751597" y="241.02171323837533"/>
      <point x="312.61199172704397" y="215.39156440065184"/>
      <point x="246.8538971814602" y="206.79397641176882" type="curve" smooth="yes"/>
      <point x="240.37279148012848" y="205.94659972122597"/>
      <point x="263.4986204515626" y="197.49500249578344"/>
      <point x="269.76084223098394" y="191.6314512370764" type="curve" smooth="yes"/>
      <point x="329.42442640977697" y="135.76621738985705"/>
      <point x="393.1727103632605" y="89.40534345386462"/>
      <point x="448.0503212032919" y="54.681693923674175" type="curve" smooth="yes"/>
      <point x="505.0907187761442" y="18.58954734396866"/>
      <point x="456.96785666987023" y="-57.46431608650107"/>
      <point x="399.92745909701796" y="-21.372169506795558" type="curve" smooth="yes"/>
      <point x="340.80042307307116" y="16.04029151741505"/>
      <point x="272.53041898722216" y="65.74386400503302"/>
      <point x="208.24680975101413" y="125.93499921679435" type="curve" smooth="yes"/>
      <point x="88.78895172886092" y="237.78783650690767"/>
      <point x="111.55281128677079" y="279.8699314807124"/>
      <point x="235.18608905416673" y="296.0344507129774" type="curve" smooth="yes"/>
      <point x="289.55695631203065" y="303.14320771866164"/>
      <point x="344.4904580210397" y="325.4758581687424"/>
      <point x="392.44641541339683" y="351.70572728328585" type="curve" smooth="yes"/>
      <point x="451.66691122170124" y="384.096819827666"/>
      <point x="494.85503461420814" y="305.1361587499268"/>
    </contour>
  </outline>
</glyph>
<glyph name="l" format="2">
  <advance width="231"/>
  <unicode hex="006C"/>
  <outline>
    <contour>
      <point x="69.98520586198234" y="37.90527204378751" type="curve" smooth="yes"/>
      <point x="69.99458123664225" y="49.21410156157003"/>
      <point x="70.00024996801899" y="81.73046713003261"/>
      <point x="70.00592453689207" y="114.24335199365733" type="curve" smooth="yes"/>
      <point x="70.01904249226742" y="189.4037002606665"/>
      <point x="70.04081439968802" y="314.1475416082152"/>
      <point x="70.05393235506344" y="389.3078898752244" type="curve" smooth="yes"/>
      <point x="70.05958937233548" y="421.72021147194744"/>
      <point x="70.06400762484034" y="442.90530032112804"/>
      <point x="70.06726040977176" y="493.9547068359668" type="curve" smooth="yes"/>
      <point x="70.07156139968366" y="561.4547066989408"/>
      <point x="160.0715612169823" y="561.448972045725"/>
      <point x="160.0672602270704" y="493.94897218275105" type="curve" smooth="yes"/>
      <point x="160.064839563921" y="455.9589360276184"/>
      <point x="160.05814083324066" y="413.41283978855023"/>
      <point x="160.0539309842851" y="389.2921819122754" type="curve" smooth="yes"/>
      <point x="160.0343824044873" y="277.28706955523717"/>
      <point x="160.0254717459114" y="226.23275638774683"/>
      <point x="160.00592316611375" y="114.22764403070845" type="curve" smooth="yes"/>
      <point x="160.0002423768658" y="81.67911904431236"/>
      <point x="159.9945605856122" y="49.15188532650869"/>
      <point x="159.98517493381118" y="37.83065924428396" type="curve" smooth="yes"/>
      <point x="159.92921533418354" y="-29.66931755958769"/>
      <point x="69.9292462623547" y="-29.594704760084134"/>
    </contour>
  </outline>
</glyph>
<glyph name="m" format="2">
  <advance width="828"/>
  <unicode hex="006D"/>
  <outline>
    <contour>
      <point x="156.0" y="330.0" type="curve" smooth="yes"/>
      <point x="156.0" y="283.0"/>
      <point x="156.0" y="253.0"/>
      <point x="156.0" y="226.0" type="curve" smooth="yes"/>
      <point x="156.0" y="206.0"/>
      <point x="156.0" y="111.0"/>
      <point x="156.0" y="51.0" type="curve" smooth="yes"/>
      <point x="156.0" y="-17.0"/>
      <point x="66.0" y="-18.0"/>
      <point x="66.0" y="51.0" type="curve" smooth="yes"/>
      <point x="66.0" y="108.0"/>
      <point x="66.0" y="209.0"/>
      <point x="66.0" y="262.0" type="curve" smooth="yes"/>
      <point x="66.0" y="372.0"/>
      <point x="154.0" y="388.0"/>
      <point x="290.0" y="361.0" type="curve" smooth="yes"/>
      <point x="396.0" y="340.0"/>
      <point x="463.0" y="310.0"/>
      <point x="463.0" y="198.0" type="curve" smooth="yes"/>
      <point x="463.0" y="173.0"/>
      <point x="463.0" y="103.0"/>
      <point x="463.0" y="50.0" type="curve" smooth="yes"/>
      <point x="463.0" y="-18.0"/>
      <point x="373.0" y="-19.0"/>
      <point x="373.0" y="50.0" type="curve" smooth="yes"/>
      <point x="373.0" y="103.0"/>
      <point x="373.0" y="230.0"/>
      <point x="373.0" y="261.0" type="curve" smooth="yes"/>
      <point x="373.0" y="376.0"/>
      <point x="461.0" y="388.0"/>
      <point x="597.0" y="361.0" type="curve" smooth="yes"/>
      <point x="703.0" y="340.0"/>
      <point x="770.0" y="305.0"/>
      <point x="770.0" y="203.0" type="curve" smooth="yes"/>
      <point x="770.0" y="180.0"/>
      <point x="770.0" y="150.0"/>
      <point x="770.0" y="133.0" type="curve" smooth="yes"/>
      <point x="770.0" y="107.0"/>
      <point x="770.0" y="93.0"/>
      <point x="770.0" y="43.0" type="curve" smooth="yes"/>
      <point x="770.0" y="-25.0"/>
      <point x="680.0" y="-26.0"/>
      <point x="680.0" y="43.0" type="curve" smooth="yes"/>
      <point x="680.0" y="83.0"/>
      <point x="680.0" y="105.0"/>
      <point x="680.0" y="121.0" type="curve" smooth="yes"/>
      <point x="680.0" y="139.0"/>
      <point x="680.0" y="171.0"/>
      <point x="680.0" y="202.0" type="curve" smooth="yes"/>
      <point x="680.0" y="256.0"/>
      <point x="628.0" y="263.0"/>
      <point x="590.0" y="270.0" type="curve" smooth="yes"/>
      <point x="537.0" y="280.0"/>
      <point x="463.0" y="309.0"/>
      <point x="463.0" y="264.0" type="curve" smooth="yes"/>
      <point x="463.0" y="235.0"/>
      <point x="463.0" y="97.0"/>
      <point x="463.0" y="50.0" type="curve" smooth="yes"/>
      <point x="463.0" y="-18.0"/>
      <point x="373.0" y="-19.0"/>
      <point x="373.0" y="50.0" type="curve" smooth="yes"/>
      <point x="373.0" y="97.0"/>
      <point x="373.0" y="178.0"/>
      <point x="373.0" y="205.0" type="curve" smooth="yes"/>
      <point x="373.0" y="252.0"/>
      <point x="321.0" y="263.0"/>
      <point x="283.0" y="270.0" type="curve" smooth="yes"/>
      <point x="230.0" y="280.0"/>
      <point x="156.0" y="314.0"/>
      <point x="156.0" y="259.0" type="curve" smooth="yes"/>
      <point x="156.0" y="232.0"/>
      <point x="156.0" y="113.0"/>
      <point x="156.0" y="51.0" type="curve" smooth="yes"/>
      <point x="156.0" y="-17.0"/>
      <point x="66.0" y="-18.0"/>
      <point x="66.0" y="51.0" type="curve" smooth="yes"/>
      <point x="66.0" y="110.0"/>
      <point x="66.0" y="212.0"/>
      <point x="66.0" y="228.0" type="curve" smooth="yes"/>
      <point x="66.0" y="259.0"/>
      <point x="66.0" y="291.0"/>
      <point x="66.0" y="333.0" type="curve" smooth="yes"/>
      <point x="66.0" y="402.0"/>
      <point x="156.0" y="405.0"/>
    </contour>
  </outline>
</glyph>
<glyph name="n" format="2">
  <advance width="568"/>
  <unicode hex="006E"/>
  <outline>
    <contour>
      <point x="421.0" y="29.0" type="curve" smooth="yes"/>
      <point x="421.0" y="58.0"/>
      <point x="421.0" y="81.0"/>
      <point x="421.0" y="111.0" type="curve" smooth="yes"/>
      <point x="421.0" y="135.0"/>
      <point x="421.0" y="165.0"/>
      <point x="421.0" y="194.0" type="curve" smooth="yes"/>
      <point x="421.0" y="247.0"/>
      <point x="356.0" y="255.0"/>
      <point x="297.0" y="273.0" type="curve" smooth="yes"/>
      <point x="228.0" y="294.0"/>
      <point x="156.0" y="319.0"/>
      <point x="156.0" y="247.0" type="curve" smooth="yes"/>
      <point x="156.0" y="215.0"/>
      <point x="156.0" y="125.0"/>
      <point x="156.0" y="61.0" type="curve" smooth="yes"/>
      <point x="156.0" y="-7.0"/>
      <point x="66.0" y="-8.0"/>
      <point x="66.0" y="61.0" type="curve" smooth="yes"/>
      <point x="66.0" y="125.0"/>
      <point x="66.0" y="204.0"/>
      <point x="66.0" y="228.0" type="curve" smooth="yes"/>
      <point x="66.0" y="258.0"/>
      <point x="66.0" y="282.0"/>
      <point x="66.0" y="328.0" type="curve" smooth="yes"/>
      <point x="66.0" y="406.0"/>
      <point x="156.0" y="401.0"/>
      <point x="156.0" y="334.0" type="curve" smooth="yes"/>
      <point x="156.0" y="291.0"/>
      <point x="156.0" y="253.0"/>
      <point x="156.0" y="226.0" type="curve" smooth="yes"/>
      <point x="156.0" y="213.0"/>
      <point x="156.0" y="125.0"/>
      <point x="156.0" y="61.0" type="curve" smooth="yes"/>
      <point x="156.0" y="-7.0"/>
      <point x="66.0" y="-8.0"/>
      <point x="66.0" y="61.0" type="curve" smooth="yes"/>
      <point x="66.0" y="123.0"/>
      <point x="66.0" y="213.0"/>
      <point x="66.0" y="265.0" type="curve" smooth="yes"/>
      <point x="66.0" y="369.0"/>
      <point x="172.0" y="405.0"/>
      <point x="322.0" y="359.0" type="curve" smooth="yes"/>
      <point x="446.0" y="321.0"/>
      <point x="511.0" y="297.0"/>
      <point x="511.0" y="196.0" type="curve" smooth="yes"/>
      <point x="511.0" y="173.0"/>
      <point x="511.0" y="145.0"/>
      <point x="511.0" y="113.0" type="curve" smooth="yes"/>
      <point x="511.0" y="80.0"/>
      <point x="511.0" y="60.0"/>
      <point x="511.0" y="27.0" type="curve" smooth="yes"/>
      <point x="511.0" y="-18.0"/>
      <point x="421.0" y="-20.0"/>
    </contour>
  </outline>
</glyph>
<glyph name="o" format="2">
  <advance width="577"/>
  <unicode hex="006F"/>
  <outline>
    <contour>
      <point x="226.63153963543704" y="-3.5761398576739296" type="curve" smooth="yes"/>
      <point x="165.67132841251288" y="-1.7417238888250932"/>
      <point x="125.0140322288972" y="7.912495476201876"/>
      <point x="90.29020657627679" y="40.329776013470614" type="curve" smooth="yes"/>
      <point x="58.39112582720742" y="70.10994654734532"/>
      <point x="39.006213682044866" y="115.88222933579304"/>
      <point x="39.01468999640663" y="164.44793345790225" type="curve" smooth="yes"/>
      <point x="39.033862293490245" y="274.29710466171485"/>
      <point x="140.20785576200936" y="360.7609306503489"/>
      <point x="288.04109667458476" y="360.76093065034894" type="curve" smooth="yes"/>
      <point x="436.9781873377546" y="360.760930650349"/>
      <point x="538.0338355353583" y="274.17162985955014"/>
      <point x="538.014682396202" y="164.43222549495326" type="curve" smooth="yes"/>
      <point x="538.0063714547333" y="116.81403826026636"/>
      <point x="519.357698565964" y="71.3607009580135"/>
      <point x="486.62240381268344" y="40.95769243727903" type="curve" smooth="yes"/>
      <point x="451.77116886818044" y="8.589497772721868"/>
      <point x="413.9784924875515" y="-0.8373262673674579"/>
      <point x="349.8923927761417" y="-3.5560612223349253" type="curve" smooth="yes"/>
      <point x="282.45305161768664" y="-6.417051280602236"/>
      <point x="278.63839820666357" y="83.50207026400457"/>
      <point x="346.07773936511865" y="86.36306032227188" type="curve" smooth="yes"/>
      <point x="380.3612822205656" y="87.81747659601861"/>
      <point x="406.7313296384988" y="89.58741941922426"/>
      <point x="425.3753696435171" y="106.9031305318203" type="curve" smooth="yes"/>
      <point x="440.2319027788192" y="120.70118266195728"/>
      <point x="448.01091194276916" y="142.83697251110175"/>
      <point x="448.0146837669804" y="164.44793345790222" type="curve" smooth="yes"/>
      <point x="448.0259948188524" y="229.25548719923094"/>
      <point x="375.9971828509049" y="270.760930650349"/>
      <point x="288.04109667458476" y="270.76093065034894" type="curve" smooth="yes"/>
      <point x="200.8677457525564" y="270.7609306503489"/>
      <point x="129.02599402197444" y="229.20737545941128"/>
      <point x="129.0146886256283" y="164.43222549495323" type="curve" smooth="yes"/>
      <point x="129.0108379000499" y="142.36919301258914"/>
      <point x="137.2158188621087" y="119.64573988593646"/>
      <point x="151.70733025777847" y="106.1168333932556" type="curve" smooth="yes"/>
      <point x="169.67167411044068" y="89.34577883936997"/>
      <point x="197.80087889772904" y="87.33217261429633"/>
      <point x="229.33859616123237" y="86.38313895761087" type="curve" smooth="yes"/>
      <point x="296.808055272696" y="84.35284656326442"/>
      <point x="294.10099874690064" y="-5.606432252020375"/>
    </contour>
  </outline>
</glyph>
<glyph name="p" format="2">
  <advance width="584"/>
  <unicode hex="0070"/>
  <outline>
    <contour>
      <point x="65.96484706842571" y="-78.76538335872702" type="curve" smooth="yes"/>
      <point x="65.97409445688548" y="-68.16865669964238"/>
      <point x="65.97952198596795" y="-37.047874004123045"/>
      <point x="65.98507041904382" y="-5.257694026869171" type="curve" smooth="yes"/>
      <point x="65.99710031430396" y="63.668528962077524"/>
      <point x="66.00278315663537" y="96.22881725014207"/>
      <point x="66.01481305189547" y="165.15504023908875" type="curve" smooth="yes"/>
      <point x="66.03414962773425" y="275.9454593816438"/>
      <point x="162.1477408862086" y="360.760930650349"/>
      <point x="305.041096468968" y="360.76093065034894" type="curve" smooth="yes"/>
      <point x="446.82267687923076" y="360.7609306503489"/>
      <point x="546.0339148314977" y="274.62635597306905"/>
      <point x="546.0145589142488" y="163.72511871376673" type="curve" smooth="yes"/>
      <point x="545.9944278696837" y="48.38272905159965"/>
      <point x="437.806430980733" y="-15.846978390534728"/>
      <point x="295.52419188339167" y="18.141042915480334" type="curve" smooth="yes"/>
      <point x="153.77187100869483" y="52.002478697146444"/>
      <point x="65.9768521881339" y="162.03980541144892"/>
      <point x="66.00074534450114" y="240.1142764277304" type="curve" smooth="yes"/>
      <point x="66.01517114335104" y="287.2527372020333"/>
      <point x="66.02069531913439" y="319.7978668750528"/>
      <point x="66.02480892583657" y="392.1310221810338" type="curve" smooth="yes"/>
      <point x="66.02864766964319" y="459.6310220718786"/>
      <point x="156.0286475241029" y="459.6259037468031"/>
      <point x="156.02480878029627" y="392.1259038559583" type="curve" smooth="yes"/>
      <point x="156.02122920295037" y="329.1830551979123"/>
      <point x="156.01329416841332" y="281.10566879097155"/>
      <point x="156.00074113004604" y="240.08673369904628" type="curve" smooth="yes"/>
      <point x="155.98680459553862" y="194.54701752496666"/>
      <point x="233.75274417555374" y="125.42903803176323"/>
      <point x="316.4348344365889" y="105.67814949327635" type="curve" smooth="yes"/>
      <point x="390.44768076258254" y="87.99814801307964"/>
      <point x="456.0040884515979" y="103.74164044589976"/>
      <point x="456.0145602850272" y="163.7408266767157" type="curve" smooth="yes"/>
      <point x="456.0259513117975" y="229.00660283396303"/>
      <point x="388.4800654016685" y="270.7609306503489"/>
      <point x="305.041096468968" y="270.76093065034894" type="curve" smooth="yes"/>
      <point x="220.69632047580336" y="270.760930650349"/>
      <point x="156.02622536197688" y="230.53490680553443"/>
      <point x="156.01481168111712" y="165.13933227613984" type="curve" smooth="yes"/>
      <point x="156.00673909319383" y="118.88681026567262"/>
      <point x="155.99314163618882" y="40.97912002064903"/>
      <point x="155.98506904826547" y="-5.273401989818172" type="curve" smooth="yes"/>
      <point x="155.979511754436" y="-37.114350346075184"/>
      <point x="155.97407495536845" y="-68.23027369267656"/>
      <point x="155.9648127989859" y="-78.84392314476226" type="curve" smooth="yes"/>
      <point x="155.90590795945943" y="-146.34389744268242"/>
      <point x="65.90594222889924" y="-146.26535765664715"/>
    </contour>
  </outline>
</glyph>
<glyph name="q" format="2">
  <advance width="584"/>
  <unicode hex="0071"/>
  <outline>
    <contour>
      <point x="428.95618558575524" y="-29.303894176392088" type="curve" smooth="yes"/>
      <point x="428.9585064547833" y="2.494714705804136"/>
      <point x="428.96422186586284" y="45.026199955242426"/>
      <point x="428.9681572524755" y="67.57430443534516" type="curve" smooth="yes"/>
      <point x="428.97330352727647" y="97.06028721701793"/>
      <point x="428.9876088034233" y="179.00779269852734"/>
      <point x="428.9969128030628" y="225.26031470487072" type="curve" smooth="yes"/>
      <point x="429.0116555482826" y="298.5502087420062"/>
      <point x="363.9151943792737" y="279.4892316185338"/>
      <point x="288.8200505136117" y="264.5542577122657" type="curve" smooth="yes"/>
      <point x="210.00323874203073" y="248.87911593093347"/>
      <point x="129.02552244197008" y="226.50511561806806"/>
      <point x="129.01456526552204" y="163.72511871376676" type="curve" smooth="yes"/>
      <point x="129.00317423875174" y="98.45934255651945"/>
      <point x="195.5491835775258" y="57.41212152132006"/>
      <point x="278.98815251022637" y="57.412121521320046" type="curve" smooth="yes"/>
      <point x="361.56473464639464" y="57.41212152132003"/>
      <point x="429.0031867474887" y="98.5729002425304"/>
      <point x="429.01456069626073" y="163.74082667671573" type="curve" smooth="yes"/>
      <point x="429.0280943284286" y="241.2828275392806"/>
      <point x="429.0331967368741" y="264.3374223365713"/>
      <point x="429.03800869497826" y="326.37102302662294" type="curve" smooth="yes"/>
      <point x="429.04324468269186" y="393.87102282354465"/>
      <point x="519.0432444119208" y="393.86404150659314"/>
      <point x="519.0380084242072" y="326.3640417096714" type="curve" smooth="yes"/>
      <point x="519.0347793890381" y="284.7367719002509"/>
      <point x="519.0236409868963" y="215.7592059755423"/>
      <point x="519.0145593254824" y="163.7251187137667" type="curve" smooth="yes"/>
      <point x="518.9951840474773" y="52.71295249189575"/>
      <point x="419.65559067694886" y="-32.58787847867997"/>
      <point x="278.98815251022637" y="-32.587878478679954" type="curve" smooth="yes"/>
      <point x="137.20657209996352" y="-32.58787847867994"/>
      <point x="38.99521071905154" y="52.83958941741333"/>
      <point x="39.01456663630036" y="163.74082667671567" type="curve" smooth="yes"/>
      <point x="39.033980961683035" y="274.9767178936666"/>
      <point x="131.61410599690112" y="325.0516793062457"/>
      <point x="271.2646114541543" y="352.8254679647012" type="curve" smooth="yes"/>
      <point x="417.2133543480012" y="381.85185442014983"/>
      <point x="519.0255637687803" y="367.68241847262567"/>
      <point x="518.996910982184" y="225.24221061207095" type="curve" smooth="yes"/>
      <point x="518.9830460181566" y="156.31598762926987"/>
      <point x="518.9758249399255" y="111.49906362784988"/>
      <point x="518.9681558816972" y="67.55859647239627" type="curve" smooth="yes"/>
      <point x="518.9622913077578" y="33.95706276528479"/>
      <point x="518.9596439409263" y="18.07631534392034"/>
      <point x="518.956185346039" y="-29.310462960980534" type="curve" smooth="yes"/>
      <point x="518.9512587575977" y="-96.81046278119331"/>
      <point x="428.9512589973139" y="-96.80389399660487"/>
    </contour>
  </outline>
</glyph>
<glyph name="r" format="2">
  <advance width="389"/>
  <unicode hex="0072"/>
  <outline>
    <contour>
      <point x="340.87251848817834" y="306.28735482078264" type="curve" smooth="yes"/>
      <point x="222.3768386207761" y="273.9738928440502"/>
      <point x="156.0273238562774" y="238.25153760384325"/>
      <point x="156.01604433025045" y="173.6246136503784" type="curve" smooth="yes"/>
      <point x="156.01138274583704" y="146.91570224216161"/>
      <point x="156.00474397168298" y="100.39304665727782"/>
      <point x="156.00111130711747" y="79.57941175256755" type="curve" smooth="yes"/>
      <point x="155.97225641763237" y="-85.7469276677418"/>
      <point x="65.96088793263628" y="-17.966832703490294"/>
      <point x="65.98593258360754" y="160.91084601720652" type="curve" smooth="yes"/>
      <point x="65.98997996628863" y="189.81867227219814"/>
      <point x="65.99898651857109" y="241.34605598723587"/>
      <point x="66.003704768794" y="262.73784742247165" type="curve" smooth="yes"/>
      <point x="66.0131416278007" y="305.52305595086113"/>
      <point x="66.02178445684326" y="317.03106162447347"/>
      <point x="66.02579474201605" y="390.716698547154" type="curve" smooth="yes"/>
      <point x="66.02946837856268" y="458.21669844718656"/>
      <point x="156.02946824527274" y="458.21180026512445"/>
      <point x="156.0257946087261" y="390.7118003650919" type="curve" smooth="yes"/>
      <point x="156.02265556283896" y="333.03445684513997"/>
      <point x="156.0110892696381" y="296.20806712542225"/>
      <point x="156.00370257962078" y="262.71799670024404" type="curve" smooth="yes"/>
      <point x="155.9966713702327" y="230.83961855981707"/>
      <point x="155.99196317369353" y="203.97713448956472"/>
      <point x="155.98593170148243" y="160.89824512378348" type="curve" smooth="yes"/>
      <point x="155.98494609394643" y="153.8586905149622"/>
      <point x="65.99997712218129" y="73.08886469840508"/>
      <point x="66.00111267789579" y="79.59511971551652" type="curve" smooth="yes"/>
      <point x="66.00652613076288" y="110.61192006054257"/>
      <point x="66.01291757320847" y="155.71746933427136"/>
      <point x="66.01604570102879" y="173.64032161332736" type="curve" smooth="yes"/>
      <point x="66.03354378370489" y="273.89695081339227"/>
      <point x="133.37040199947114" y="342.98844287379137"/>
      <point x="317.19436748528005" y="393.1167574738238" type="curve" smooth="yes"/>
      <point x="382.3164194750609" y="410.87537072599747"/>
      <point x="405.9945704779592" y="324.0459680729563"/>
    </contour>
  </outline>
</glyph>
<glyph name="s" format="2">
  <advance width="462"/>
  <unicode hex="0073"/>
  <outline>
    <contour>
      <point x="352.0" y="263.0" type="curve" smooth="yes"/>
      <point x="310.0" y="264.0"/>
      <point x="241.0" y="271.0"/>
      <point x="214.0" y="271.0" type="curve" smooth="yes"/>
      <point x="176.0" y="271.0"/>
      <point x="141.0" y="261.0"/>
      <point x="141.0" y="244.0" type="curve" smooth="yes"/>
      <point x="141.0" y="229.0"/>
      <point x="210.0" y="214.0"/>
      <point x="247.0" y="209.0" type="curve" smooth="yes"/>
      <point x="340.0" y="196.0"/>
      <point x="421.0" y="171.0"/>
      <point x="421.0" y="97.0" type="curve" smooth="yes"/>
      <point x="421.0" y="29.0"/>
      <point x="352.0" y="-33.0"/>
      <point x="244.0" y="-33.0" type="curve" smooth="yes"/>
      <point x="187.0" y="-33.0"/>
      <point x="127.0" y="-6.0"/>
      <point x="70.0" y="32.0" type="curve" smooth="yes"/>
      <point x="11.0" y="71.0"/>
      <point x="63.0" y="145.0"/>
      <point x="119.0" y="108.0" type="curve" smooth="yes"/>
      <point x="159.0" y="81.0"/>
      <point x="207.0" y="57.0"/>
      <point x="242.0" y="57.0" type="curve" smooth="yes"/>
      <point x="281.0" y="57.0"/>
      <point x="331.0" y="78.0"/>
      <point x="331.0" y="93.0" type="curve" smooth="yes"/>
      <point x="331.0" y="110.0"/>
      <point x="253.0" y="118.0"/>
      <point x="216.0" y="123.0" type="curve" smooth="yes"/>
      <point x="135.0" y="134.0"/>
      <point x="51.0" y="174.0"/>
      <point x="51.0" y="243.0" type="curve" smooth="yes"/>
      <point x="51.0" y="312.0"/>
      <point x="120.0" y="360.0"/>
      <point x="226.0" y="361.0" type="curve" smooth="yes"/>
      <point x="273.0" y="361.0"/>
      <point x="311.0" y="354.0"/>
      <point x="360.0" y="353.0" type="curve" smooth="yes"/>
      <point x="419.0" y="352.0"/>
      <point x="423.0" y="262.0"/>
    </contour>
  </outline>
</glyph>
<glyph name="t" format="2">
  <advance width="336"/>
  <unicode hex="0074"/>
  <outline>
    <contour>
      <point x="117.98520364293563" y="37.90240232248023" type="curve" smooth="yes"/>
      <point x="117.99255064307678" y="47.50306430489533"/>
      <point x="117.99645765194641" y="60.00170376689996"/>
      <point x="118.00432023104482" y="105.05096383823232" type="curve" smooth="yes"/>
      <point x="118.02071096333684" y="198.96294266067204"/>
      <point x="118.0289885466278" y="246.39000161612256"/>
      <point x="118.04109742851283" y="315.76878463182345" type="curve" smooth="yes"/>
      <point x="118.04800042316265" y="355.32003077624023"/>
      <point x="118.0512647451362" y="376.89699069255056"/>
      <point x="118.05491927171552" y="413.34617831583665" type="curve" smooth="yes"/>
      <point x="118.06168706433172" y="480.84617797655505"/>
      <point x="208.06168661195628" y="480.8371542530667"/>
      <point x="208.05491881934006" y="413.3371545923483" type="curve" smooth="yes"/>
      <point x="208.05219432091593" y="386.1637979111988"/>
      <point x="208.04624233253568" y="345.2390594505474"/>
      <point x="208.04109605773448" y="315.7530766688744" type="curve" smooth="yes"/>
      <point x="208.0230512148443" y="212.36374218545444"/>
      <point x="208.01531776131216" y="168.05431711454474"/>
      <point x="208.0043188602665" y="105.03525587528324" type="curve" smooth="yes"/>
      <point x="207.996785639742" y="61.87308143680146"/>
      <point x="207.99221652878649" y="47.03202515739885"/>
      <point x="207.98517728993573" y="37.83352896559124" type="curve" smooth="yes"/>
      <point x="207.93352227226896" y="-29.666451269658822"/>
      <point x="117.93354862526884" y="-29.597577912769836"/>
    </contour>
    <contour>
      <point x="279.0343072385549" y="295.50966799187813" type="curve" smooth="yes"/>
      <point x="252.59279408665915" y="295.50966799187813"/>
      <point x="229.0076261693016" y="302.37111340605065"/>
      <point x="203.8428413699404" y="313.4916246228818" type="curve" smooth="yes"/>
      <point x="179.10729043015107" y="324.42245410835415"/>
      <point x="155.8265866406388" y="326.6792583625487"/>
      <point x="131.08025465396608" y="314.3645707598658" type="curve" smooth="yes"/>
      <point x="108.03012162354332" y="302.8939743246926"/>
      <point x="85.49297359007804" y="295.50966799187813"/>
      <point x="57.03431061980826" y="295.50966799187813" type="curve" smooth="yes"/>
      <point x="-10.46568938019174" y="295.50966799187813"/>
      <point x="-10.465689380191726" y="385.50966799187813"/>
      <point x="57.034310619808274" y="385.50966799187813" type="curve" smooth="yes"/>
      <point x="70.38886669872483" y="385.50966799187813"/>
      <point x="80.16688742669686" y="389.55632669640033"/>
      <point x="90.9834284041435" y="394.9390364713524" type="curve" smooth="yes"/>
      <point x="140.15247661926944" y="419.4073685383685"/>
      <point x="191.0732111983321" y="417.53069559949677"/>
      <point x="240.22083830691582" y="395.8119826083364" type="curve" smooth="yes"/>
      <point x="252.85472551731783" y="390.2289710485068"/>
      <point x="265.7594432769965" y="385.50966799187813"/>
      <point x="279.0343072385549" y="385.50966799187813" type="curve" smooth="yes"/>
      <point x="346.5343072385549" y="385.50966799187813"/>
      <point x="346.5343072385549" y="295.50966799187813"/>
    </contour>
  </outline>
</glyph>
<glyph name="u" format="2">
  <advance width="568"/>
  <unicode hex="0075"/>
  <outline>
    <contour>
      <point x="147.03801390281842" y="326.3632811304226" type="curve" smooth="yes"/>
      <point x="147.03206036922487" y="263.34421989116095"/>
      <point x="147.01798113685163" y="183.29888879610894"/>
      <point x="147.00950491953216" y="134.73374068511828" type="curve" smooth="yes"/>
      <point x="146.9999663510607" y="80.08176880678624"/>
      <point x="191.14312899918303" y="57.41212152132006"/>
      <point x="257.9881527082277" y="57.412121521320046" type="curve" smooth="yes"/>
      <point x="337.8629338599103" y="57.41212152132003"/>
      <point x="413.00285561616187" y="96.67495935123547"/>
      <point x="413.01159889616395" y="146.77026392823853" type="curve" smooth="yes"/>
      <point x="413.0155342827766" y="169.31836840834134"/>
      <point x="413.02427329464945" y="219.38921840528442"/>
      <point x="413.02998749489797" y="252.1291743250341" type="curve" smooth="yes"/>
      <point x="413.03106720360995" y="258.31544958720553"/>
      <point x="503.0162562231129" y="343.1525553666423"/>
      <point x="503.01517651440093" y="336.96628010447085" type="curve" smooth="yes"/>
      <point x="503.0096266102037" y="305.1676712222746"/>
      <point x="502.9954927070791" y="224.18637110311252"/>
      <point x="502.98802556325006" y="181.40278824343042" type="curve" smooth="yes"/>
      <point x="502.9832116488883" y="153.82109051687095"/>
      <point x="502.97778162751655" y="122.70954815632915"/>
      <point x="502.97222711094514" y="105.02897269058589" type="curve" smooth="yes"/>
      <point x="502.9510213616873" y="37.528976021577094"/>
      <point x="412.9510258030089" y="37.55725035392082"/>
      <point x="412.97223155226675" y="105.05724702292962" type="curve" smooth="yes"/>
      <point x="412.97876292906363" y="125.84726517722444"/>
      <point x="412.9823664074711" y="148.98606788567932"/>
      <point x="412.9880269340284" y="181.4184962063794" type="curve" smooth="yes"/>
      <point x="412.999154587144" y="245.17525247115506"/>
      <point x="413.0069073321877" y="289.59520976251883"/>
      <point x="413.0151778851793" y="336.9819880674199" type="curve" smooth="yes"/>
      <point x="413.04405756258797" y="502.4503518280326"/>
      <point x="503.0588658015278" y="417.58183012269797"/>
      <point x="503.0299861241196" y="252.1134663620852" type="curve" smooth="yes"/>
      <point x="503.02615164485593" y="230.14351840711322"/>
      <point x="503.01746209932486" y="180.3560896724013"/>
      <point x="503.0115975253856" y="146.75455596528963" type="curve" smooth="yes"/>
      <point x="502.99540767616026" y="53.99355233795057"/>
      <point x="405.8915326099334" y="-32.58787847867997"/>
      <point x="257.9881527082277" y="-32.587878478679954" type="curve" smooth="yes"/>
      <point x="133.77642673299994" y="-32.58787847867994"/>
      <point x="56.99178167915131" y="33.1949068394642"/>
      <point x="57.00950629031048" y="134.74944864806724" type="curve" smooth="yes"/>
      <point x="57.02213768033363" y="207.12198278646113"/>
      <point x="57.02914225668674" y="232.45980478343205"/>
      <point x="57.03801430444112" y="326.37178360587177" type="curve" smooth="yes"/>
      <point x="57.04439116102811" y="393.87178330465474"/>
      <point x="147.04439075940542" y="393.86328082920556"/>
    </contour>
  </outline>
</glyph>
<glyph name="v" format="2">
  <advance width="489"/>
  <unicode hex="0076"/>
  <outline>
    <contour>
      <point x="107.08424269719629" y="346.5502724890467" type="curve" smooth="yes"/>
      <point x="119.9153911677884" y="304.4238089216117"/>
      <point x="131.62340604054424" y="282.66420014419555"/>
      <point x="144.32262172243514" y="259.90850849500396" type="curve" smooth="yes"/>
      <point x="175.75654570062858" y="203.58214163189785"/>
      <point x="203.3344719498422" y="148.65261466060005"/>
      <point x="235.7065884002307" y="94.05140413746338" type="curve" smooth="yes"/>
      <point x="239.1156956873714" y="88.30135115694834"/>
      <point x="251.58389924765746" y="122.79327740366678"/>
      <point x="254.67236652651877" y="128.3422221500122" type="curve" smooth="yes"/>
      <point x="288.13186059541704" y="188.4577639592945"/>
      <point x="317.455129425995" y="208.123699631438"/>
      <point x="345.53146967692595" y="259.54448285838095" type="curve" smooth="yes"/>
      <point x="358.04675915586137" y="282.46577464951577"/>
      <point x="370.13165757881205" y="304.34050830768314"/>
      <point x="382.98963386835123" y="346.5513302238203" type="curve" smooth="yes"/>
      <point x="402.65872893406276" y="411.1220410708909"/>
      <point x="488.75301006349025" y="384.8965809832755"/>
      <point x="469.0839149977787" y="320.3258701362049" type="curve" smooth="yes"/>
      <point x="453.9548495267672" y="270.65940054767424"/>
      <point x="439.2494187193585" y="243.38373909767637"/>
      <point x="424.5235684259871" y="216.4138865812765" type="curve" smooth="yes"/>
      <point x="391.81641335857586" y="156.51193655288583"/>
      <point x="362.0342490287936" y="136.1765713859363"/>
      <point x="333.3120818754204" y="84.57242468824951" type="curve" smooth="yes"/>
      <point x="273.02205078412345" y="-23.74863591382237"/>
      <point x="224.8394553591436" y="-64.0943338534021"/>
      <point x="158.29020429792965" y="48.15256458214358" type="curve" smooth="yes"/>
      <point x="125.1124494668942" y="104.1126244994692"/>
      <point x="96.40301671802108" y="161.09130701741137"/>
      <point x="65.7324249097656" y="216.04986094465346" type="curve" smooth="yes"/>
      <point x="50.72256490828756" y="242.9459901582263"/>
      <point x="36.15511538599962" y="270.5354811908312"/>
      <point x="20.989317196084215" y="320.3269278709785" type="curve" smooth="yes"/>
      <point x="1.3218087325331318" y="384.89812199681256"/>
      <point x="87.4167342336452" y="411.1214666148807"/>
    </contour>
  </outline>
</glyph>
<glyph name="w" format="2">
  <advance width="725"/>
  <unicode hex="0077"/>
  <outline>
    <contour>
      <point x="109.0" y="336.0" type="curve" smooth="yes"/>
      <point x="127.0" y="300.0"/>
      <point x="139.0" y="272.0"/>
      <point x="154.0" y="242.0" type="curve" smooth="yes"/>
      <point x="171.0" y="207.0"/>
      <point x="183.0" y="185.0"/>
      <point x="203.0" y="146.0" type="curve" smooth="yes"/>
      <point x="212.0" y="128.0"/>
      <point x="302" y="136"/>
      <point x="286.0" y="99.0" type="curve" smooth="yes"/>
      <point x="232.0" y="-27.0"/>
      <point x="197.0" y="-42.0"/>
      <point x="152.0" y="45.0" type="curve" smooth="yes"/>
      <point x="140.0" y="68.0"/>
      <point x="197" y="143"/>
      <point x="212.0" y="175.0" type="curve" smooth="yes"/>
      <point x="239" y="233"/>
      <point x="247.0" y="246.0"/>
      <point x="264.0" y="283.0" type="curve" smooth="yes"/>
      <point x="272.0" y="301.0"/>
      <point x="279" y="318"/>
      <point x="301.0" y="362.0" type="curve" smooth="yes"/>
      <point x="338.0" y="437.0"/>
      <point x="373.0" y="412.0"/>
      <point x="396.0" y="357.0" type="curve" smooth="yes"/>
      <point x="406.0" y="334.0"/>
      <point x="438.0" y="259.0"/>
      <point x="445.0" y="243.0" type="curve" smooth="yes"/>
      <point x="462" y="204"/>
      <point x="479.0" y="170.0"/>
      <point x="494.0" y="135.0" type="curve" smooth="yes"/>
      <point x="502.0" y="115.0"/>
      <point x="582" y="149"/>
      <point x="559.0" y="102.0" type="curve" smooth="yes"/>
      <point x="504.0" y="-9.0"/>
      <point x="473.0" y="-21.0"/>
      <point x="449.0" y="38.0" type="curve" smooth="yes"/>
      <point x="438.0" y="65.0"/>
      <point x="509" y="201"/>
      <point x="518.0" y="217.0" type="curve" smooth="yes"/>
      <point x="534" y="245"/>
      <point x="547" y="265"/>
      <point x="569.0" y="293.0" type="curve" smooth="yes"/>
      <point x="583" y="311"/>
      <point x="593" y="329"/>
      <point x="615.0" y="369.0" type="curve" smooth="yes"/>
      <point x="649.0" y="431.0"/>
      <point x="724" y="389"/>
      <point x="696.0" y="329.0" type="curve" smooth="yes"/>
      <point x="678" y="290"/>
      <point x="663" y="269"/>
      <point x="649.0" y="250.0" type="curve" smooth="yes"/>
      <point x="623" y="216"/>
      <point x="613" y="207"/>
      <point x="597.0" y="175.0" type="curve" smooth="yes"/>
      <point x="589" y="159"/>
      <point x="578.0" y="139.0"/>
      <point x="559.0" y="102.0" type="curve" smooth="yes"/>
      <point x="504.0" y="-9.0"/>
      <point x="475.0" y="-68.0"/>
      <point x="429.0" y="48.0" type="curve" smooth="yes"/>
      <point x="415.0" y="83.0"/>
      <point x="410.0" y="98.0"/>
      <point x="403.0" y="115.0" type="curve" smooth="yes"/>
      <point x="390.0" y="146.0"/>
      <point x="382.0" y="165.0"/>
      <point x="356.0" y="220.0" type="curve" smooth="yes"/>
      <point x="344.0" y="244.0"/>
      <point x="287" y="333"/>
      <point x="301.0" y="362.0" type="curve" smooth="yes"/>
      <point x="338.0" y="437.0"/>
      <point x="373.0" y="412.0"/>
      <point x="396.0" y="357.0" type="curve" smooth="yes"/>
      <point x="407.0" y="332.0"/>
      <point x="369.0" y="301.0"/>
      <point x="362.0" y="285.0" type="curve" smooth="yes"/>
      <point x="348.0" y="251.0"/>
      <point x="323.0" y="186.0"/>
      <point x="307.0" y="149.0" type="curve" smooth="yes"/>
      <point x="300" y="133"/>
      <point x="302" y="136"/>
      <point x="286.0" y="99.0" type="curve" smooth="yes"/>
      <point x="232.0" y="-27.0"/>
      <point x="197.0" y="-42.0"/>
      <point x="152.0" y="45.0" type="curve" smooth="yes"/>
      <point x="136.0" y="76.0"/>
      <point x="130.0" y="88.0"/>
      <point x="121.0" y="106.0" type="curve" smooth="yes"/>
      <point x="101.0" y="146.0"/>
      <point x="91.0" y="168.0"/>
      <point x="74.0" y="203.0" type="curve" smooth="yes"/>
      <point x="59.0" y="233.0"/>
      <point x="46.0" y="259.0"/>
      <point x="28.0" y="295.0" type="curve" smooth="yes"/>
      <point x="1.0" y="349.0"/>
      <point x="82.0" y="390.0"/>
    </contour>
  </outline>
</glyph>
